<svg width="24" height="24" viewBox="0 0 24 24" fill="none" xmlns="http://www.w3.org/2000/svg">
<path d="M9.11786 13.7395C8.9177 13.5396 8.60746 13.5396 8.40731 13.7395L4.2641 17.8886L3.08319 16.7088C2.9631 16.5889 2.76294 16.6589 2.74293 16.8188L2.00236 21.7577C1.98234 21.8877 2.09243 22.0076 2.23254 21.9876L7.16635 21.2478C7.32647 21.2278 7.39652 21.0279 7.27643 20.9079L6.09552 19.7282L10.2387 15.5791C10.4289 15.3792 10.4289 15.0692 10.2387 14.8693L9.11786 13.7495V13.7395Z" fill="black"/>
<path d="M14.8022 10.1803C15.0324 10.4103 15.4127 10.4103 15.6529 10.1803L19.726 6.10126L20.907 7.28099C21.0271 7.40096 21.2272 7.33098 21.2472 7.17102L21.9878 2.23214C22.0078 2.10217 21.8977 1.9822 21.7576 2.00219L16.8238 2.74202C16.6637 2.76202 16.5936 2.96197 16.7137 3.08195L17.8946 4.26168L13.8215 8.34075C13.5913 8.5707 13.5913 8.95061 13.8215 9.19056L14.8022 10.1703V10.1803Z" fill="black"/>
<path d="M20.907 16.7288L19.716 17.9086L15.5528 13.7795C15.3527 13.5896 15.0424 13.5896 14.8523 13.7795L13.7214 14.8993C13.5213 15.0992 13.5213 15.4091 13.7214 15.6091L17.8846 19.7382L16.7037 20.9179C16.5836 21.0379 16.6537 21.2378 16.8138 21.2578L21.7676 21.9976C21.8977 22.0176 22.0178 21.9077 21.9978 21.7677L21.2572 16.8488C21.2372 16.6889 21.0371 16.6189 20.917 16.7388L20.907 16.7288Z" fill="black"/>
<path d="M3.0932 7.27099L4.28412 6.09126L8.37728 10.1503C8.60746 10.3803 8.98775 10.3803 9.22794 10.1503L10.2087 9.17056C10.4489 8.94061 10.4489 8.5507 10.2087 8.32076L6.11554 4.26168L7.29645 3.08195C7.41654 2.96197 7.34649 2.76202 7.18636 2.74202L2.24254 2.01219C2.11244 1.99219 2.00236 2.11217 2.01236 2.24214L2.75294 7.16102C2.77295 7.32098 2.97311 7.39097 3.0932 7.27099Z" fill="black"/>
</svg>
