<svg width="24" height="24" viewBox="0 0 24 24" fill="none" xmlns="http://www.w3.org/2000/svg">
<path fill-rule="evenodd" clip-rule="evenodd" d="M11.0683 3.99447L11.0683 18.6133L3.41615 11.6519C3.01863 11.3536 2.52174 11.3536 2.2236 11.6519C1.92547 12.0497 1.92547 12.547 2.2236 12.9448L10.472 20.4033C11.3665 21.1989 12.6584 21.1989 13.5528 20.4033L21.7019 12.9447C22.0994 12.6464 22.0994 12.0497 21.7019 11.6519C21.4037 11.2541 20.8075 11.2541 20.5093 11.6519L12.8571 18.6133L12.8571 3.89503C12.8571 3.39779 12.4596 3 11.9627 3C11.4658 3 11.0683 3.39779 11.0683 3.89503L11.0683 3.99447Z" fill="black"/>
</svg>
