<svg width="24" height="24" viewBox="0 0 24 24" fill="none" xmlns="http://www.w3.org/2000/svg">
<path fill-rule="evenodd" clip-rule="evenodd" d="M9.24638 2C8.83658 2 8.49675 2.34 8.49675 2.75V7.44L3.27936 2.22C2.98951 1.93 2.50975 1.93 2.21989 2.22C1.93003 2.51 1.93003 2.99 2.21989 3.28L7.43728 8.5H2.74963C2.33983 8.5 2 8.84 2 9.25C2 9.66 2.33983 10 2.74963 10H9.24638C9.34633 10 9.44628 9.98 9.53623 9.94C9.71614 9.86 9.86607 9.72 9.94603 9.53C9.98601 9.44 10.006 9.34 10.006 9.24V2.75C9.996 2.34 9.65617 2 9.24638 2Z" fill="black"/>
<path fill-rule="evenodd" clip-rule="evenodd" d="M9.53623 14.06C9.44628 14.02 9.35632 14 9.25637 14H2.74963C2.33983 14 2 14.34 2 14.75C2 15.16 2.33983 15.5 2.74963 15.5H7.43728L2.21989 20.72C1.93003 21.01 1.93003 21.49 2.21989 21.78C2.50975 22.07 2.98951 22.07 3.27936 21.78L8.49675 16.56V21.25C8.49675 21.66 8.83658 22 9.24638 22C9.65617 22 9.996 21.66 9.996 21.25V14.75C9.996 14.65 9.97601 14.55 9.93603 14.46C9.85607 14.28 9.71614 14.13 9.52624 14.05L9.53623 14.06Z" fill="black"/>
<path fill-rule="evenodd" clip-rule="evenodd" d="M14.054 9.54C14.1339 9.72 14.2739 9.87 14.4638 9.95C14.5537 9.99 14.6537 10.01 14.7536 10.01H21.2504C21.6602 10.01 22 9.67 22 9.26C22 8.85 21.6602 8.51 21.2504 8.51H16.5627L21.7801 3.29C22.07 3 22.07 2.52 21.7801 2.23C21.4903 1.94 21.0105 1.94 20.7206 2.23L15.5032 7.45V2.75C15.4933 2.34 15.1534 2 14.7436 2C14.3338 2 13.994 2.34 13.994 2.75V9.25C13.994 9.34 14.014 9.44 14.054 9.53V9.54Z" fill="black"/>
<path fill-rule="evenodd" clip-rule="evenodd" d="M21.99 14.75C21.99 14.34 21.6502 14 21.2404 14H14.7436C14.6537 14 14.5537 14.02 14.4638 14.06C14.2839 14.14 14.1339 14.28 14.054 14.47C14.014 14.56 13.994 14.65 13.994 14.75V21.25C13.994 21.66 14.3338 22 14.7436 22C15.1534 22 15.4933 21.66 15.4933 21.25V16.56L20.7106 21.78C21.0005 22.07 21.4803 22.07 21.7701 21.78C22.06 21.49 22.06 21.01 21.7701 20.72L16.5527 15.5H21.2404C21.6502 15.5 21.99 15.16 21.99 14.75Z" fill="black"/>
</svg>
