<svg width="24" height="24" viewBox="0 0 24 24" fill="none" xmlns="http://www.w3.org/2000/svg">
<path fill-rule="evenodd" clip-rule="evenodd" d="M10 2.75962C10 2.34983 9.66 2.01 9.25 2.01H2.75C2.65 2.01 2.56 2.02999 2.46 2.06997C2.28 2.13993 2.13 2.28986 2.06 2.46977C2.02 2.55972 2 2.65967 2 2.74963V9.24638C2 9.65617 2.34 9.996 2.75 9.996C3.16 9.996 3.5 9.65617 3.5 9.24638V4.56872L8.72 9.78611C9.01 10.076 9.49 10.076 9.78 9.78611C10.07 9.49625 10.07 9.01649 9.78 8.72664L4.56 3.50925H9.25C9.66 3.50925 10 3.16942 10 2.75962Z" fill="black"/>
<path fill-rule="evenodd" clip-rule="evenodd" d="M9.78 14.2239C9.49 13.934 9.01 13.934 8.72 14.2239L3.5 19.4413V14.7536C3.5 14.3438 3.16 14.004 2.75 14.004C2.34 14.004 2 14.3438 2 14.7536V21.2504C2 21.3403 2.02 21.4403 2.06 21.5302C2.14 21.7101 2.28 21.8601 2.47 21.94C2.56 21.98 2.65 22 2.75 22H9.25C9.66 22 10 21.6602 10 21.2504C10 20.8406 9.66 20.5007 9.25 20.5007H4.56L9.78 15.2834C10.07 14.9935 10.07 14.5137 9.78 14.2239Z" fill="black"/>
<path fill-rule="evenodd" clip-rule="evenodd" d="M22 2.74963C22 2.65967 21.98 2.55972 21.94 2.46977C21.86 2.28986 21.72 2.13993 21.53 2.05997C21.44 2.01999 21.34 2 21.24 2H14.74C14.33 2 13.99 2.33983 13.99 2.74963C13.99 3.15942 14.33 3.49925 14.74 3.49925H19.43L14.21 8.71664C13.92 9.0065 13.92 9.48626 14.21 9.77611C14.5 10.066 14.98 10.066 15.27 9.77611L20.49 4.55872V9.24638C20.49 9.65617 20.83 9.996 21.24 9.996C21.65 9.996 21.99 9.65617 21.99 9.24638V2.75962L22 2.74963Z" fill="black"/>
<path fill-rule="evenodd" clip-rule="evenodd" d="M21.25 14.004C20.84 14.004 20.5 14.3438 20.5 14.7536V19.4413L15.28 14.2239C14.99 13.934 14.51 13.934 14.22 14.2239C13.93 14.5137 13.93 14.9935 14.22 15.2834L19.44 20.5007H14.75C14.34 20.5007 14 20.8406 14 21.2504C14 21.6602 14.34 22 14.75 22H21.25C21.34 22 21.44 21.98 21.53 21.94C21.71 21.8601 21.86 21.7201 21.94 21.5302C21.98 21.4403 22 21.3503 22 21.2504V14.7536C22 14.3438 21.66 14.004 21.25 14.004Z" fill="black"/>
</svg>
