<svg width="24" height="24" viewBox="0 0 24 24" fill="none" xmlns="http://www.w3.org/2000/svg">
<path fill-rule="evenodd" clip-rule="evenodd" d="M10.0899 2.58987C10.5646 2.58987 10.9494 2.96904 10.9494 3.43677V20.18C10.9494 21.3536 9.50922 21.9414 8.6669 21.1115L3.75176 16.2687C3.41608 15.9379 3.41608 15.4017 3.75176 15.071C4.08743 14.7402 4.63167 14.7402 4.96734 15.071L9.23034 19.2712V3.43677C9.23034 2.96904 9.61517 2.58987 10.0899 2.58987Z" fill="black"/>
<path fill-rule="evenodd" clip-rule="evenodd" d="M13.9101 21.4101C13.4354 21.4101 13.0506 21.031 13.0506 20.5632V3.82005C13.0506 2.64637 14.4908 2.05858 15.3331 2.8885L20.2482 7.73133C20.5839 8.06206 20.5839 8.59829 20.2482 8.92903C19.9126 9.25976 19.3683 9.25976 19.0327 8.92903L14.7697 4.72876V20.5632C14.7697 21.031 14.3848 21.4101 13.9101 21.4101Z" fill="black"/>
</svg>
