<svg width="24" height="24" viewBox="0 0 24 24" fill="none" xmlns="http://www.w3.org/2000/svg">
<path d="M12.0001 22.0001C10.7501 22.0001 9.57926 21.7626 8.4876 21.2876C7.39593 20.8126 6.44593 20.1709 5.6376 19.3626C4.82926 18.5543 4.1876 17.6043 3.7126 16.5126C3.2376 15.4209 3.0001 14.2501 3.0001 13.0001C3.0001 11.7501 3.2376 10.5793 3.7126 9.4876C4.1876 8.39593 4.82926 7.44593 5.6376 6.6376C6.44593 5.82926 7.39593 5.1876 8.4876 4.7126C9.57926 4.2376 10.7501 4.0001 12.0001 4.0001C13.2501 4.0001 14.4209 4.2376 15.5126 4.7126C16.6043 5.1876 17.5543 5.82926 18.3626 6.6376C19.1709 7.44593 19.8126 8.39593 20.2876 9.4876C20.7626 10.5793 21.0001 11.7501 21.0001 13.0001C21.0001 14.2501 20.7626 15.4209 20.2876 16.5126C19.8126 17.6043 19.1709 18.5543 18.3626 19.3626C17.5543 20.1709 16.6043 20.8126 15.5126 21.2876C14.4209 21.7626 13.2501 22.0001 12.0001 22.0001ZM14.1001 16.5001C14.4867 16.8867 15.1135 16.8867 15.5001 16.5001C15.8867 16.1135 15.8867 15.4867 15.5001 15.1001L13.9374 13.5374C13.3372 12.9372 13.0001 12.1233 13.0001 11.2746V9.0001C13.0001 8.44781 12.5524 8.0001 12.0001 8.0001C11.4478 8.0001 11.0001 8.44781 11.0001 9.0001V11.8261C11.0001 12.8339 11.4005 13.8005 12.1131 14.5131L14.1001 16.5001ZM4.9001 3.0501C5.2867 2.6635 5.9135 2.6635 6.3001 3.0501C6.6867 3.4367 6.6867 4.0635 6.3001 4.4501L3.4501 7.3001C3.0635 7.6867 2.4367 7.6867 2.0501 7.3001C1.6635 6.9135 1.6635 6.2867 2.0501 5.9001L4.9001 3.0501ZM17.7001 3.0501C18.0867 2.6635 18.7135 2.6635 19.1001 3.0501L21.9501 5.9001C22.3367 6.2867 22.3367 6.9135 21.9501 7.3001C21.5635 7.6867 20.9367 7.6867 20.5501 7.3001L17.7001 4.4501C17.3135 4.0635 17.3135 3.4367 17.7001 3.0501ZM12.0001 20.0001C13.9501 20.0001 15.6043 19.3209 16.9626 17.9626C18.3209 16.6043 19.0001 14.9501 19.0001 13.0001C19.0001 11.0501 18.3209 9.39593 16.9626 8.0376C15.6043 6.67926 13.9501 6.0001 12.0001 6.0001C10.0501 6.0001 8.39593 6.67926 7.0376 8.0376C5.67926 9.39593 5.0001 11.0501 5.0001 13.0001C5.0001 14.9501 5.67926 16.6043 7.0376 17.9626C8.39593 19.3209 10.0501 20.0001 12.0001 20.0001Z" fill="black"/>
</svg>
