<svg width="24" height="24" viewBox="0 0 24 24" fill="none" xmlns="http://www.w3.org/2000/svg">
<path d="M10.1686 12.5404C9.93842 12.3002 9.54813 12.3002 9.31795 12.5404L4.59434 17.2841L3.20328 15.883C3.08318 15.7629 2.88303 15.833 2.86302 15.9931L2.00236 21.7676C1.98234 21.8977 2.09243 22.0178 2.23253 21.9978L7.97692 21.1371C8.13705 21.1171 8.2071 20.917 8.08701 20.7969L6.69595 19.3958L11.4196 14.6421C11.6497 14.4119 11.6497 14.0316 11.4196 13.7914L10.1686 12.5404Z" fill="black"/>
<path d="M21.7675 2.00219L16.0231 2.86287C15.863 2.88288 15.7929 3.08304 15.913 3.20313L17.3041 4.60423L12.5804 9.35794C12.3503 9.58812 12.3503 9.96841 12.5804 10.2086L13.8314 11.4596C14.0616 11.6998 14.4519 11.6998 14.6821 11.4596L19.4057 6.71588L20.7967 8.11697C20.9168 8.23706 21.117 8.16701 21.137 8.00688L21.9976 2.23237C22.0177 2.10227 21.9076 1.98218 21.7675 2.00219Z" fill="black"/>
</svg>
