<svg width="24" height="24" viewBox="0 0 24 24" fill="none" xmlns="http://www.w3.org/2000/svg">
<path fill-rule="evenodd" clip-rule="evenodd" d="M11.0683 20.0055L11.0683 5.38674L3.41615 12.3481C3.01863 12.6464 2.52174 12.6464 2.2236 12.3481C1.92547 11.9503 1.92547 11.453 2.2236 11.0552L10.472 3.59669C11.3665 2.80111 12.6584 2.80111 13.5528 3.59669L21.7019 11.0553C22.0994 11.3536 22.0994 11.9503 21.7019 12.3481C21.4037 12.7459 20.8075 12.7459 20.5093 12.3481L12.8571 5.38674L12.8571 20.105C12.8571 20.6022 12.4596 21 11.9627 21C11.4658 21 11.0683 20.6022 11.0683 20.105L11.0683 20.0055Z" fill="black"/>
</svg>
