<svg width="24" height="24" viewBox="0 0 24 24" fill="none" xmlns="http://www.w3.org/2000/svg">
<path d="M9.31537 14.5833L4.92045 15.2187C4.7546 15.2396 4.68204 15.4583 4.80643 15.5729L5.8326 16.5625L2.19435 20.0833C1.93522 20.3333 1.93522 20.7396 2.19435 20.9792L2.96139 21.7292C3.19979 21.9583 3.58331 21.9583 3.82172 21.7292L7.49106 18.1771L8.53796 19.1875C8.66235 19.3021 8.85929 19.2396 8.89039 19.0729L9.54341 14.8229C9.56414 14.6875 9.45012 14.5625 9.305 14.5833H9.31537Z" fill="black"/>
<path d="M18.1674 16.5417L19.1832 15.5104C19.2972 15.3854 19.235 15.1875 19.0692 15.1562L14.7779 14.5C14.6432 14.4792 14.5188 14.5937 14.5395 14.7396L15.1822 19.1042C15.2029 19.2708 15.4102 19.3438 15.5346 19.2188L16.54 18.1979L20.0954 21.8125C20.3338 22.0625 20.738 22.0625 20.9764 21.8125L21.7331 21.0521C21.9715 20.8125 21.9715 20.4167 21.7331 20.1771L18.1674 16.5521V16.5417Z" fill="black"/>
<path d="M19.0796 8.77083C19.2454 8.75 19.318 8.53125 19.1936 8.41667L18.1674 7.42708L21.8057 3.91667C22.0648 3.66667 22.0648 3.26042 21.8057 3.02083L21.0386 2.27083C20.8002 2.04167 20.4167 2.04167 20.1783 2.27083L16.5089 5.82292L15.462 4.8125C15.3377 4.69792 15.1407 4.76042 15.1096 4.92708L14.4566 9.17708C14.4359 9.3125 14.5499 9.4375 14.695 9.41667L19.0899 8.78125L19.0796 8.77083Z" fill="black"/>
<path d="M5.84296 7.45833L4.82716 8.48958C4.71314 8.61458 4.77533 8.8125 4.94118 8.84375L9.23244 9.5C9.36719 9.52083 9.49158 9.40625 9.47085 9.26042L8.82819 4.89583C8.80746 4.72917 8.60016 4.65625 8.47577 4.78125L7.47033 5.80208L3.90464 2.1875C3.66623 1.9375 3.27235 1.9375 3.02358 2.1875L2.27727 2.94792C2.0285 3.19792 2.0285 3.58333 2.27727 3.83333L5.84296 7.45833Z" fill="black"/>
</svg>
