<svg width="24" height="24" viewBox="0 0 24 24" fill="none" xmlns="http://www.w3.org/2000/svg">
<path d="M11.3374 12.7163L5.62609 13.5452C5.46174 13.5656 5.38983 13.7805 5.5131 13.8931L6.88957 15.2233L2.1849 19.7667C1.93837 20.0123 1.93837 20.4011 2.1849 20.6467L3.39702 21.8235C3.63328 22.0588 4.01335 22.0588 4.25989 21.8235L8.98511 17.2494L10.3719 18.5899C10.4951 18.7025 10.6903 18.6411 10.7211 18.4774L11.5737 12.9516C11.5942 12.8186 11.4813 12.6958 11.3374 12.7163Z" fill="black"/>
<path d="M21.8254 3.35329L20.6133 2.17652C20.377 1.94116 19.9969 1.94116 19.7504 2.17652L15.0252 6.75058L13.6384 5.41008C13.5152 5.29752 13.32 5.35892 13.2892 5.52264L12.4366 11.0483C12.416 11.1814 12.529 11.3042 12.6728 11.2837L18.3842 10.4548C18.5485 10.4344 18.6204 10.2195 18.4972 10.1069L17.1207 8.77667L21.8151 4.23331C22.0616 3.98772 22.0616 3.58864 21.8151 3.35329H21.8254Z" fill="black"/>
</svg>
