<svg width="24" height="24" viewBox="0 0 24 24" fill="none" xmlns="http://www.w3.org/2000/svg">
<path fill-rule="evenodd" clip-rule="evenodd" d="M5.92405 3.71245C5.86812 3.71245 5.82278 3.75504 5.82278 3.80758V19.1895C5.82278 19.2157 5.82941 19.2296 5.83537 19.2387C5.84297 19.2502 5.85624 19.2631 5.87553 19.273C5.89481 19.2829 5.91352 19.2864 5.92796 19.2861C5.93928 19.286 5.95529 19.2837 5.97881 19.2695L10.9596 16.2614C11.5934 15.8786 12.4066 15.8786 13.0404 16.2614L18.0212 19.2695C18.0447 19.2837 18.0607 19.286 18.072 19.2861C18.0865 19.2864 18.1052 19.2829 18.1245 19.273C18.1438 19.2631 18.157 19.2502 18.1646 19.2387C18.1706 19.2296 18.1772 19.2157 18.1772 19.1895V3.80758C18.1772 3.75504 18.1319 3.71245 18.0759 3.71245H5.92405ZM4 3.80758C4 2.80928 4.86143 2 5.92405 2H18.0759C19.1386 2 20 2.80928 20 3.80758V19.1895C20 20.6196 18.316 21.4833 17.0355 20.71L12.0548 17.7019C12.0214 17.6817 11.9786 17.6817 11.9452 17.7019L6.9645 20.71C5.68402 21.4833 4 20.6196 4 19.1895V3.80758Z" fill="black"/>
</svg>
