<svg width="24" height="24" viewBox="0 0 24 24" fill="none" xmlns="http://www.w3.org/2000/svg">
<path fill-rule="evenodd" clip-rule="evenodd" d="M20.72 6.22L19.23 3.85C18.9 3.32 18.32 3 17.69 3H6.72C6.16 3 5.63 3.26 5.29 3.7L3.39 6.12C3.14 6.44 3 6.84 3 7.24V19.18C3 20.18 3.81 21 4.82 21H19.18C20.18 21 21 20.19 21 19.18V7.19C21 6.85 20.9 6.51 20.72 6.22ZM6.65 4.76C6.65 4.76 6.7 4.72 6.73 4.72H17.7C17.7 4.72 17.76 4.74 17.78 4.76L18.76 6.32H5.42L6.65 4.76ZM10.3 8.12H13.7V12.19L12.67 11.62C12.26 11.39 11.74 11.39 11.33 11.62L10.3 12.19V8.12ZM19.18 19.28H4.82C4.77 19.28 4.72 19.24 4.72 19.18V8.12H8.7V12.68C8.7 13.62 9.8 14.19 10.67 13.71L12 12.97L13.33 13.71C14.2 14.19 15.3 13.61 15.3 12.68V8.12H19.28V19.18C19.28 19.23 19.24 19.28 19.18 19.28Z" fill="black"/>
</svg>
