<svg width="24" height="24" viewBox="0 0 24 24" fill="none" xmlns="http://www.w3.org/2000/svg">
<g clip-path="url(#clip0_365_2538)">
<path fill-rule="evenodd" clip-rule="evenodd" d="M12 2C6.48 2 2 6.48 2 12C2 17.52 6.48 22 12 22C17.52 22 22 17.52 22 12C22 6.48 17.52 2 12 2ZM3.8 12C3.8 10.06 4.48 8.28 5.6 6.88L17.12 18.4C15.72 19.53 13.94 20.2 12 20.2C7.47 20.2 3.8 16.53 3.8 12ZM18.4 17.12L6.88 5.6C8.28 4.47 10.06 3.8 12 3.8C16.53 3.8 20.2 7.47 20.2 12C20.2 13.94 19.52 15.72 18.4 17.12Z" fill="black"/>
</g>
<defs>
<clipPath id="clip0_365_2538">
<rect width="24" height="24" fill="white"/>
</clipPath>
</defs>
</svg>
