<svg width="24" height="24" viewBox="0 0 24 24" fill="none" xmlns="http://www.w3.org/2000/svg">
<path fill-rule="evenodd" clip-rule="evenodd" d="M21.1 4.2002C20.6 4.2002 20.2 4.49827 20.2 4.99507V18.9053C20.2 19.3028 20.6 19.7002 21.1 19.7002C21.6 19.7002 22 19.4021 22 18.9053V4.99507C22 4.59763 21.6 4.2002 21.1 4.2002Z" fill="black"/>
<path fill-rule="evenodd" clip-rule="evenodd" d="M13.6 6.28673C13.3 5.8893 12.7 5.8893 12.3 6.28673C11.9 6.58481 11.9 7.18096 12.3 7.5784L15.5 11.1553H2.9C2.4 11.1553 2 11.5528 2 12.0496C2 12.5463 2.4 12.9438 2.9 12.9438H15.4L12.2 16.5207C11.9 16.9181 11.9 17.5143 12.2 17.8124C12.6 18.1105 13.1 18.1105 13.5 17.8124L17.4 13.4406C18.1 12.7451 18.1 11.5528 17.4 10.8572L13.5 6.48545L13.6 6.28673Z" fill="black"/>
</svg>
