<svg width="24" height="24" viewBox="0 0 24 24" fill="none" xmlns="http://www.w3.org/2000/svg">
<path fill-rule="evenodd" clip-rule="evenodd" d="M20.4 5.79513L12.82 2.18738C12.3 1.93754 11.7 1.93754 11.18 2.18738L3.6 5.79513C2.93 6.11493 2.5 6.8045 2.5 7.55403V15.9987C2.5 16.7183 2.89 17.3779 3.52 17.7177L11.1 21.7751C11.66 22.075 12.33 22.075 12.9 21.7751L20.48 17.7177C21.11 17.3779 21.5 16.7183 21.5 15.9987V7.55403C21.5 6.8045 21.07 6.11493 20.4 5.79513ZM11.96 3.85634C11.96 3.85634 12.02 3.84635 12.05 3.85634L18.25 6.8045L16.09 7.89382L10.17 4.70581L11.96 3.85634ZM12 9.96252L5.75 6.8045L8.11 5.6852L14.09 8.91318L12 9.97252V9.96252ZM4.32 15.9987V8.14366L11.09 11.5615V19.6864L4.37 16.0887C4.37 16.0887 4.32 16.0387 4.32 15.9987ZM19.63 16.0887L12.91 19.6864V11.5615L19.68 8.14366V15.9987C19.68 15.9987 19.66 16.0687 19.63 16.0887Z" fill="black"/>
</svg>
