<svg width="24" height="24" viewBox="0 0 24 24" fill="none" xmlns="http://www.w3.org/2000/svg">
<path fill-rule="evenodd" clip-rule="evenodd" d="M2.9 4.2002C2.4 4.2002 2 4.49827 2 4.99507V18.9053C2 19.3028 2.4 19.7002 2.9 19.7002C3.4 19.7002 3.8 19.4021 3.8 18.9053V4.99507C3.8 4.59763 3.4 4.2002 2.9 4.2002Z" fill="black"/>
<path fill-rule="evenodd" clip-rule="evenodd" d="M21.1 11.056H8.6L11.8 7.47904C12.1 7.08161 12.1 6.48545 11.8 6.18737C11.4 5.8893 10.9 5.8893 10.5 6.18737L6.6 10.5592C5.9 11.2547 5.9 12.447 6.6 13.1425L10.5 17.5143C10.8 17.9117 11.4 17.9117 11.8 17.5143C12.2 17.2162 12.2 16.6201 11.8 16.2226L8.6 12.6457H21.1C21.6 12.6457 22 12.2483 22 11.7515C22 11.2547 21.6 10.8572 21.1 10.8572V11.056Z" fill="black"/>
</svg>
