<svg width="24" height="24" viewBox="0 0 24 24" fill="none" xmlns="http://www.w3.org/2000/svg">
<path fill-rule="evenodd" clip-rule="evenodd" d="M11.5001 4.97438L8.50717 8.53468H14.4931L11.5001 4.97438ZM12.2561 3.35577C11.8573 2.88141 11.143 2.88141 10.7442 3.35577L6.4379 8.47838C5.87703 9.14557 6.33708 10.183 7.19383 10.183H15.8064C16.6632 10.183 17.1232 9.14557 16.5623 8.47838L12.2561 3.35577Z" fill="black"/>
<path fill-rule="evenodd" clip-rule="evenodd" d="M17 19.352C18.3255 19.352 19.4 18.2451 19.4 16.8796C19.4 15.5141 18.3255 14.4071 17 14.4071C15.6745 14.4071 14.6 15.5141 14.6 16.8796C14.6 18.2451 15.6745 19.352 17 19.352ZM17 21.0003C19.2091 21.0003 21 19.1554 21 16.8796C21 14.6037 19.2091 12.7588 17 12.7588C14.7909 12.7588 13 14.6037 13 16.8796C13 19.1554 14.7909 21.0003 17 21.0003Z" fill="black"/>
<path fill-rule="evenodd" clip-rule="evenodd" d="M4.6 14.9222V18.837H8.4V14.9222H4.6ZM4 13.2739C3.44772 13.2739 3 13.7352 3 14.3041V19.4551C3 20.024 3.44772 20.4853 4 20.4853H9C9.55228 20.4853 10 20.024 10 19.4551V14.3041C10 13.7352 9.55228 13.2739 9 13.2739H4Z" fill="black"/>
</svg>
