<svg width="24" height="24" viewBox="0 0 24 24" fill="none" xmlns="http://www.w3.org/2000/svg">
<path d="M10.5 12.6848H7.5C6.94772 12.6848 6.5 13.1228 6.5 13.663V16.5978C6.5 17.1381 6.94772 17.5761 7.5 17.5761H10.5C11.0523 17.5761 11.5 17.1381 11.5 16.5978V13.663C11.5 13.1228 11.0523 12.6848 10.5 12.6848Z" fill="black"/>
<path fill-rule="evenodd" clip-rule="evenodd" d="M19 5.34783H17.9V3.88043C17.9 3.3913 17.5 3 17 3C16.5 3 16.1 3.3913 16.1 3.88043V5.34783H7.9V3.88043C7.9 3.3913 7.5 3 7 3C6.5 3 6.1 3.3913 6.1 3.88043V5.34783H5C3.9 5.34783 3 6.22826 3 7.30435V19.0435C3 20.1196 3.9 21 5 21H19C20.1 21 21 20.1196 21 19.0435V7.30435C21 6.22826 20.1 5.34783 19 5.34783ZM19.2 19.0435C19.2 19.1511 19.11 19.2391 19 19.2391H5C4.89 19.2391 4.8 19.1511 4.8 19.0435V9.26087H19.2V19.0435Z" fill="black"/>
</svg>
