<svg width="24" height="24" viewBox="0 0 24 24" fill="none" xmlns="http://www.w3.org/2000/svg">
<path fill-rule="evenodd" clip-rule="evenodd" d="M19.07 5H4.93C3.31 5 2 6.23088 2 7.74196V16.258C2 17.7791 3.31 19 4.93 19H19.07C20.69 19 22 17.7691 22 16.258V7.74196C22 6.22087 20.69 5 19.07 5ZM4.93 6.70122H19.07C19.68 6.70122 20.18 7.17155 20.18 7.74196V9.00286H3.82V7.74196C3.82 7.17155 4.32 6.70122 4.93 6.70122ZM19.07 17.3088H4.93C4.32 17.3088 3.82 16.8385 3.82 16.268V11.5046H20.18V16.268C20.18 16.8385 19.68 17.3088 19.07 17.3088Z" fill="black"/>
<path fill-rule="evenodd" clip-rule="evenodd" d="M8 13.5061H6C5.45 13.5061 5 13.9564 5 14.5068V15.5075C5 16.0579 5.45 16.5082 6 16.5082H8C8.55 16.5082 9 16.0579 9 15.5075V14.5068C9 13.9564 8.55 13.5061 8 13.5061ZM8 15.5075H6V14.5068H8V15.5075Z" fill="black"/>
</svg>
