<svg width="24" height="24" viewBox="0 0 24 24" fill="none" xmlns="http://www.w3.org/2000/svg">
<g clip-path="url(#clip0_328_1761)">
<path fill-rule="evenodd" clip-rule="evenodd" d="M12 2C6.48 2 2 6.48 2 12C2 17.52 6.48 22 12 22C17.52 22 22 17.52 22 12C22 6.48 17.52 2 12 2ZM12 20.2C7.47 20.2 3.8 16.53 3.8 12C3.8 7.47 7.47 3.8 12 3.8C16.53 3.8 20.2 7.47 20.2 12C20.2 16.53 16.53 20.2 12 20.2Z" fill="black"/>
<path fill-rule="evenodd" clip-rule="evenodd" d="M16.38 11.1H7.62C7.14 11.1 6.74 11.5 6.74 12C6.74 12.5 7.13 12.9 7.62 12.9H16.37C16.85 12.9 17.25 12.5 17.25 12C17.25 11.5 16.86 11.1 16.37 11.1H16.38Z" fill="black"/>
</g>
<defs>
<clipPath id="clip0_328_1761">
<rect width="24" height="24" fill="white"/>
</clipPath>
</defs>
</svg>
