<svg width="24" height="24" viewBox="0 0 24 24" fill="none" xmlns="http://www.w3.org/2000/svg">
<path fill-rule="evenodd" clip-rule="evenodd" d="M12 2C6.48 2 2 6.48 2 12C2 17.52 6.48 22 12 22C17.52 22 22 17.52 22 12C22 6.48 17.52 2 12 2ZM16 12.9H12.9V16C12.9 16.5 12.5 16.9 12 16.9C11.5 16.9 11.1 16.5 11.1 16V12.9H8C7.5 12.9 7.1 12.5 7.1 12C7.1 11.5 7.5 11.1 8 11.1H11.1V8C11.1 7.5 11.5 7.1 12 7.1C12.5 7.1 12.9 7.5 12.9 8V11.1H16C16.5 11.1 16.9 11.5 16.9 12C16.9 12.5 16.5 12.9 16 12.9Z" fill="black"/>
</svg>
