<svg width="24" height="24" viewBox="0 0 24 24" fill="none" xmlns="http://www.w3.org/2000/svg">
<g clip-path="url(#clip0_328_1710)">
<path fill-rule="evenodd" clip-rule="evenodd" d="M12 20.2C16.5287 20.2 20.2 16.5287 20.2 12C20.2 7.47126 16.5287 3.8 12 3.8C7.47126 3.8 3.8 7.47126 3.8 12C3.8 16.5287 7.47126 20.2 12 20.2ZM12 22C17.5228 22 22 17.5228 22 12C22 6.47715 17.5228 2 12 2C6.47715 2 2 6.47715 2 12C2 17.5228 6.47715 22 12 22Z" fill="black"/>
<path fill-rule="evenodd" clip-rule="evenodd" d="M17.178 8.15325C17.5336 8.4071 17.6057 8.88725 17.339 9.22571L12.43 15.4552C11.8892 16.1415 10.8246 16.1867 10.2217 15.5492L6.70662 11.832C6.40925 11.5175 6.43604 11.0332 6.76645 10.7502C7.09686 10.4671 7.60577 10.4926 7.90314 10.8071L11.2727 14.3704L16.0512 8.30646C16.3179 7.968 16.8224 7.89941 17.178 8.15325Z" fill="black"/>
</g>
<defs>
<clipPath id="clip0_328_1710">
<rect width="24" height="24" fill="white"/>
</clipPath>
</defs>
</svg>
