<svg width="24" height="24" viewBox="0 0 24 24" fill="none" xmlns="http://www.w3.org/2000/svg">
<path fill-rule="evenodd" clip-rule="evenodd" d="M18.94 4.83858V3.90905C18.94 2.85957 18.1 2 17.07 2H6.93C5.9 2 5.06 2.84958 5.06 3.90905V4.83858C4.17 4.98851 3.5 5.76812 3.5 6.71764V7.7971C3.5 8.76662 4.21 9.55622 5.13 9.67616L6.03 20.2409C6.11 21.2304 6.92 22 7.89 22H16.11C17.08 22 17.89 21.2404 17.97 20.2409L18.87 9.67616C19.79 9.55622 20.5 8.76662 20.5 7.7971V6.71764C20.5 5.76812 19.82 4.98851 18.94 4.83858ZM7.5 16.6727L7.03 11.1554H16.96L16.5 16.5927L7.49 16.6727H7.5ZM6.83 3.90905C6.83 3.84908 6.87 3.8091 6.93 3.8091H17.07C17.12 3.8091 17.17 3.84908 17.17 3.90905V4.8086H6.83V3.90905Z" fill="black"/>
</svg>
