<svg width="24" height="24" viewBox="0 0 24 24" fill="none" xmlns="http://www.w3.org/2000/svg">
<path fill-rule="evenodd" clip-rule="evenodd" d="M18.94 4.84V3.91C18.94 2.86 18.1 2 17.07 2H6.93C5.9 2 5.06 2.85 5.06 3.91V4.84C4.17 4.99 3.5 5.77 3.5 6.72V7.79C3.5 8.76 4.21 9.55 5.13 9.67L6.03 20.24C6.11 21.23 6.92 22 7.89 22H16.11C17.08 22 17.89 21.24 17.97 20.24L18.87 9.67C19.79 9.55 20.5 8.76 20.5 7.79V6.72C20.5 5.77 19.82 4.99 18.94 4.84ZM18.73 7.79C18.73 7.85 18.69 7.89 18.63 7.89H5.37C5.32 7.89 5.27 7.85 5.27 7.79V6.72C5.27 6.66 5.31 6.62 5.37 6.62H18.64C18.69 6.62 18.74 6.66 18.74 6.72V7.79H18.73ZM6.93 3.81H17.07C17.12 3.81 17.17 3.85 17.17 3.91V4.81H6.83V3.91C6.83 3.85 6.87 3.81 6.93 3.81ZM16.11 20.19H7.89C7.84 20.19 7.8 20.15 7.79 20.1L6.91 9.7H17.09L16.21 20.1C16.21 20.15 16.16 20.19 16.11 20.19Z" fill="black"/>
</svg>
