<svg width="24" height="24" viewBox="0 0 24 24" fill="none" xmlns="http://www.w3.org/2000/svg">
<path fill-rule="evenodd" clip-rule="evenodd" d="M18 3.8H6C4.78497 3.8 3.8 4.78497 3.8 6V18C3.8 19.215 4.78497 20.2 6 20.2H18C19.215 20.2 20.2 19.215 20.2 18V6C20.2 4.78497 19.215 3.8 18 3.8ZM6 2C3.79086 2 2 3.79086 2 6V18C2 20.2091 3.79086 22 6 22H18C20.2091 22 22 20.2091 22 18V6C22 3.79086 20.2091 2 18 2H6Z" fill="black"/>
<path fill-rule="evenodd" clip-rule="evenodd" d="M17.178 8.15325C17.5336 8.4071 17.6057 8.88725 17.339 9.22571L12.43 15.4552C11.8892 16.1415 10.8246 16.1867 10.2217 15.5492L6.70662 11.832C6.40925 11.5175 6.43604 11.0332 6.76645 10.7502C7.09686 10.4671 7.60577 10.4926 7.90314 10.8071L11.2727 14.3704L16.0512 8.30646C16.3179 7.968 16.8224 7.89941 17.178 8.15325Z" fill="black"/>
</svg>
