<svg width="24" height="24" viewBox="0 0 24 24" fill="none" xmlns="http://www.w3.org/2000/svg">
<g clip-path="url(#clip0_328_1814)">
<path fill-rule="evenodd" clip-rule="evenodd" d="M12 2C6.5 2 2 6.5 2 12C2 17.5 6.5 22 12 22C17.5 22 22 17.5 22 12C22 6.5 17.5 2 12 2ZM15.6 13L10.5 16.8C10.1 17.1 9.6 17 9.3 16.6C9 16.2 9.1 15.7 9.5 15.4L14.2 11.9L9.5 8.4C9.1 8.1 9.1 7.6 9.3 7.2C9.6 6.8 10.1 6.8 10.5 7L15.6 10.8C16.3 11.3 16.3 12.4 15.6 12.9V13Z" fill="black"/>
</g>
<defs>
<clipPath id="clip0_328_1814">
<rect width="24" height="24" fill="white"/>
</clipPath>
</defs>
</svg>
