<svg width="24" height="24" viewBox="0 0 24 24" fill="none" xmlns="http://www.w3.org/2000/svg">
<path d="M21.9 20H19.7C19.4083 20 19.1285 19.8851 18.9222 19.6805C18.7159 19.4759 18.6 19.1984 18.6 18.9091V5.09091C18.6 4.80158 18.7159 4.5241 18.9222 4.31952C19.1285 4.11493 19.4083 4 19.7 4H21.9C22.1917 4 22.4715 4.11493 22.6778 4.31952C22.8841 4.5241 23 4.80158 23 5.09091V18.9091C23 19.1984 22.8841 19.4759 22.6778 19.6805C22.4715 19.8851 22.1917 20 21.9 20ZM16.0333 20H13.8333C13.5416 20 13.2618 19.8851 13.0555 19.6805C12.8492 19.4759 12.7333 19.1984 12.7333 18.9091V8.72727C12.7333 8.43795 12.8492 8.16047 13.0555 7.95588C13.2618 7.7513 13.5416 7.63636 13.8333 7.63636H16.0333C16.3251 7.63636 16.6049 7.7513 16.8112 7.95588C17.0174 8.16047 17.1333 8.43795 17.1333 8.72727V18.9091C17.1333 19.1984 17.0174 19.4759 16.8112 19.6805C16.6049 19.8851 16.3251 20 16.0333 20ZM10.1667 20H7.96667C7.67493 20 7.39514 19.8851 7.18885 19.6805C6.98256 19.4759 6.86667 19.1984 6.86667 18.9091V11.6364C6.86667 11.347 6.98256 11.0696 7.18885 10.865C7.39514 10.6604 7.67493 10.5455 7.96667 10.5455H10.1667C10.4584 10.5455 10.7382 10.6604 10.9445 10.865C11.1508 11.0696 11.2667 11.347 11.2667 11.6364V18.9091C11.2667 19.1984 11.1508 19.4759 10.9445 19.6805C10.7382 19.8851 10.4584 20 10.1667 20ZM4.3 20H2.1C1.80826 20 1.52847 19.8851 1.32218 19.6805C1.11589 19.4759 1 19.1984 1 18.9091V14.5455C1 14.2561 1.11589 13.9787 1.32218 13.7741C1.52847 13.5695 1.80826 13.4545 2.1 13.4545H4.3C4.59174 13.4545 4.87153 13.5695 5.07782 13.7741C5.28411 13.9787 5.4 14.2561 5.4 14.5455V18.9091C5.4 19.1984 5.28411 19.4759 5.07782 19.6805C4.87153 19.8851 4.59174 20 4.3 20Z" fill="black"/>
</svg>
