<svg width="24" height="24" viewBox="0 0 24 24" fill="none" xmlns="http://www.w3.org/2000/svg">
<g clip-path="url(#clip0_328_1829)">
<path d="M12 2C6.48 2 2 6.48 2 12C2 17.52 6.48 22 12 22C17.52 22 22 17.52 22 12C22 6.48 17.52 2 12 2ZM16.64 15.36C16.99 15.71 16.99 16.28 16.64 16.63C16.29 16.98 15.72 16.98 15.37 16.63L12.01 13.27L8.65 16.63C8.3 16.98 7.73 16.98 7.38 16.63C7.03 16.28 7.03 15.71 7.38 15.36L10.74 12L7.38 8.64C7.03 8.29 7.03 7.72 7.38 7.37C7.73 7.02 8.3 7.02 8.65 7.37L12.01 10.73L15.37 7.37C15.72 7.02 16.29 7.02 16.64 7.37C16.99 7.72 16.99 8.29 16.64 8.64L13.28 12L16.64 15.36Z" fill="black"/>
</g>
<defs>
<clipPath id="clip0_328_1829">
<rect width="24" height="24" fill="white"/>
</clipPath>
</defs>
</svg>
