<svg width="24" height="24" viewBox="0 0 24 24" fill="none" xmlns="http://www.w3.org/2000/svg">
<g clip-path="url(#clip0_328_1824)">
<path d="M12 2C6.5 2 2 6.5 2 12C2 17.5 6.5 22 12 22C17.5 22 22 17.5 22 12C22 6.5 17.5 2 12 2ZM16.8 10.4L13 15.5C12.5 16.2 11.4 16.2 10.9 15.5L7.1 10.4C6.8 10 6.9 9.5 7.3 9.2C7.7 8.9 8.2 9 8.5 9.4L12 14.1L15.5 9.4C15.8 9 16.3 9 16.7 9.2C17.1 9.5 17.1 10 16.9 10.4H16.8Z" fill="black"/>
</g>
<defs>
<clipPath id="clip0_328_1824">
<rect width="24" height="24" fill="white"/>
</clipPath>
</defs>
</svg>
