<svg width="24" height="24" viewBox="0 0 24 24" fill="none" xmlns="http://www.w3.org/2000/svg">
<g clip-path="url(#clip0_328_1795)">
<path fill-rule="evenodd" clip-rule="evenodd" d="M12 20.2C16.5287 20.2 20.2 16.5287 20.2 12C20.2 7.47126 16.5287 3.8 12 3.8C7.47126 3.8 3.8 7.47126 3.8 12C3.8 16.5287 7.47126 20.2 12 20.2ZM12 22C17.5228 22 22 17.5228 22 12C22 6.47715 17.5228 2 12 2C6.47715 2 2 6.47715 2 12C2 17.5228 6.47715 22 12 22Z" fill="black"/>
<path fill-rule="evenodd" clip-rule="evenodd" d="M6.86005 15.2267C7.2577 15.5249 7.82182 15.4443 8.12005 15.0467L11.9001 10.0067L15.6801 15.0467C15.9783 15.4443 16.5424 15.5249 16.9401 15.2267C17.3377 14.9284 17.4183 14.3643 17.1201 13.9667L13.0201 8.5C12.4601 7.75333 11.3401 7.75333 10.7801 8.5L6.68005 13.9667C6.38182 14.3643 6.46241 14.9284 6.86005 15.2267Z" fill="black"/>
</g>
<defs>
<clipPath id="clip0_328_1795">
<rect width="24" height="24" fill="white"/>
</clipPath>
</defs>
</svg>
