<svg width="24" height="24" viewBox="0 0 24 24" fill="none" xmlns="http://www.w3.org/2000/svg">
<path fill-rule="evenodd" clip-rule="evenodd" d="M21.18 12.3854H19.29L19.7 11.4463H21.18C21.63 11.4463 22 11.0667 22 10.6071C22 10.1475 21.63 9.7679 21.18 9.7679H20.44L21.51 7.3302C21.72 6.86064 21.51 6.30116 21.05 6.08137C20.59 5.87157 20.04 6.08137 19.84 6.55093L18.43 9.75791H14.45L13.56 7.15037C13.22 6.15131 11.84 6.11134 11.46 7.10041L10.42 9.75791H6.44L5.2 6.59089C5.01 6.11134 4.48 5.87157 4.01 6.07138C3.54 6.2612 3.31 6.81068 3.5 7.29023L4.47 9.7679H2.82C2.37 9.7679 2 10.1475 2 10.6071C2 11.0667 2.37 11.4463 2.82 11.4463H5.12L5.49 12.3854H2.82C2.37 12.3854 2 12.7651 2 13.2247C2 13.6842 2.37 14.0639 2.82 14.0639H6.14L7.39 17.2708C7.77 18.2399 9.1 18.2399 9.47 17.2708L10.72 14.0639H13.96L15.04 17.2309C15.37 18.21 16.71 18.2699 17.12 17.3208L18.55 14.0639H21.18C21.63 14.0639 22 13.6842 22 13.2247C22 12.7651 21.63 12.3854 21.18 12.3854ZM17.69 11.4363L17.28 12.3754H15.34L15.02 11.4363H17.69ZM12.45 9.62803L12.5 9.7679H12.4L12.46 9.62803H12.45ZM7.09 11.4363H9.76L9.39 12.3754H7.45L7.08 11.4363H7.09ZM8.43 14.8731L8.11 14.0639H8.74L8.42 14.8731H8.43ZM11.38 12.3854L11.75 11.4463H13.08L13.4 12.3854H11.38ZM16.19 14.8631L15.91 14.0539H16.54L16.18 14.8631H16.19Z" fill="black"/>
</svg>
