<svg width="24" height="24" viewBox="0 0 24 24" fill="none" xmlns="http://www.w3.org/2000/svg">
<g clip-path="url(#clip0_246_1239)">
<path d="M12 2C6.48 2 2 6.48 2 12C2 17.52 6.48 22 12 22C17.52 22 22 17.52 22 12C22 6.48 17.52 2 12 2ZM12.9 15.91C12.9 16.38 12.5 16.75 12 16.75C11.5 16.75 11.1 16.37 11.1 15.91V10.6C11.1 10.13 11.5 9.76 12 9.76C12.5 9.76 12.9 10.14 12.9 10.6V15.91ZM12.7 8.96C12.51 9.15 12.27 9.25 12 9.25C11.73 9.25 11.49 9.15 11.3 8.96C11.1 8.76 11 8.53 11 8.25C11 7.97 11.1 7.74 11.3 7.54C11.5 7.34 11.73 7.24 12 7.24C12.27 7.24 12.51 7.34 12.7 7.54C12.9 7.73 13 7.97 13 8.25C13 8.53 12.9 8.76 12.7 8.96Z" fill="black"/>
</g>
<defs>
<clipPath id="clip0_246_1239">
<rect width="24" height="24" fill="white"/>
</clipPath>
</defs>
</svg>
