<svg width="24" height="24" viewBox="0 0 24 24" fill="none" xmlns="http://www.w3.org/2000/svg">
<g clip-path="url(#clip0_328_1801)">
<path fill-rule="evenodd" clip-rule="evenodd" d="M12 20.2C16.5287 20.2 20.2 16.5287 20.2 12C20.2 7.47126 16.5287 3.8 12 3.8C7.47126 3.8 3.8 7.47126 3.8 12C3.8 16.5287 7.47126 20.2 12 20.2ZM12 22C17.5228 22 22 17.5228 22 12C22 6.47715 17.5228 2 12 2C6.47715 2 2 6.47715 2 12C2 17.5228 6.47715 22 12 22Z" fill="black"/>
<path fill-rule="evenodd" clip-rule="evenodd" d="M6.86005 9.44673C7.2577 9.1485 7.82182 9.22909 8.12005 9.62673L11.9001 14.6667L15.6801 9.62673C15.9783 9.22909 16.5424 9.1485 16.9401 9.44673C17.3377 9.74497 17.4183 10.3091 17.1201 10.7067L13.0201 16.1734C12.4601 16.9201 11.3401 16.9201 10.7801 16.1734L6.68005 10.7067C6.38182 10.3091 6.46241 9.74497 6.86005 9.44673Z" fill="black"/>
</g>
<defs>
<clipPath id="clip0_328_1801">
<rect width="24" height="24" fill="white"/>
</clipPath>
</defs>
</svg>
