<svg width="24" height="24" viewBox="0 0 24 24" fill="none" xmlns="http://www.w3.org/2000/svg">
<g clip-path="url(#clip0_328_1819)">
<path fill-rule="evenodd" clip-rule="evenodd" d="M12 2C6.5 2 2 6.5 2 12C2 17.5 6.5 22 12 22C17.5 22 22 17.5 22 12C22 6.5 17.5 2 12 2ZM16.7 14.8C16.3 15.1 15.8 15 15.5 14.6L12 9.9L8.5 14.6C8.2 15 7.7 15 7.3 14.8C6.9 14.5 6.9 14 7.1 13.6L10.9 8.5C11.4 7.8 12.5 7.8 13 8.5L16.8 13.6C17.1 14 17 14.5 16.6 14.8H16.7Z" fill="black"/>
</g>
<defs>
<clipPath id="clip0_328_1819">
<rect width="24" height="24" fill="white"/>
</clipPath>
</defs>
</svg>
