<svg width="24" height="24" viewBox="0 0 24 24" fill="none" xmlns="http://www.w3.org/2000/svg">
<g clip-path="url(#clip0_328_1789)">
<path fill-rule="evenodd" clip-rule="evenodd" d="M12 20.2C16.5287 20.2 20.2 16.5287 20.2 12C20.2 7.47126 16.5287 3.8 12 3.8C7.47126 3.8 3.8 7.47126 3.8 12C3.8 16.5287 7.47126 20.2 12 20.2ZM12 22C17.5228 22 22 17.5228 22 12C22 6.47715 17.5228 2 12 2C6.47715 2 2 6.47715 2 12C2 17.5228 6.47715 22 12 22Z" fill="black"/>
<path fill-rule="evenodd" clip-rule="evenodd" d="M9.11324 6.96015C8.815 7.3578 8.89559 7.92192 9.29324 8.22015L14.3332 12.0002L9.29324 15.7802C8.89559 16.0784 8.815 16.6425 9.11324 17.0402C9.41147 17.4378 9.97559 17.5184 10.3732 17.2202L15.8399 13.1202C16.5866 12.5602 16.5866 11.4402 15.8399 10.8802L10.3732 6.78015C9.97559 6.48192 9.41147 6.56251 9.11324 6.96015Z" fill="black"/>
</g>
<defs>
<clipPath id="clip0_328_1789">
<rect width="24" height="24" fill="white"/>
</clipPath>
</defs>
</svg>
