<svg width="24" height="24" viewBox="0 0 24 24" fill="none" xmlns="http://www.w3.org/2000/svg">
<path fill-rule="evenodd" clip-rule="evenodd" d="M17.9874 5.81132H8.93082C8.81967 5.81132 8.72956 5.90143 8.72956 6.01258V15.0692C8.72956 15.1803 8.81967 15.2704 8.93082 15.2704H17.9874C18.0986 15.2704 18.1887 15.1803 18.1887 15.0692V6.01258C18.1887 5.90143 18.0986 5.81132 17.9874 5.81132ZM8.93082 4C7.8193 4 6.91824 4.90106 6.91824 6.01258V15.0692C6.91824 16.1807 7.8193 17.0818 8.93082 17.0818H17.9874C19.0989 17.0818 20 16.1807 20 15.0692V6.01258C20 4.90106 19.0989 4 17.9874 4H8.93082Z" fill="black"/>
<path fill-rule="evenodd" clip-rule="evenodd" d="M4.90566 6.11321C5.40584 6.11321 5.81132 6.51869 5.81132 7.01887V17.5849C5.81132 17.9184 6.08164 18.1887 6.41509 18.1887H16.9811C17.4813 18.1887 17.8868 18.5942 17.8868 19.0943C17.8868 19.5945 17.4813 20 16.9811 20H6.41509C5.08127 20 4 18.9187 4 17.5849V7.01887C4 6.51869 4.40548 6.11321 4.90566 6.11321Z" fill="black"/>
</svg>
