<svg width="24" height="24" viewBox="0 0 24 24" fill="none" xmlns="http://www.w3.org/2000/svg">
<path fill-rule="evenodd" clip-rule="evenodd" d="M19 5.3487H17.9V3.87951C17.9 3.38978 17.5 3 17 3C16.5 3 16.1 3.38978 16.1 3.87951V5.3487H7.9V3.87951C7.9 3.38978 7.5 3 7 3C6.5 3 6.1 3.38978 6.1 3.87951V5.3487H5C3.9 5.3487 3 6.22821 3 7.30761V19.0411C3 20.1205 3.9 21 5 21H19C20.1 21 21 20.1205 21 19.0411V7.29761C21 6.21821 20.1 5.3387 19 5.3387V5.3487ZM19.2 19.0311C19.2 19.141 19.11 19.231 19 19.231H5C4.89 19.231 4.8 19.141 4.8 19.0311V12.5747H19.2V19.0311ZM19.2 10.8257H4.8V7.30761C4.8 7.19767 4.89 7.10772 5 7.10772H6.16C6.28 7.44753 6.61 7.69739 7 7.69739C7.39 7.69739 7.71 7.44753 7.84 7.10772H16.16C16.28 7.44753 16.61 7.69739 17 7.69739C17.39 7.69739 17.71 7.44753 17.84 7.10772H19C19.11 7.10772 19.2 7.19767 19.2 7.30761V10.8257Z" fill="black"/>
</svg>
