<svg width="24" height="24" viewBox="0 0 24 24" fill="none" xmlns="http://www.w3.org/2000/svg">
<g clip-path="url(#clip0_246_1152)">
<path d="M12 2C6.48 2 2 6.48 2 12C2 17.52 6.48 22 12 22C17.52 22 22 17.52 22 12C22 6.48 17.52 2 12 2ZM13.5 11.75C13.5 12.99 12.49 14 11.25 14H7.25C6.84 14 6.5 13.66 6.5 13.25C6.5 12.84 6.84 12.5 7.25 12.5H11.25C11.66 12.5 12 12.16 12 11.75V6.75C12 6.34 12.34 6 12.75 6C13.16 6 13.5 6.34 13.5 6.75V11.75Z" fill="black"/>
</g>
<defs>
<clipPath id="clip0_246_1152">
<rect width="24" height="24" fill="white"/>
</clipPath>
</defs>
</svg>
