<svg width="24" height="24" viewBox="0 0 24 24" fill="none" xmlns="http://www.w3.org/2000/svg">
<path d="M10.7441 3.35577C11.1428 2.88141 11.8572 2.88141 12.2559 3.35577L16.5622 8.47838C17.1231 9.14557 16.663 10.183 15.8063 10.183H7.19371C6.33696 10.183 5.87691 9.14557 6.43778 8.47838L10.7441 3.35577Z" fill="black"/>
<path d="M21 16.8794C21 19.1553 19.2091 21.0002 17 21.0002C14.7909 21.0002 13 19.1553 13 16.8794C13 14.6036 14.7909 12.7587 17 12.7587C19.2091 12.7587 21 14.6036 21 16.8794Z" fill="black"/>
<path d="M3 14.2737C3 13.7215 3.44772 13.2737 4 13.2737H9C9.55228 13.2737 10 13.7215 10 14.2737V19.4851C10 20.0374 9.55228 20.4851 9 20.4851H4C3.44772 20.4851 3 20.0374 3 19.4851V14.2737Z" fill="black"/>
</svg>
