<svg width="24" height="24" viewBox="0 0 24 24" fill="none" xmlns="http://www.w3.org/2000/svg">
<g clip-path="url(#clip0_328_1863)">
<path d="M12 2C6.48 2 2 6.48 2 12C2 17.52 6.48 22 12 22C17.52 22 22 17.52 22 12C22 6.48 17.52 2 12 2ZM12 20.2C7.47 20.2 3.8 16.53 3.8 12C3.8 7.47 7.47 3.8 12 3.8C16.53 3.8 20.2 7.47 20.2 12C20.2 16.53 16.53 20.2 12 20.2Z" fill="black"/>
<path d="M12 14.01C12.41 14.01 12.74 13.69 12.74 13.28L12.85 7.91C12.85 7.43 12.47 7.03 11.99 7.03C11.51 7.03 11.12 7.43 11.13 7.91L11.25 13.28C11.25 13.68 11.59 14.01 11.99 14.01H12Z" fill="black"/>
<path d="M12.01 14.97C11.46 14.97 11 15.42 11 15.96C11 16.5 11.45 16.97 12.01 16.97C12.57 16.97 13 16.52 13 15.96C13 15.4 12.54 14.97 12.01 14.97Z" fill="black"/>
</g>
<defs>
<clipPath id="clip0_328_1863">
<rect width="24" height="24" fill="white"/>
</clipPath>
</defs>
</svg>
