<svg width="24" height="24" viewBox="0 0 24 24" fill="none" xmlns="http://www.w3.org/2000/svg">
<g clip-path="url(#clip0_328_1780)">
<path fill-rule="evenodd" clip-rule="evenodd" d="M12 20.2C16.5287 20.2 20.2 16.5287 20.2 12C20.2 7.47126 16.5287 3.8 12 3.8C7.47126 3.8 3.8 7.47126 3.8 12C3.8 16.5287 7.47126 20.2 12 20.2ZM12 22C17.5228 22 22 17.5228 22 12C22 6.47715 17.5228 2 12 2C6.47715 2 2 6.47715 2 12C2 17.5228 6.47715 22 12 22Z" fill="black"/>
<path fill-rule="evenodd" clip-rule="evenodd" d="M15.22 6.96C15.5182 7.35765 15.4376 7.92177 15.04 8.22L10 12L15.04 15.78C15.4376 16.0782 15.5182 16.6424 15.22 17.04C14.9218 17.4376 14.3576 17.5182 13.96 17.22L8.49333 13.12C7.74667 12.56 7.74667 11.44 8.49333 10.88L13.96 6.78C14.3576 6.48177 14.9218 6.56236 15.22 6.96Z" fill="black"/>
</g>
<defs>
<clipPath id="clip0_328_1780">
<rect width="24" height="24" fill="white"/>
</clipPath>
</defs>
</svg>
