<svg width="24" height="24" viewBox="0 0 24 24" fill="none" xmlns="http://www.w3.org/2000/svg">
<g clip-path="url(#clip0_328_1848)">
<path d="M12 2C6.48 2 2 6.48 2 12C2 17.52 6.48 22 12 22C17.52 22 22 17.52 22 12C22 6.48 17.52 2 12 2ZM12 20.2C7.47 20.2 3.8 16.53 3.8 12C3.8 7.47 7.47 3.8 12 3.8C16.53 3.8 20.2 7.47 20.2 12C20.2 16.53 16.53 20.2 12 20.2Z" fill="black"/>
<path d="M12 9.75C11.5 9.75 11.1 10.13 11.1 10.59V15.9C11.1 16.37 11.5 16.74 12 16.74C12.5 16.74 12.9 16.36 12.9 15.9V10.59C12.9 10.12 12.5 9.75 12 9.75Z" fill="black"/>
<path d="M12 7.25C11.73 7.25 11.49 7.35 11.3 7.55C11.1 7.74 11 7.98 11 8.26C11 8.54 11.1 8.77 11.3 8.97C11.5 9.16 11.73 9.26 12 9.26C12.27 9.26 12.51 9.16 12.7 8.97C12.9 8.77 13 8.54 13 8.26C13 7.98 12.9 7.75 12.7 7.55C12.51 7.35 12.27 7.25 12 7.25Z" fill="black"/>
</g>
<defs>
<clipPath id="clip0_328_1848">
<rect width="24" height="24" fill="white"/>
</clipPath>
</defs>
</svg>
