<svg width="24" height="24" viewBox="0 0 24 24" fill="none" xmlns="http://www.w3.org/2000/svg">
<g clip-path="url(#clip0_328_1807)">
<path fill-rule="evenodd" clip-rule="evenodd" d="M12 2C6.5 2 2 6.5 2 12C2 17.5 6.5 22 12 22C17.5 22 22 17.5 22 12C22 6.5 17.5 2 12 2ZM14.7 15.5C15.1 15.8 15.1 16.3 14.9 16.7C14.6 17.1 14.1 17.1 13.7 16.9L8.6 13.1C7.9 12.6 7.9 11.5 8.6 11L13.7 7.2C14.1 6.9 14.6 7 14.9 7.4C15.2 7.8 15.1 8.3 14.7 8.6L10 12.1L14.7 15.6V15.5Z" fill="black"/>
</g>
<defs>
<clipPath id="clip0_328_1807">
<rect width="24" height="24" fill="white"/>
</clipPath>
</defs>
</svg>
