<svg width="24" height="24" viewBox="0 0 24 24" fill="none" xmlns="http://www.w3.org/2000/svg">
<g clip-path="url(#clip0_328_1717)">
<path d="M12 2C6.48 2 2 6.48 2 12C2 17.52 6.48 22 12 22C17.52 22 22 17.52 22 12C22 6.48 17.52 2 12 2ZM17.34 9.23L12.43 15.46C11.89 16.15 10.82 16.19 10.22 15.55L6.7 11.83C6.4 11.52 6.43 11.03 6.76 10.75C7.09 10.47 7.6 10.49 7.9 10.81L11.27 14.37L16.05 8.31C16.32 7.97 16.82 7.9 17.18 8.16C17.54 8.41 17.61 8.89 17.34 9.23Z" fill="black"/>
</g>
<defs>
<clipPath id="clip0_328_1717">
<rect width="24" height="24" fill="white"/>
</clipPath>
</defs>
</svg>
