<svg width="24" height="24" viewBox="0 0 24 24" fill="none" xmlns="http://www.w3.org/2000/svg">
<g clip-path="url(#clip0_246_1225)">
<path d="M12 2C6.48 2 2 6.48 2 12C2 17.52 6.48 22 12 22C17.52 22 22 17.52 22 12C22 6.48 17.52 2 12 2ZM12.59 16.48C12.5 16.63 12.38 16.75 12.23 16.85C12.08 16.94 11.92 16.98 11.73 16.98C11.46 16.98 11.22 16.88 11.03 16.69C10.83 16.5 10.73 16.26 10.73 15.98C10.73 15.7 10.83 15.47 11.03 15.28C11.23 15.09 11.46 14.99 11.73 14.99C12 14.99 12.23 15.09 12.43 15.28C12.63 15.47 12.73 15.71 12.73 15.98C12.73 16.17 12.68 16.33 12.59 16.49V16.48ZM14.78 10.62C14.67 10.91 14.51 11.16 14.3 11.38C14.09 11.6 13.85 11.8 13.56 11.98C13.31 12.14 13.1 12.3 12.94 12.48C12.78 12.65 12.66 12.85 12.59 13.09C12.52 13.32 12.48 13.6 12.47 13.94C12.47 14.01 12.41 14.06 12.35 14.06H11.05C10.98 14.06 10.93 14 10.93 13.94C10.93 13.36 10.99 12.91 11.09 12.57C11.2 12.23 11.34 11.96 11.54 11.75C11.73 11.54 11.97 11.35 12.24 11.17C12.43 11.05 12.6 10.92 12.75 10.77C12.9 10.62 13.02 10.46 13.11 10.28C13.2 10.1 13.24 9.9 13.24 9.67C13.24 9.42 13.18 9.2 13.07 9.02C12.96 8.84 12.8 8.69 12.6 8.59C12.41 8.49 12.19 8.44 11.95 8.44C11.73 8.44 11.52 8.49 11.32 8.59C11.12 8.69 10.96 8.83 10.83 9.03C10.59 9.39 10.27 9.77 9.84 9.77H9.82C9.35 9.77 8.95 9.37 9.08 8.92C9.15 8.67 9.25 8.45 9.38 8.25C9.65 7.84 10.01 7.54 10.46 7.33C10.91 7.13 11.41 7.02 11.95 7.02C12.54 7.02 13.06 7.13 13.51 7.34C13.96 7.55 14.32 7.86 14.57 8.25C14.82 8.64 14.95 9.1 14.95 9.64C14.95 10 14.89 10.33 14.78 10.61V10.62Z" fill="black"/>
</g>
<defs>
<clipPath id="clip0_246_1225">
<rect width="24" height="24" fill="white"/>
</clipPath>
</defs>
</svg>
