<svg width="24" height="24" viewBox="0 0 24 24" fill="none" xmlns="http://www.w3.org/2000/svg">
<path d="M12.01 18C9.13 18 6.61 17.34 4.82 16.25C4.76 16.31 4.69 16.38 4.63 16.44C4.23 16.92 4 17.44 4 18C4 18.56 4.22 19.08 4.63 19.56C4.83 19.8 5.08 20.03 5.37 20.24C6.09 20.77 7.06 21.21 8.19 21.52C8.64 21.64 9.12 21.75 9.62 21.82C9.87 21.86 10.13 21.89 10.39 21.92C10.91 21.97 11.45 22 12 22C16.42 22 20 20.21 20 18C20 17.37 19.7 16.78 19.19 16.25C17.4 17.34 14.88 18 12 18H12.01Z" fill="black"/>
<path d="M12.01 12C9.13 12 6.61 11.34 4.82 10.25C4.76 10.31 4.69 10.38 4.63 10.44C4.23 10.92 4 11.44 4 12C4 12.56 4.22 13.08 4.63 13.56C4.69 13.63 4.75 13.69 4.82 13.75C4.98 13.92 5.16 14.08 5.37 14.24C5.75 14.52 6.21 14.78 6.72 15C7.17 15.2 7.66 15.37 8.19 15.52C8.64 15.64 9.12 15.75 9.62 15.82C9.87 15.86 10.13 15.89 10.39 15.92C10.91 15.97 11.45 16 12 16C14.03 16 15.87 15.62 17.28 15C18.07 14.65 18.72 14.23 19.19 13.75C19.71 13.22 20 12.63 20 12C20 11.37 19.7 10.78 19.19 10.25C17.4 11.34 14.88 12 12 12H12.01Z" fill="black"/>
<path d="M4.82 7.75C4.98 7.92 5.16 8.08 5.37 8.24C5.75 8.52 6.21 8.78 6.72 9C7.17 9.2 7.66 9.37 8.19 9.52C8.64 9.64 9.12 9.75 9.62 9.82C9.87 9.86 10.13 9.89 10.39 9.92C10.91 9.97 11.45 10 12 10C14.03 10 15.87 9.62 17.28 9C18.07 8.65 18.72 8.23 19.19 7.75C19.71 7.22 20 6.63 20 6C20 3.79 16.42 2 12 2C11.45 2 10.91 2.03 10.39 2.08C10.13 2.11 9.87 2.14 9.62 2.18C9.12 2.26 8.64 2.36 8.19 2.48C7.06 2.79 6.09 3.23 5.37 3.76C5.08 3.97 4.83 4.2 4.63 4.44C4.23 4.92 4 5.44 4 6C4 6.56 4.22 7.08 4.63 7.56C4.69 7.63 4.75 7.69 4.82 7.75Z" fill="black"/>
</svg>
