<svg width="24" height="24" viewBox="0 0 24 24" fill="none" xmlns="http://www.w3.org/2000/svg">
<g clip-path="url(#clip0_328_1856)">
<path d="M12 2C6.48 2 2 6.48 2 12C2 17.52 6.48 22 12 22C17.52 22 22 17.52 22 12C22 6.48 17.52 2 12 2ZM12 20.2C7.47 20.2 3.8 16.53 3.8 12C3.8 7.47 7.47 3.8 12 3.8C16.53 3.8 20.2 7.47 20.2 12C20.2 16.53 16.53 20.2 12 20.2Z" fill="black"/>
<path d="M11.73 14.98C11.46 14.98 11.22 15.08 11.03 15.27C10.83 15.46 10.73 15.7 10.73 15.97C10.73 16.24 10.83 16.49 11.03 16.68C11.23 16.87 11.46 16.97 11.73 16.97C11.91 16.97 12.08 16.93 12.23 16.84C12.38 16.75 12.5 16.63 12.59 16.47C12.68 16.32 12.73 16.15 12.73 15.96C12.73 15.69 12.63 15.45 12.43 15.26C12.23 15.07 12 14.97 11.73 14.97V14.98Z" fill="black"/>
<path d="M13.51 7.34C13.06 7.13 12.54 7.02 11.95 7.02C11.41 7.02 10.91 7.12 10.46 7.33C10.01 7.53 9.65 7.84 9.38 8.25C9.25 8.45 9.15 8.67 9.08 8.92C8.95 9.37 9.35 9.77 9.82 9.77H9.84C10.28 9.77 10.59 9.4 10.83 9.03C10.96 8.83 11.12 8.69 11.32 8.59C11.52 8.49 11.73 8.44 11.95 8.44C12.19 8.44 12.4 8.49 12.6 8.59C12.8 8.69 12.95 8.83 13.07 9.02C13.18 9.2 13.24 9.42 13.24 9.67C13.24 9.89 13.2 10.09 13.11 10.28C13.02 10.46 12.9 10.62 12.75 10.77C12.6 10.91 12.43 11.04 12.24 11.17C11.96 11.34 11.73 11.54 11.54 11.75C11.35 11.96 11.2 12.23 11.09 12.57C10.99 12.91 10.93 13.37 10.93 13.94C10.93 14.01 10.99 14.06 11.05 14.06H12.35C12.42 14.06 12.47 14 12.47 13.94C12.47 13.6 12.51 13.32 12.59 13.09C12.67 12.86 12.79 12.66 12.94 12.48C13.1 12.31 13.31 12.14 13.56 11.98C13.85 11.81 14.09 11.61 14.3 11.38C14.51 11.16 14.67 10.9 14.78 10.62C14.89 10.33 14.95 10.01 14.95 9.65C14.95 9.11 14.82 8.65 14.57 8.26C14.32 7.87 13.97 7.56 13.51 7.35V7.34Z" fill="black"/>
</g>
<defs>
<clipPath id="clip0_328_1856">
<rect width="24" height="24" fill="white"/>
</clipPath>
</defs>
</svg>
