<svg width="24" height="24" viewBox="0 0 24 24" fill="none" xmlns="http://www.w3.org/2000/svg">
<g clip-path="url(#clip0_328_1774)">
<path fill-rule="evenodd" clip-rule="evenodd" d="M12 2C6.48 2 2 6.48 2 12C2 17.52 6.48 22 12 22C17.52 22 22 17.52 22 12C22 6.48 17.52 2 12 2ZM12 20.2C7.47 20.2 3.8 16.53 3.8 12C3.8 7.47 7.47 3.8 12 3.8C16.53 3.8 20.2 7.47 20.2 12C20.2 16.53 16.53 20.2 12 20.2Z" fill="black"/>
<path fill-rule="evenodd" clip-rule="evenodd" d="M12.75 6C12.34 6 12 6.34 12 6.75V11.75C12 12.16 11.66 12.5 11.25 12.5H7.25C6.84 12.5 6.5 12.84 6.5 13.25C6.5 13.66 6.84 14 7.25 14H11.25C12.49 14 13.5 12.99 13.5 11.75V6.75C13.5 6.34 13.16 6 12.75 6Z" fill="black"/>
</g>
<defs>
<clipPath id="clip0_328_1774">
<rect width="24" height="24" fill="white"/>
</clipPath>
</defs>
</svg>
