<svg width="24" height="24" viewBox="0 0 24 24" fill="none" xmlns="http://www.w3.org/2000/svg">
<path fill-rule="evenodd" clip-rule="evenodd" d="M18.62 19.6991H5.38C4.89 19.6991 4.5 20.0993 4.5 20.5995C4.5 21.0998 4.9 21.5 5.38 21.5H18.62C19.11 21.5 19.5 21.0998 19.5 20.5995C19.5 20.0993 19.1 19.6991 18.62 19.6991Z" fill="black"/>
<path fill-rule="evenodd" clip-rule="evenodd" d="M11.07 17.9381C11.6 18.4184 12.4 18.4184 12.93 17.9381L17.1 14.1962C17.47 13.866 17.5 13.2857 17.17 12.9155C16.84 12.5353 16.27 12.5053 15.9 12.8354L12.9 15.5369V3.39047C12.9 2.90021 12.5 2.5 12 2.5C11.5 2.5 11.1 2.90021 11.1 3.39047V15.5369L8.1 12.8354C7.73 12.5053 7.16 12.5353 6.83 12.9155C6.5 13.2957 6.53 13.866 6.9 14.1962L11.07 17.9381Z" fill="black"/>
</svg>
