<svg width="24" height="24" viewBox="0 0 24 24" fill="none" xmlns="http://www.w3.org/2000/svg">
<path d="M11.4118 22C6.21176 22 2 17.7882 2 12.5882C2 7.38824 6.21176 3.17647 11.4118 3.17647V9.05882C11.4118 11.0118 12.9882 12.5882 14.9412 12.5882H20.8235C20.8235 17.7882 16.6118 21.9882 11.4118 22ZM14.9176 3.17647C15.0235 3.17647 15.1412 3.18824 15.2471 3.22353C17.8706 4.08235 19.9294 6.14118 20.7765 8.76471C20.8824 9.09412 20.8235 9.45882 20.6118 9.72941C20.3882 10.0353 20.0235 10.2235 19.6353 10.2353H15.4824C14.6588 10.2353 13.7647 9.92941 13.7647 9.07059V4.37647C13.7647 3.72941 14.2706 3.2 14.9176 3.17647ZM14.9059 2C13.6118 2.02353 12.5765 3.08235 12.5882 4.37647V9.07059C12.5882 10.3647 13.6353 11.4118 15.4824 11.4118H19.6353C20.9294 11.4235 21.9882 10.3882 22 9.09412C22 8.85882 21.9647 8.62353 21.9059 8.4C20.9294 5.42353 18.5882 3.08235 15.6 2.10588C15.3882 2.03529 15.1529 2 14.9176 2" fill="#161616"/>
</svg>
