<svg width="24" height="24" viewBox="0 0 24 24" fill="none" xmlns="http://www.w3.org/2000/svg">
<path fill-rule="evenodd" clip-rule="evenodd" d="M10.2292 2.29354C9.89936 2.65754 9.92907 3.21819 10.2955 3.54579L19.0177 11.3436C19.2757 11.5742 19.2811 11.9742 19.0295 12.2116L10.2778 20.4704C9.92042 20.8077 9.90594 21.369 10.2455 21.724C10.585 22.0791 11.15 22.0934 11.5074 21.7562L20.2591 13.4973C21.2654 12.5477 21.2437 10.9478 20.212 10.0255L11.4898 2.22763C11.1233 1.90003 10.5589 1.92954 10.2292 2.29354Z" fill="black"/>
<path fill-rule="evenodd" clip-rule="evenodd" d="M3.22915 2.29354C2.89936 2.65754 2.92907 3.21819 3.2955 3.54579L12.0177 11.3436C12.2757 11.5742 12.2811 11.9742 12.0295 12.2116L3.27784 20.4704C2.92043 20.8077 2.90594 21.369 3.24548 21.724C3.58503 22.0791 4.15002 22.0934 4.50744 21.7562L13.2591 13.4973C14.2654 12.5477 14.2437 10.9478 13.212 10.0255L4.48978 2.22763C4.12334 1.90003 3.55894 1.92954 3.22915 2.29354Z" fill="black"/>
</svg>
