<svg width="24" height="24" viewBox="0 0 24 24" fill="none" xmlns="http://www.w3.org/2000/svg">
<path fill-rule="evenodd" clip-rule="evenodd" d="M21.7065 13.7708C21.3425 14.1006 20.7818 14.0709 20.4542 13.7045L12.6564 4.98226C12.4258 4.72434 12.0258 4.71892 11.7884 4.97048L3.52956 13.7222C3.19227 14.0796 2.63103 14.0941 2.27599 13.7545C1.92095 13.415 1.90656 12.85 2.24384 12.4926L10.5027 3.74089C11.4523 2.73463 13.0522 2.75633 13.9745 3.78798L21.7724 12.5102C22.1 12.8767 22.0705 13.4411 21.7065 13.7708Z" fill="black"/>
<path fill-rule="evenodd" clip-rule="evenodd" d="M21.7065 20.7708C21.3425 21.1006 20.7818 21.0709 20.4542 20.7045L12.6564 11.9823C12.4258 11.7243 12.0258 11.7189 11.7884 11.9705L3.52956 20.7222C3.19227 21.0796 2.63103 21.0941 2.27599 20.7545C1.92095 20.415 1.90656 19.85 2.24384 19.4926L10.5027 10.7409C11.4523 9.73463 13.0522 9.75633 13.9745 10.788L21.7724 19.5102C22.1 19.8767 22.0705 20.4411 21.7065 20.7708Z" fill="black"/>
</svg>
