<svg width="24" height="24" viewBox="0 0 24 24" fill="none" xmlns="http://www.w3.org/2000/svg">
<path fill-rule="evenodd" clip-rule="evenodd" d="M21.7065 10.2292C21.3425 9.89936 20.7818 9.92907 20.4542 10.2955L12.6564 19.0177C12.4258 19.2757 12.0258 19.2811 11.7884 19.0295L3.52956 10.2778C3.19227 9.92042 2.63103 9.90594 2.27599 10.2455C1.92095 10.585 1.90656 11.15 2.24384 11.5074L10.5027 20.2591C11.4523 21.2654 13.0522 21.2437 13.9745 20.212L21.7724 11.4898C22.1 11.1233 22.0705 10.5589 21.7065 10.2292Z" fill="black"/>
<path fill-rule="evenodd" clip-rule="evenodd" d="M21.7065 3.22915C21.3425 2.89936 20.7818 2.92907 20.4542 3.2955L12.6564 12.0177C12.4258 12.2757 12.0258 12.2811 11.7884 12.0295L3.52956 3.27784C3.19227 2.92042 2.63103 2.90594 2.27599 3.24548C1.92095 3.58503 1.90656 4.15002 2.24384 4.50744L10.5027 13.2591C11.4523 14.2654 13.0522 14.2437 13.9745 13.212L21.7724 4.48978C22.1 4.12334 22.0705 3.55894 21.7065 3.22915Z" fill="black"/>
</svg>
