<svg width="24" height="24" viewBox="0 0 24 24" fill="none" xmlns="http://www.w3.org/2000/svg">
<path fill-rule="evenodd" clip-rule="evenodd" d="M13.7708 2.29354C14.1006 2.65754 14.0709 3.21819 13.7045 3.54579L4.98226 11.3436C4.72434 11.5742 4.71892 11.9742 4.97048 12.2116L13.7222 20.4704C14.0796 20.8077 14.0941 21.369 13.7545 21.724C13.415 22.0791 12.85 22.0934 12.4926 21.7562L3.74089 13.4973C2.73463 12.5477 2.75633 10.9478 3.78798 10.0255L12.5102 2.22763C12.8767 1.90003 13.4411 1.92954 13.7708 2.29354Z" fill="black"/>
<path fill-rule="evenodd" clip-rule="evenodd" d="M20.7708 2.29354C21.1006 2.65754 21.0709 3.21819 20.7045 3.54579L11.9823 11.3436C11.7243 11.5742 11.7189 11.9742 11.9705 12.2116L20.7222 20.4704C21.0796 20.8077 21.0941 21.369 20.7545 21.724C20.415 22.0791 19.85 22.0934 19.4926 21.7562L10.7409 13.4973C9.73463 12.5477 9.75633 10.9478 10.788 10.0255L19.5102 2.22763C19.8767 1.90003 20.4411 1.92954 20.7708 2.29354Z" fill="black"/>
</svg>
