<svg width="24" height="24" viewBox="0 0 24 24" fill="none" xmlns="http://www.w3.org/2000/svg">
<path fill-rule="evenodd" clip-rule="evenodd" d="M11.6998 2C12.0227 2 12.2845 2.26174 12.2845 2.58462V4.08899C12.2845 4.41186 12.0227 4.6736 11.6998 4.6736C11.377 4.6736 11.1152 4.41186 11.1152 4.08899V2.58462C11.1152 2.26174 11.377 2 11.6998 2Z" fill="black"/>
<path fill-rule="evenodd" clip-rule="evenodd" d="M15.0435 3.17104C15.2691 3.40039 15.2691 3.76836 15.0435 3.9977L14.0691 4.98793C13.8382 5.22257 13.4599 5.22257 13.229 4.98793C13.0033 4.75858 13.0033 4.39061 13.229 4.16126L14.2033 3.17104C14.4342 2.93639 14.8126 2.93639 15.0435 3.17104Z" fill="black"/>
<path fill-rule="evenodd" clip-rule="evenodd" d="M8.35691 3.17104C8.58779 2.93639 8.96614 2.93639 9.19703 3.17104L10.1714 4.16126C10.3971 4.39061 10.3971 4.75858 10.1714 4.98793C9.9405 5.22257 9.56215 5.22257 9.33126 4.98793L8.35691 3.9977C8.13123 3.76836 8.13123 3.40039 8.35691 3.17104Z" fill="black"/>
<path fill-rule="evenodd" clip-rule="evenodd" d="M11.9838 13.0906C10.6702 13.0906 9.79445 13.9344 9.54715 14.3114C9.36883 14.5832 9.0004 14.655 8.73127 14.4727C8.46548 14.2926 8.39138 13.9311 8.56747 13.6626L8.57429 13.6522C8.97655 13.039 10.1795 11.9023 11.9838 11.9023C13.7881 11.9023 14.991 13.039 15.3933 13.6522L15.4001 13.6626C15.5762 13.9311 15.5021 14.2926 15.2363 14.4727C14.9672 14.655 14.5988 14.5832 14.4204 14.3114C14.1731 13.9344 13.2974 13.0906 11.9838 13.0906Z" fill="black"/>
<path fill-rule="evenodd" clip-rule="evenodd" d="M14.2425 9.10566C14.4708 8.87363 14.841 8.87363 15.0693 9.10566L16.5308 10.591C16.7591 10.823 16.7591 11.1992 16.5308 11.4312C16.3025 11.6632 15.9324 11.6632 15.7041 11.4312L14.2425 9.94589C14.0142 9.71387 14.0142 9.33768 14.2425 9.10566Z" fill="black"/>
<path fill-rule="evenodd" clip-rule="evenodd" d="M7.42123 9.10566C7.64954 8.87363 8.01969 8.87363 8.248 9.10566L9.70954 10.591C9.93785 10.823 9.93785 11.1992 9.70954 11.4312C9.48123 11.6632 9.11107 11.6632 8.88277 11.4312L7.42123 9.94589C7.19292 9.71387 7.19292 9.33768 7.42123 9.10566Z" fill="black"/>
<path fill-rule="evenodd" clip-rule="evenodd" d="M14.2425 11.4315C14.0142 11.1994 14.0142 10.8232 14.2425 10.5912L15.7041 9.10588C15.9324 8.87386 16.3025 8.87386 16.5308 9.10588C16.7591 9.33791 16.7591 9.71409 16.5308 9.94612L15.0693 11.4315C14.841 11.6635 14.4708 11.6635 14.2425 11.4315Z" fill="black"/>
<path fill-rule="evenodd" clip-rule="evenodd" d="M7.42123 11.4315C7.19292 11.1994 7.19292 10.8232 7.42123 10.5912L8.88277 9.10588C9.11107 8.87386 9.48123 8.87386 9.70954 9.10588C9.93785 9.33791 9.93785 9.71409 9.70954 9.94612L8.248 11.4315C8.01969 11.6635 7.64954 11.6635 7.42123 11.4315Z" fill="black"/>
<path fill-rule="evenodd" clip-rule="evenodd" d="M7.34933 8.2408C7.02212 8.2408 6.73268 8.44928 6.63414 8.75593L4.03481 16.8455C4.01174 16.9173 4 16.9922 4 17.0675V19.7887C4 20.1957 4.33579 20.5257 4.75 20.5257H19.25C19.6642 20.5257 20 20.1957 20 19.7887V17.0675C20 16.9922 19.9883 16.9173 19.9652 16.8455L17.3659 8.75593C17.2673 8.44928 16.9779 8.2408 16.6507 8.2408H7.34933ZM5.20377 8.312C5.49937 7.39204 6.3677 6.7666 7.34933 6.7666H16.6507C17.6323 6.7666 18.5006 7.39204 18.7962 8.312L21.3956 16.4016C21.4648 16.617 21.5 16.8416 21.5 17.0675V19.7887C21.5 21.0099 20.4926 21.9999 19.25 21.9999H4.75C3.50736 21.9999 2.5 21.0099 2.5 19.7887V17.0675C2.5 16.8416 2.53522 16.617 2.60444 16.4016L5.20377 8.312Z" fill="black"/>
<path fill-rule="evenodd" clip-rule="evenodd" d="M8.32195 17.5774H3.25V16.1032H8.75C9.03408 16.1032 9.29378 16.2609 9.42082 16.5106C9.544 16.7527 9.82989 17.1599 10.2504 17.4987C10.6648 17.8325 11.1689 18.0688 11.75 18.0688C12.3311 18.0688 12.8352 17.8325 13.2496 17.4987C13.6701 17.1599 13.956 16.7527 14.0792 16.5106C14.2062 16.2609 14.4659 16.1032 14.75 16.1032H20.75V17.5774H15.178C14.9466 17.9188 14.6182 18.3023 14.2004 18.6388C13.5981 19.124 12.7689 19.543 11.75 19.543C10.7311 19.543 9.90189 19.124 9.29955 18.6388C8.88177 18.3023 8.55339 17.9188 8.32195 17.5774Z" fill="black"/>
</svg>
