<svg width="24" height="24" viewBox="0 0 24 24" fill="none" xmlns="http://www.w3.org/2000/svg">
<path fill-rule="evenodd" clip-rule="evenodd" d="M21.0709 11.6H2.90909C2.40959 11.6 2 12 2 12.5C2 13 2.40959 13.4 2.90909 13.4H21.0709C21.5704 13.4 21.98 13 21.98 12.5C21.98 12 21.5704 11.6 21.0709 11.6Z" fill="black"/>
<path fill-rule="evenodd" clip-rule="evenodd" d="M2.90909 7.9H5.43656C5.48651 7.9 5.53646 7.88 5.58641 7.87C5.96603 9.1 7.1049 10 8.47353 10C9.84216 10 10.961 9.11 11.3506 7.9H21.0909C21.5904 7.9 22 7.5 22 7C22 6.5 21.5904 6.1 21.0909 6.1H11.3506C10.961 4.89 9.83217 4 8.47353 4C7.11488 4 5.96603 4.9 5.58641 6.13C5.53646 6.13 5.4965 6.1 5.43656 6.1H2.90909C2.40959 6.1 2 6.5 2 7C2 7.5 2.40959 7.9 2.90909 7.9ZM8.45355 5.8C9.12288 5.8 9.66234 6.34 9.66234 7C9.66234 7.66 9.12288 8.2 8.45355 8.2C7.78422 8.2 7.24476 7.66 7.24476 7C7.24476 6.34 7.78422 5.8 8.45355 5.8Z" fill="black"/>
<path fill-rule="evenodd" clip-rule="evenodd" d="M18.5435 17.1C18.4935 17.1 18.4436 17.12 18.3936 17.13C18.014 15.9 16.8751 15 15.5065 15C14.1379 15 13.019 15.89 12.6294 17.1H2.90909C2.40959 17.1 2 17.5 2 18C2 18.5 2.40959 18.9 2.90909 18.9H12.6494C13.039 20.11 14.1678 21 15.5265 21C16.8851 21 18.034 20.1 18.4136 18.87C18.4635 18.87 18.5035 18.9 18.5634 18.9H21.0909C21.5904 18.9 22 18.5 22 18C22 17.5 21.5904 17.1 21.0909 17.1H18.5435ZM15.5265 19.2C14.8571 19.2 14.3177 18.66 14.3177 18C14.3177 17.34 14.8571 16.8 15.5265 16.8C16.1958 16.8 16.7353 17.34 16.7353 18C16.7353 18.66 16.1958 19.2 15.5265 19.2Z" fill="black"/>
</svg>
