<svg width="24" height="24" viewBox="0 0 24 24" fill="none" xmlns="http://www.w3.org/2000/svg">
<path fill-rule="evenodd" clip-rule="evenodd" d="M5.35 7.42754C4.86 7.42754 4.46 7.82732 4.46 8.31705V20.1105C4.46 20.6002 4.86 21 5.35 21C5.84 21 6.24 20.6002 6.24 20.1105V8.30705C6.24 7.81732 5.84 7.41755 5.35 7.41755V7.42754Z" fill="black"/>
<path fill-rule="evenodd" clip-rule="evenodd" d="M6.24 4.96891V3.88951C6.24 3.39978 5.84 3 5.35 3C4.86 3 4.46 3.39978 4.46 3.88951V4.96891H3.39C2.9 4.96891 2.5 5.36868 2.5 5.85841C2.5 6.34814 2.9 6.74792 3.39 6.74792H7.33C7.82 6.74792 8.22 6.34814 8.22 5.85841C8.22 5.36868 7.82 4.96891 7.33 4.96891H6.24Z" fill="black"/>
<path fill-rule="evenodd" clip-rule="evenodd" d="M18.65 7.42754C18.16 7.42754 17.76 7.82732 17.76 8.31705V20.1105C17.76 20.6002 18.16 21 18.65 21C19.14 21 19.54 20.6002 19.54 20.1105V8.30705C19.54 7.81732 19.14 7.41755 18.65 7.41755V7.42754Z" fill="black"/>
<path fill-rule="evenodd" clip-rule="evenodd" d="M20.61 4.96891H19.53V3.88951C19.53 3.39978 19.13 3 18.64 3C18.15 3 17.75 3.39978 17.75 3.88951V4.96891H16.67C16.18 4.96891 15.78 5.36868 15.78 5.85841C15.78 6.34814 16.18 6.74792 16.67 6.74792H20.61C21.1 6.74792 21.5 6.34814 21.5 5.85841C21.5 5.36868 21.1 4.96891 20.61 4.96891Z" fill="black"/>
<path fill-rule="evenodd" clip-rule="evenodd" d="M11.75 16.5625C12.24 16.5625 12.64 16.1627 12.64 15.673V3.88951C12.64 3.39978 12.24 3 11.75 3C11.26 3 10.86 3.39978 10.86 3.88951V15.683C10.86 16.1727 11.26 16.5725 11.75 16.5725V16.5625Z" fill="black"/>
<path fill-rule="evenodd" clip-rule="evenodd" d="M13.72 17.2521H9.78C9.29 17.2521 8.89 17.6519 8.89 18.1416C8.89 18.6313 9.29 19.0311 9.78 19.0311H10.86V20.1105C10.86 20.6002 11.26 21 11.75 21C12.24 21 12.64 20.6002 12.64 20.1105V19.0311H13.72C14.21 19.0311 14.61 18.6313 14.61 18.1416C14.61 17.6519 14.21 17.2521 13.72 17.2521Z" fill="black"/>
</svg>
