<svg width="24" height="24" viewBox="0 0 24 24" fill="none" xmlns="http://www.w3.org/2000/svg">
<path fill-rule="evenodd" clip-rule="evenodd" d="M8.88664 10.1333C9.38692 9.86323 9.85992 9.35905 10.1237 8.74684C10.3875 8.11662 10.4421 7.35136 10.0146 6.58609C9.65071 5.91986 9.46879 5.48772 9.4506 5.10058C9.4324 4.73145 9.55975 4.34432 9.97817 3.77712C10.151 3.55205 10.0782 3.23694 9.82354 3.08388C9.56885 2.93083 9.23229 2.99385 9.05947 3.21893C8.55918 3.89416 8.31359 4.48837 8.34997 5.13659C8.37726 5.75781 8.65924 6.36102 9.03218 7.02725C9.29596 7.50441 9.26868 7.98158 9.09585 8.38672C8.91393 8.80986 8.59557 9.13398 8.32268 9.27803C8.0589 9.42208 7.97703 9.72818 8.13167 9.96226C8.2863 10.1963 8.62285 10.2774 8.88664 10.1333Z" fill="black"/>
<path fill-rule="evenodd" clip-rule="evenodd" d="M11.6155 10.1333C12.1157 9.86323 12.5887 9.35905 12.8525 8.74684C13.1163 8.11662 13.1709 7.35136 12.7434 6.58609C12.3795 5.91986 12.1976 5.48772 12.1794 5.10058C12.1612 4.73145 12.2886 4.34432 12.707 3.77712C12.8798 3.55205 12.807 3.23694 12.5524 3.08388C12.2977 2.93083 11.9611 2.99385 11.7883 3.21893C11.288 3.89416 11.0424 4.48837 11.0788 5.13659C11.1061 5.75781 11.3881 6.36102 11.761 7.02725C12.0248 7.50441 11.9975 7.98158 11.8247 8.38672C11.6428 8.80986 11.3244 9.13398 11.0515 9.27803C10.7877 9.42208 10.7059 9.72818 10.8605 9.96226C11.0151 10.1963 11.3517 10.2774 11.6155 10.1333Z" fill="black"/>
<path fill-rule="evenodd" clip-rule="evenodd" d="M14.3443 10.1333C14.8446 9.86323 15.3176 9.35905 15.5814 8.74684C15.8451 8.11662 15.8997 7.35136 15.4722 6.58609C15.1084 5.91986 14.9264 5.48772 14.9082 5.10058C14.8901 4.73145 15.0174 4.34432 15.4358 3.77712C15.6086 3.55205 15.5359 3.23694 15.2812 3.08388C15.0265 2.93083 14.6899 2.99385 14.5171 3.21893C14.0168 3.89416 13.7712 4.48837 13.8076 5.13659C13.8349 5.75781 14.1169 6.36102 14.4898 7.02725C14.7536 7.50441 14.7263 7.98158 14.5535 8.38672C14.3716 8.80986 14.0532 9.13398 13.7803 9.27803C13.5165 9.42208 13.4347 9.72818 13.5893 9.96226C13.7439 10.1963 14.0805 10.2774 14.3443 10.1333Z" fill="black"/>
<path fill-rule="evenodd" clip-rule="evenodd" d="M19.0014 11.4207H17.3459L20.3022 8.47667C20.5659 8.20658 20.5659 7.78343 20.3022 7.51334C20.0293 7.24324 19.5927 7.24324 19.3198 7.51334L15.3994 11.4207C11.7882 11.4207 7.18562 11.4207 4.95708 11.4207C4.16572 11.4207 3.5199 12.0599 3.50171 12.8522C3.41984 17.1557 6.3033 19.2894 8.08613 19.9917L8.67737 20.5769C8.95026 20.8469 9.3141 21 9.70523 21H14.0804C14.4989 21 14.89 20.8199 15.1629 20.5138L15.5995 20.0187C17.5824 19.5325 18.8013 18.092 19.5199 16.5615C20.0839 15.346 20.3567 14.0406 20.4568 12.9782C20.5387 12.1139 19.8837 11.4117 19.0014 11.4117V11.4207ZM18.2737 15.9943C17.6461 17.3357 16.6546 18.4251 15.1174 18.7402C14.9628 18.7762 14.8172 18.8483 14.7172 18.9653L14.1168 19.6495H9.66885L8.95026 18.9383C8.87749 18.8663 8.79562 18.8122 8.69557 18.7762C7.28567 18.2631 4.76606 16.5255 4.87521 12.7982H19.0924C19.0105 13.7345 18.774 14.9319 18.2737 16.0033V15.9943Z" fill="black"/>
</svg>
