<svg width="24" height="24" viewBox="0 0 24 24" fill="none" xmlns="http://www.w3.org/2000/svg">
<path fill-rule="evenodd" clip-rule="evenodd" d="M4.65922 5.20522C4.14917 4.18271 4.92659 3 6.10877 3H17.891C19.0988 3 19.8748 4.22962 19.3144 5.25536L14.4333 14.1896V19.4569C14.4333 20.6873 13.003 21.4212 11.9352 20.7387L10.3284 19.7116C9.88138 19.4259 9.61288 18.9449 9.61288 18.4298V15.1358L4.65922 5.20522ZM6.42747 4.73311L11.2633 14.4274C11.3668 14.6349 11.4205 14.862 11.4205 15.0921V18.3268L12.6256 19.0971V14.1422C12.6256 13.8932 12.6886 13.6479 12.8091 13.4274L17.5591 4.73311H6.42747Z" fill="black"/>
</svg>
