<svg width="24" height="24" viewBox="0 0 24 24" fill="none" xmlns="http://www.w3.org/2000/svg">
<path fill-rule="evenodd" clip-rule="evenodd" d="M18.1416 8.207C18.6313 8.207 19.0311 7.80721 19.0311 7.31746V6.23803H20.1105C20.6002 6.23803 21 5.83824 21 5.3485C21 4.85876 20.6002 4.45897 20.1105 4.45897H19.0311V3.38953C19.0311 2.89979 18.6313 2.5 18.1416 2.5C17.6519 2.5 17.2521 2.89979 17.2521 3.38953V7.32746C17.2521 7.8172 17.6519 8.21699 18.1416 8.21699V8.207Z" fill="black"/>
<path fill-rule="evenodd" clip-rule="evenodd" d="M3.88951 6.23803H15.683C16.1727 6.23803 16.5725 5.83824 16.5725 5.3485C16.5725 4.85876 16.1727 4.45897 15.683 4.45897H3.88951C3.39978 4.45897 3 4.85876 3 5.3485C3 5.83824 3.39978 6.23803 3.88951 6.23803Z" fill="black"/>
<path fill-rule="evenodd" clip-rule="evenodd" d="M20.1005 17.752H19.0211V16.6725C19.0211 16.1828 18.6213 15.783 18.1316 15.783C17.6419 15.783 17.2421 16.1828 17.2421 16.6725V20.6105C17.2421 21.1002 17.6419 21.5 18.1316 21.5C18.6213 21.5 19.0211 21.1002 19.0211 20.6105V19.531H20.1005C20.5902 19.531 20.99 19.1312 20.99 18.6415C20.99 18.1518 20.5902 17.752 20.1005 17.752Z" fill="black"/>
<path fill-rule="evenodd" clip-rule="evenodd" d="M15.683 17.752H3.88951C3.39978 17.752 3 18.1518 3 18.6415C3 19.1312 3.39978 19.531 3.88951 19.531H15.683C16.1727 19.531 16.5725 19.1312 16.5725 18.6415C16.5725 18.1518 16.1727 17.752 15.683 17.752Z" fill="black"/>
<path fill-rule="evenodd" clip-rule="evenodd" d="M20.1005 10.8656H8.30705C7.81732 10.8656 7.41755 11.2654 7.41755 11.7551C7.41755 12.2449 7.81732 12.6447 8.30705 12.6447H20.1005C20.5902 12.6447 20.99 12.2449 20.99 11.7551C20.99 11.2654 20.5902 10.8656 20.1005 10.8656Z" fill="black"/>
<path fill-rule="evenodd" clip-rule="evenodd" d="M3.88951 12.6347H4.96891V13.7141C4.96891 14.2038 5.36868 14.6036 5.85841 14.6036C6.34814 14.6036 6.74792 14.2038 6.74792 13.7141V9.77617C6.74792 9.28643 6.34814 8.88664 5.85841 8.88664C5.36868 8.88664 4.96891 9.28643 4.96891 9.77617V10.8556H3.88951C3.39978 10.8556 3 11.2554 3 11.7451C3 12.2349 3.39978 12.6347 3.88951 12.6347Z" fill="black"/>
</svg>
