<svg width="24" height="24" viewBox="0 0 24 24" fill="none" xmlns="http://www.w3.org/2000/svg">
<path fill-rule="evenodd" clip-rule="evenodd" d="M8.88815 10.1333C9.38922 9.8632 9.86345 9.35903 10.1229 8.74682C10.3824 8.1166 10.445 7.35134 10.0156 6.58608C9.64871 5.91985 9.46975 5.4877 9.45186 5.10057C9.43396 4.73145 9.55923 4.34431 9.97977 3.77712C10.1498 3.55204 10.0782 3.23694 9.82766 3.08388C9.57712 2.93083 9.23711 2.99385 9.06711 3.21893C8.56604 3.89416 8.32445 4.48836 8.36024 5.13658C8.38708 5.7578 8.67341 6.361 9.04026 7.02723C9.29975 7.50439 9.2729 7.98156 9.1029 8.38669C8.92394 8.80984 8.60183 9.13395 8.3334 9.278C8.07392 9.42205 7.98444 9.72815 8.1455 9.96223C8.29761 10.1963 8.63762 10.2773 8.8971 10.1333H8.88815Z" fill="black"/>
<path fill-rule="evenodd" clip-rule="evenodd" d="M11.6172 10.1333C12.1183 9.8632 12.5925 9.35903 12.852 8.74682C13.1115 8.1166 13.1741 7.35134 12.7446 6.58608C12.3777 5.91985 12.1988 5.4877 12.1809 5.10057C12.163 4.73145 12.2883 4.34431 12.7088 3.77712C12.8788 3.55204 12.8072 3.23694 12.5567 3.08388C12.3062 2.93083 11.9662 2.99385 11.7961 3.21893C11.2951 3.89416 11.0535 4.48836 11.0893 5.13658C11.1161 5.7578 11.4024 6.361 11.7693 7.02723C12.0288 7.50439 12.0019 7.98156 11.8319 8.38669C11.653 8.80984 11.3309 9.13395 11.0624 9.278C10.803 9.42205 10.7135 9.72815 10.8745 9.96223C11.0266 10.1963 11.3667 10.2773 11.6261 10.1333H11.6172Z" fill="black"/>
<path fill-rule="evenodd" clip-rule="evenodd" d="M14.3462 10.1333C14.8473 9.8632 15.3215 9.35903 15.581 8.74682C15.8405 8.1166 15.9031 7.35134 15.4736 6.58608C15.1068 5.91985 14.9278 5.4877 14.9099 5.10057C14.892 4.73145 15.0173 4.34431 15.4379 3.77712C15.6079 3.55204 15.5363 3.23694 15.2857 3.08388C15.0352 2.93083 14.6952 2.99385 14.5252 3.21893C14.0241 3.89416 13.7825 4.48836 13.8183 5.13658C13.8452 5.7578 14.1315 6.361 14.4983 7.02723C14.7578 7.50439 14.731 7.98156 14.561 8.38669C14.382 8.80984 14.0599 9.13395 13.7915 9.278C13.532 9.42205 13.4425 9.72815 13.6036 9.96223C13.7646 10.1963 14.0957 10.2773 14.3552 10.1333H14.3462Z" fill="black"/>
<path fill-rule="evenodd" clip-rule="evenodd" d="M19.008 11.4117L17.3527 11.4207L20.3054 8.47673C20.5649 8.20663 20.5649 7.78349 20.3054 7.5134C20.028 7.2433 19.5985 7.2433 19.3211 7.5134L15.4021 11.4207H4.96012C4.16378 11.4207 3.51955 12.0599 3.50165 12.8522C3.42112 17.1557 6.30227 19.2894 8.08286 19.9917L8.67341 20.5769C8.94184 20.8469 9.30869 21 9.70239 21H14.0778C14.4983 21 14.8831 20.8199 15.1605 20.5138L15.5989 20.0187C17.5853 19.5325 18.8022 18.092 19.518 16.5615C20.0817 15.3461 20.3591 14.0406 20.4575 12.9783C20.538 12.114 19.8848 11.4117 18.999 11.4117H19.008Z" fill="black"/>
</svg>
