<svg width="24" height="24" viewBox="0 0 24 24" fill="none" xmlns="http://www.w3.org/2000/svg">
<path fill-rule="evenodd" clip-rule="evenodd" d="M2.76923 2C3.19407 2 3.53846 2.3444 3.53846 2.76923V19.1795C3.53846 19.8875 4.11246 20.4615 4.82051 20.4615H21.2308C21.6556 20.4615 22 20.8059 22 21.2308C22 21.6556 21.6556 22 21.2308 22H4.82051C3.26279 22 2 20.7372 2 19.1795V2.76923C2 2.3444 2.3444 2 2.76923 2Z" fill="black"/>
<path fill-rule="evenodd" clip-rule="evenodd" d="M19.4601 4.1044C19.8557 4.25924 20.0508 4.70548 19.896 5.10109L18.3695 9.00102C17.799 10.4585 16.1509 11.1727 14.6973 10.5925L12.0501 9.53571C11.4145 9.28199 10.6917 9.5722 10.408 10.195L7.57202 16.4216C7.39593 16.8082 6.93976 16.9789 6.55314 16.8028C6.16652 16.6267 5.99585 16.1705 6.17194 15.7839L9.00794 9.55731C9.63199 8.18716 11.2222 7.5487 12.6204 8.10689L15.2677 9.16366C15.9284 9.42742 16.6776 9.10275 16.9369 8.44026L18.4634 4.54034C18.6182 4.14473 19.0644 3.94955 19.4601 4.1044Z" fill="black"/>
<path fill-rule="evenodd" clip-rule="evenodd" d="M19.4812 3.05544C19.8897 2.93873 20.3154 3.17526 20.4321 3.58375L21.4578 7.17349C21.5745 7.58198 21.3379 8.00774 20.9295 8.12445C20.521 8.24116 20.0952 8.00463 19.9785 7.59614L19.1642 4.74603L16.3141 5.56034C15.9056 5.67706 15.4798 5.44052 15.3631 5.03204C15.2464 4.62355 15.4829 4.19779 15.8914 4.08108L19.4812 3.05544Z" fill="black"/>
</svg>
