<svg width="24" height="24" viewBox="0 0 24 24" fill="none" xmlns="http://www.w3.org/2000/svg">
<path d="M18.75 20H5.25C4.0125 20 3 18.9714 3 17.7143V6.28571C3 5.02857 4.0125 4 5.25 4H18.75C19.9875 4 21 5.02857 21 6.28571V17.7143C21 18.9714 19.9875 20 18.75 20ZM16.5 9.71429C15.8813 9.71429 15.375 10.2286 15.375 10.8571V16.5714H17.625V10.8571C17.625 10.2286 17.1187 9.71429 16.5 9.71429ZM12 7.42857C11.3813 7.42857 10.875 7.94286 10.875 8.57143V16.5714H13.125V8.57143C13.125 7.94286 12.6187 7.42857 12 7.42857ZM7.5 12C6.88125 12 6.375 12.5143 6.375 13.1429V16.5714H8.625V13.1429C8.625 12.5143 8.11875 12 7.5 12Z" fill="#161616"/>
</svg>
