<svg width="24" height="24" viewBox="0 0 24 24" fill="none" xmlns="http://www.w3.org/2000/svg">
<path fill-rule="evenodd" clip-rule="evenodd" d="M12 4.90989L5.71429 10.7686V19.1563H9.71429V15.1617C9.71429 14.2566 10.3965 13.5229 11.2381 13.5229H13.2381C14.0797 13.5229 14.7619 14.2566 14.7619 15.1617V19.1563H18.2857V10.7687L12 4.90989ZM11.002 3.40038C11.5748 2.86654 12.4252 2.86654 12.998 3.40038L19.4742 9.43668C19.8081 9.74795 20 10.1998 20 10.6751V19.3612C20 20.2663 19.3178 21 18.4762 21H14.5714C13.7299 21 13.0476 20.2663 13.0476 19.3612V15.3666H11.4286V19.3612C11.4286 20.2663 10.7463 21 9.90476 21H5.52381C4.68223 21 4 20.2663 4 19.3612V10.6751C4 10.1998 4.19186 9.74795 4.52582 9.43668L11.002 3.40038Z" fill="black"/>
</svg>
