<svg width="24" height="24" viewBox="0 0 24 24" fill="none" xmlns="http://www.w3.org/2000/svg">
<path d="M19.6996 9.23405L12.6308 3.23256C12.2703 2.92248 11.7397 2.92248 11.3792 3.23256L4.3204 9.23405C4.12015 9.41409 4 9.67416 4 9.94423V18.4763C4 18.9965 4.42053 19.4166 4.94118 19.4166H8.70588C8.94618 19.4166 9.16646 19.3166 9.32666 19.1665L12.7209 20.947C13.0313 21.107 13.4118 20.8869 13.4118 20.5269V13.225C13.4118 13.035 13.3016 12.865 13.1214 12.7849L10.1377 11.5346C10.2678 11.4646 10.418 11.4046 10.5882 11.4046H13.8824C14.403 11.4046 14.8235 11.8247 14.8235 12.3448V18.4663C14.8235 18.9865 15.2441 19.4066 15.7647 19.4066H19.0588C19.5795 19.4066 20 18.9865 20 18.4663V9.94423C20 9.67416 19.8798 9.41409 19.6796 9.23405H19.6996Z" fill="black"/>
</svg>
