<svg width="24" height="24" viewBox="0 0 24 24" fill="none" xmlns="http://www.w3.org/2000/svg">
<path fill-rule="evenodd" clip-rule="evenodd" d="M19.3427 8.02529H18.9331C18.7532 7.24447 18.4436 6.40358 17.9141 5.64278C16.8751 4.13119 15.0869 3 12.2198 3C9.19281 3 7.3047 4.11117 6.18581 5.61275C5.61638 6.38356 5.27672 7.23446 5.07692 8.02529H4.64735C3.18881 8.02529 2 9.21654 2 10.6881V11.6691C2 13.1407 3.18881 14.3319 4.64735 14.3319L6.41558 14.3119V13.491V9.91728C6.41558 8.99631 6.63536 7.64489 7.44456 6.55374C8.22378 5.50263 9.62238 4.57165 12.2198 4.57165C14.6174 4.57165 15.9061 5.48261 16.6254 6.53372C17.3746 7.63488 17.5844 8.9863 17.5844 9.91728V13.491V13.5211C17.5844 13.5411 17.5844 13.5811 17.5844 13.6212C17.5844 13.7113 17.5844 13.8514 17.5644 14.0216C17.5445 14.362 17.4945 14.8325 17.4146 15.333C17.2348 16.4041 16.8951 17.4452 16.3457 17.9958C15.7363 18.6064 15.017 18.9268 14.4276 19.0869C14.3676 19.107 14.3277 19.107 14.2777 19.117C13.9481 18.4563 13.2787 17.9958 12.4895 17.9958C11.3906 17.9958 10.4915 18.8967 10.4915 19.9979C10.4915 21.0991 11.3906 22 12.4895 22C13.3387 22 14.0579 21.4694 14.3477 20.7187C14.4975 20.6886 14.6573 20.6586 14.8372 20.6085C15.5964 20.3983 16.5954 19.9779 17.4545 19.117C18.3736 18.186 18.7732 16.7044 18.963 15.6033C19.043 15.1128 19.0929 14.6823 19.1129 14.3219H19.3526C20.8112 14.3219 22 13.1307 22 11.6591V10.6781C22 9.20653 20.8112 8.01528 19.3526 8.01528L19.3427 8.02529ZM3.37862 11.6691V10.6881C3.37862 9.97734 3.94805 9.40674 4.64735 9.40674H4.86713C4.85714 9.58693 4.84715 9.76712 4.84715 9.91728V12.9505H4.64735C3.94805 12.9505 3.37862 12.3799 3.37862 11.6691ZM12.4895 20.7987C12.0699 20.7987 11.7103 20.4584 11.7103 20.0179C11.7103 19.5775 12.0599 19.2371 12.4895 19.2371C12.9191 19.2371 13.2687 19.5775 13.2687 20.0179C13.2687 20.4584 12.9191 20.7987 12.4895 20.7987ZM20.6214 11.6691C20.6214 12.3799 20.0519 12.9505 19.3526 12.9505H19.1528V9.91728C19.1528 9.75711 19.1528 9.58693 19.1329 9.40674H19.3427C20.042 9.40674 20.6114 9.97734 20.6114 10.6881V11.6691H20.6214Z" fill="black"/>
</svg>
