<svg width="24" height="24" viewBox="0 0 24 24" fill="none" xmlns="http://www.w3.org/2000/svg">
<path d="M19.3513 8.02264H18.9415C18.7616 7.24223 18.4518 6.40179 17.922 5.64139C16.8826 4.1306 15.0935 3 12.2249 3C9.1964 3 7.30735 4.11058 6.18791 5.61137C5.61819 6.38178 5.27836 7.23223 5.07846 8.02264H4.64868C3.18941 8.02264 2 9.21327 2 10.684V11.6646C2 13.1353 3.18941 14.326 4.64868 14.326H6.42779L6.4078 13.4855V9.91364C6.4078 8.99315 6.62769 7.64244 7.43728 6.55187C8.21689 5.50132 9.61619 4.57083 12.2149 4.57083C14.6137 4.57083 15.903 5.48131 16.6227 6.53186C17.3723 7.63244 17.5822 8.98315 17.5822 9.91364V13.4855V13.5155C17.5822 13.5355 17.5822 13.5756 17.5822 13.6156C17.5822 13.7056 17.5822 13.8457 17.5622 14.0158C17.5422 14.356 17.4923 14.8262 17.4123 15.3265C17.2324 16.397 16.8926 17.4376 16.3428 17.9879C15.7331 18.5982 15.0135 18.9184 14.4238 19.0785C14.3538 19.0985 14.2839 19.1085 14.2239 19.1285C13.8941 18.4982 13.2444 18.0579 12.4848 18.0579C11.4053 18.0579 10.5257 18.9384 10.5257 20.029C10.5257 21.1195 11.4053 22 12.4848 22C13.3243 22 14.034 21.4697 14.3138 20.7293C14.4738 20.6993 14.6437 20.6593 14.8336 20.6093C15.5932 20.3992 16.5927 19.9789 17.4523 19.1185C18.3718 18.188 18.7716 16.7072 18.9615 15.6066C19.0415 15.1164 19.0915 14.6861 19.1114 14.326H19.3513C20.8106 14.326 22 13.1353 22 11.6646V10.684C22 9.21327 20.8106 8.02264 19.3513 8.02264Z" fill="black"/>
</svg>
