<svg width="24" height="24" viewBox="0 0 24 24" fill="none" xmlns="http://www.w3.org/2000/svg">
<path d="M12 21C10.7661 21 9.60158 20.7635 8.50658 20.2904C7.41158 19.8174 6.45663 19.1733 5.64174 18.3583C4.82668 17.5434 4.18263 16.5884 3.70958 15.4934C3.23653 14.3984 3 13.2339 3 12C3 10.7563 3.23653 9.58934 3.70958 8.49924C4.18263 7.40913 4.82668 6.45663 5.64174 5.64174C6.45663 4.82668 7.41158 4.18263 8.50658 3.70958C9.60158 3.23653 10.7661 3 12 3C13.2437 3 14.4107 3.23653 15.5008 3.70958C16.5909 4.18263 17.5434 4.82668 18.3583 5.64174C19.1733 6.45663 19.8174 7.40913 20.2904 8.49924C20.7635 9.58934 21 10.7563 21 12C21 13.2339 20.7635 14.3984 20.2904 15.4934C19.8174 16.5884 19.1733 17.5434 18.3583 18.3583C17.5434 19.1733 16.5909 19.8174 15.5008 20.2904C14.4107 20.7635 13.2437 21 12 21ZM12 19.5588C12.4835 18.9176 12.8904 18.2709 13.2207 17.6186C13.551 16.9663 13.8201 16.2534 14.0278 15.4797H9.97216C10.1921 16.2777 10.4642 17.0028 10.7886 17.6551C11.1127 18.3073 11.5165 18.9419 12 19.5588ZM10.1654 19.2983C9.80226 18.7772 9.47613 18.1849 9.18703 17.5213C8.89792 16.8575 8.67324 16.1769 8.51297 15.4797H5.29926C5.79963 16.4635 6.47068 17.2901 7.31242 17.9594C8.15416 18.6286 9.10516 19.0749 10.1654 19.2983ZM13.8346 19.2983C14.8948 19.0749 15.8458 18.6286 16.6876 17.9594C17.5293 17.2901 18.2004 16.4635 18.7007 15.4797H15.487C15.2963 16.1829 15.0564 16.8665 14.7673 17.5303C14.4783 18.1941 14.1674 18.7834 13.8346 19.2983ZM4.70337 14.0586H8.22521C8.16568 13.7065 8.1225 13.3613 8.09566 13.0229C8.06897 12.6847 8.05563 12.3437 8.05563 12C8.05563 11.6563 8.06897 11.3153 8.09566 10.9771C8.1225 10.6387 8.16568 10.2935 8.22521 9.94137H4.70337C4.61226 10.2632 4.54247 10.5977 4.494 10.9451C4.44537 11.2925 4.42105 11.6441 4.42105 12C4.42105 12.3559 4.44537 12.7075 4.494 13.0549C4.54247 13.4023 4.61226 13.7368 4.70337 14.0586ZM9.64603 14.0586H14.354C14.4133 13.7065 14.4564 13.3644 14.4833 13.0322C14.51 12.6999 14.5233 12.3559 14.5233 12C14.5233 11.6441 14.51 11.3001 14.4833 10.9678C14.4564 10.6356 14.4133 10.2935 14.354 9.94137H9.64603C9.58666 10.2935 9.54355 10.6356 9.51671 10.9678C9.49003 11.3001 9.47668 11.6441 9.47668 12C9.47668 12.3559 9.49003 12.6999 9.51671 13.0322C9.54355 13.3644 9.58666 13.7065 9.64603 14.0586ZM15.7748 14.0586H19.2966C19.3877 13.7368 19.4575 13.4023 19.506 13.0549C19.5546 12.7075 19.5789 12.3559 19.5789 12C19.5789 11.6441 19.5546 11.2925 19.506 10.9451C19.4575 10.5977 19.3877 10.2632 19.2966 9.94137H15.7748C15.8343 10.2935 15.8775 10.6387 15.9043 10.9771C15.931 11.3153 15.9444 11.6563 15.9444 12C15.9444 12.3437 15.931 12.6847 15.9043 13.0229C15.8775 13.3613 15.8343 13.7065 15.7748 14.0586ZM15.487 8.52032H18.7007C18.1944 7.52432 17.5279 6.69774 16.7013 6.04058C15.8747 5.38358 14.9192 4.93421 13.8346 4.69247C14.1977 5.24384 14.5208 5.84692 14.8037 6.50171C15.0868 7.15634 15.3146 7.82921 15.487 8.52032ZM9.97216 8.52032H14.0278C13.8079 7.72832 13.5313 6.99861 13.1979 6.33118C12.8645 5.66376 12.4652 5.03376 12 4.44118C11.5348 5.03376 11.1355 5.66376 10.8021 6.33118C10.4687 6.99861 10.1921 7.72832 9.97216 8.52032ZM5.29926 8.52032H8.51297C8.68539 7.82921 8.91316 7.15634 9.19626 6.50171C9.47921 5.84692 9.80226 5.24384 10.1654 4.69247C9.07468 4.93421 8.11761 5.38516 7.29418 6.04532C6.47061 6.70532 5.80563 7.53032 5.29926 8.52032Z" fill="black"/>
</svg>
