<svg width="24" height="24" viewBox="0 0 24 24" fill="none" xmlns="http://www.w3.org/2000/svg">
<path fill-rule="evenodd" clip-rule="evenodd" d="M19.18 2H11.88C11.4 2 11 2.3998 11 2.88956C11 3.37931 11.39 3.77911 11.88 3.77911H19.18C19.77 3.77911 20.25 4.26887 20.25 4.85857V19.1414C20.25 19.7411 19.77 20.2209 19.18 20.2209H11.88C11.4 20.2209 11 20.6207 11 21.1104C11 21.6002 11.39 22 11.88 22H19.18C20.74 22 22 20.7206 22 19.1414V4.85857C22 3.27936 20.74 2 19.18 2Z" fill="black"/>
<path fill-rule="evenodd" clip-rule="evenodd" d="M12.57 15.4233C12.23 15.7831 12.23 16.3628 12.57 16.7226C12.92 17.0825 13.47 17.0825 13.82 16.7226L17.75 12.6447C18.1 12.2849 18.1 11.7051 17.75 11.3453L13.82 7.26737C13.48 6.90755 12.92 6.90755 12.57 7.26737C12.23 7.62719 12.23 8.2069 12.57 8.56672L15.01 11.0955H2.88C2.39 11.0955 2 11.4953 2 11.995C2 12.4948 2.4 12.8946 2.88 12.8946H15L12.56 15.4233H12.57Z" fill="black"/>
</svg>
