<svg width="24" height="24" viewBox="0 0 24 24" fill="none" xmlns="http://www.w3.org/2000/svg">
<path d="M5.39996 18.9998H3.61799C2.87461 18.9998 2.39111 18.2175 2.72356 17.5526L7.05232 8.89505C7.43027 8.13915 8.51732 8.16384 8.86056 8.93612L9.80172 11.0537C9.92682 11.3352 9.91522 11.6587 9.77026 11.9305L6.28231 18.4704C6.10851 18.7962 5.76927 18.9998 5.39996 18.9998Z" fill="#161616"/>
<path d="M20.3819 18.9998H9.61799C8.87461 18.9998 8.39111 18.2175 8.72356 17.5526L14.1055 6.78863C14.4741 6.05158 15.5259 6.05158 15.8944 6.78863L21.2763 17.5526C21.6088 18.2175 21.1253 18.9998 20.3819 18.9998Z" fill="#161616"/>
</svg>
