<svg width="24" height="24" viewBox="0 0 24 24" fill="none" xmlns="http://www.w3.org/2000/svg">
<path d="M13.457 16.7273H10.3633V8H13.4826C14.3604 8 15.1161 8.17472 15.7496 8.52415C16.3832 8.87074 16.8704 9.36932 17.2113 10.0199C17.555 10.6705 17.7269 11.4489 17.7269 12.3551C17.7269 13.2642 17.555 14.0455 17.2113 14.6989C16.8704 15.3523 16.3803 15.8537 15.7411 16.2031C15.1048 16.5526 14.3434 16.7273 13.457 16.7273ZM12.2085 15.1463H13.3803C13.9258 15.1463 14.3846 15.0497 14.7567 14.8565C15.1317 14.6605 15.413 14.358 15.6005 13.9489C15.7908 13.5369 15.886 13.0057 15.886 12.3551C15.886 11.7102 15.7908 11.1832 15.6005 10.7741C15.413 10.3651 15.1332 10.0639 14.761 9.87074C14.3889 9.67756 13.93 9.58097 13.3846 9.58097H12.2085V15.1463Z" fill="black"/>
<path d="M8.84517 8V16.7273H7V8H8.84517Z" fill="black"/>
<path fill-rule="evenodd" clip-rule="evenodd" d="M4.58824 3.41176C3.93849 3.41176 3.41176 3.93849 3.41176 4.58824V9.29412C3.41176 9.68397 3.09573 10 2.70588 10C2.31603 10 2 9.68397 2 9.29412V4.58824C2 3.15879 3.15879 2 4.58824 2H9.29412C9.68397 2 10 2.31603 10 2.70588C10 3.09573 9.68397 3.41176 9.29412 3.41176H4.58824Z" fill="black"/>
<path fill-rule="evenodd" clip-rule="evenodd" d="M19.4118 3.41176C20.0615 3.41176 20.5882 3.93849 20.5882 4.58824V9.29412C20.5882 9.68397 20.9043 10 21.2941 10C21.684 10 22 9.68397 22 9.29412V4.58824C22 3.15879 20.8412 2 19.4118 2H14.7059C14.316 2 14 2.31603 14 2.70588C14 3.09573 14.316 3.41176 14.7059 3.41176H19.4118Z" fill="black"/>
<path fill-rule="evenodd" clip-rule="evenodd" d="M4.58824 20.5882C3.93849 20.5882 3.41176 20.0615 3.41176 19.4118V14.7059C3.41176 14.316 3.09573 14 2.70588 14C2.31603 14 2 14.316 2 14.7059V19.4118C2 20.8412 3.15879 22 4.58824 22H9.29412C9.68397 22 10 21.684 10 21.2941C10 20.9043 9.68397 20.5882 9.29412 20.5882H4.58824Z" fill="black"/>
<path fill-rule="evenodd" clip-rule="evenodd" d="M19.4118 20.5882C20.0615 20.5882 20.5882 20.0615 20.5882 19.4118V14.7059C20.5882 14.316 20.9043 14 21.2941 14C21.684 14 22 14.316 22 14.7059V19.4118C22 20.8412 20.8412 22 19.4118 22H14.7059C14.316 22 14 21.684 14 21.2941C14 20.9043 14.316 20.5882 14.7059 20.5882H19.4118Z" fill="black"/>
</svg>
