<svg width="24" height="24" viewBox="0 0 24 24" fill="none" xmlns="http://www.w3.org/2000/svg">
<path fill-rule="evenodd" clip-rule="evenodd" d="M17.991 4H11.4942V4.02001C11.1943 4.04001 10.8845 4.07002 10.5946 4.13004C9.6351 4.3001 8.69556 4.65022 7.85598 5.1604C6.48665 5.99069 5.39718 7.21111 4.73751 8.66161C4.05784 10.1121 3.84795 11.7327 4.10782 13.3132C4.32771 14.6637 4.90743 15.9141 5.75701 16.9745L4.36769 18.365C4.01786 18.7151 4.01786 19.2853 4.36769 19.6354C4.71752 19.9855 5.28724 19.9855 5.63707 19.6354L7.01639 18.2549C7.96592 19.0152 9.08537 19.5554 10.2848 19.8155C11.844 20.1556 13.4732 20.0255 14.9625 19.4253C16.4517 18.8351 17.7211 17.8048 18.6207 16.4843C19.1804 15.664 19.5702 14.7537 19.7901 13.7934C19.8901 13.3732 19.94 12.9331 19.97 12.5029H20V6.00069C20 4.90031 19.1004 4 18.001 4H17.991ZM17.1414 15.494C16.4418 16.5243 15.4522 17.3246 14.3028 17.7848C13.1534 18.2449 11.884 18.355 10.6746 18.0849C9.80502 17.8948 9.00541 17.5147 8.29576 16.9945L13.6331 11.6526C13.983 11.3025 13.983 10.7323 13.6331 10.3822C13.2833 10.0321 12.7136 10.0321 12.3638 10.3822L7.02638 15.7241C6.43667 14.9338 6.03687 14.0135 5.87695 13.0331C5.67705 11.8027 5.83697 10.5423 6.35671 9.42187C6.87646 8.29148 7.71604 7.34116 8.78552 6.70093C9.74505 6.12073 10.8345 5.83063 11.954 5.82063H18.2009V12.2428C18.1609 13.4033 17.8011 14.5436 17.1514 15.504L17.1414 15.494Z" fill="black"/>
</svg>
