<svg width="24" height="24" viewBox="0 0 24 24" fill="none" xmlns="http://www.w3.org/2000/svg">
<path fill-rule="evenodd" clip-rule="evenodd" d="M20.0001 6.01C20.0001 4.9 19.1001 4 18.0001 4H12.0301C12.0301 4 12.0101 4 12.0001 4C11.9901 4 11.9801 4 11.9701 4C7.56006 4.02 4.00006 7.59 4.00006 12C4.00006 13.83 4.62006 15.52 5.66006 16.87L4.26006 18.27C3.91006 18.62 3.91006 19.19 4.26006 19.54C4.61006 19.89 5.18006 19.89 5.53006 19.54L6.90006 18.17C8.28006 19.31 10.0601 20 11.9901 20C16.4101 20 19.9901 16.42 19.9901 12C19.9901 12 19.9901 11.99 19.9901 11.98C19.9901 11.98 19.9901 11.97 19.9901 11.96V6.01H20.0001ZM13.5301 11.54L9.53006 15.54L8.99006 16C8.64006 16.35 8.07006 16.35 7.72006 16C7.37006 15.65 7.37006 15.08 7.72006 14.73L12.2501 10.27C12.6001 9.92 13.1701 9.92 13.5201 10.27C13.8701 10.62 13.8701 11.19 13.5201 11.54H13.5301Z" fill="black"/>
</svg>
