<svg width="24" height="24" viewBox="0 0 24 24" fill="none" xmlns="http://www.w3.org/2000/svg">
<path fill-rule="evenodd" clip-rule="evenodd" d="M8.31884 8.27036C7.95631 7.90988 7.36852 7.90988 7.00598 8.27036L2.57795 12.6733C1.34333 13.901 2.21774 16 3.96374 16H21.0717C21.5844 16 22 15.5867 22 15.0769C22 14.5671 21.5844 14.1538 21.0717 14.1538H3.96374C3.9277 14.1538 3.91302 14.145 3.90547 14.1397C3.89371 14.1314 3.87878 14.1153 3.86845 14.0905C3.85811 14.0657 3.85723 14.0439 3.85969 14.0298C3.86127 14.0207 3.86532 14.0041 3.89081 13.9788L8.31884 9.57579C8.68138 9.21531 8.68138 8.63085 8.31884 8.27036Z" fill="black"/>
</svg>
