<svg width="24" height="24" viewBox="0 0 24 24" fill="none" xmlns="http://www.w3.org/2000/svg">
<path fill-rule="evenodd" clip-rule="evenodd" d="M3.8 4.8V9.2H8.2V4.8H3.8ZM3 3C2.44772 3 2 3.44772 2 4V10C2 10.5523 2.44772 11 3 11H9C9.55228 11 10 10.5523 10 10V4C10 3.44772 9.55228 3 9 3H3Z" fill="black"/>
<path fill-rule="evenodd" clip-rule="evenodd" d="M3.8 14.8V19.2H8.2V14.8H3.8ZM3 13C2.44772 13 2 13.4477 2 14V20C2 20.5523 2.44772 21 3 21H9C9.55228 21 10 20.5523 10 20V14C10 13.4477 9.55228 13 9 13H3Z" fill="black"/>
<path fill-rule="evenodd" clip-rule="evenodd" d="M12 6.79C12 6.35369 12.3537 6 12.79 6H21.21C21.6463 6 22 6.35369 22 6.79C22 7.22631 21.6463 7.58 21.21 7.58H12.79C12.3537 7.58 12 7.22631 12 6.79Z" fill="black"/>
<path fill-rule="evenodd" clip-rule="evenodd" d="M12 16.9C12 16.4029 12.4029 16 12.9 16H21.1C21.5971 16 22 16.4029 22 16.9C22 17.3971 21.5971 17.8 21.1 17.8H12.9C12.4029 17.8 12 17.3971 12 16.9Z" fill="black"/>
</svg>
