<svg width="24" height="24" viewBox="0 0 24 24" fill="none" xmlns="http://www.w3.org/2000/svg">
<path d="M11.995 12.0012C12.5454 12.0012 13.0156 11.8012 13.4059 11.4112C13.7961 11.0211 13.9962 10.5511 13.9962 10.001C13.9962 9.45093 13.7961 8.98087 13.4059 8.59082C13.0156 8.20077 12.5454 8.00075 11.995 8.00075C11.4447 8.00075 10.9744 8.20077 10.5842 8.59082C10.194 8.98087 9.99388 9.45093 9.99388 10.001C9.99388 10.5511 10.194 11.0211 10.5842 11.4112C10.9744 11.8012 11.4447 12.0012 11.995 12.0012ZM11.5048 20.2023C11.7749 20.4523 12.2152 20.4523 12.4853 20.2023C14.4465 18.4421 15.9774 16.7418 17.058 15.1216C18.2287 13.3614 18.809 11.8212 18.809 10.4911C18.809 8.49081 18.1586 6.85061 16.8479 5.57045C15.5471 4.28028 13.9262 3.6402 11.995 3.6402C10.0639 3.6402 8.44297 4.28028 7.14221 5.57045C5.84145 6.86061 5.18107 8.50081 5.18107 10.4911C5.18107 11.8112 5.76141 13.3614 6.93209 15.1216C8.01272 16.7518 9.53361 18.4421 11.5048 20.2023ZM13.656 21.3624C12.7255 22.2125 11.2646 22.2125 10.3441 21.3624C8.3229 19.5222 6.75198 17.782 5.62133 16.1418C4.2005 14.0815 3.50009 12.1913 3.50009 10.4811C3.49008 7.96074 4.33057 5.91049 6.01155 4.35029C7.69253 2.7801 9.6937 2 11.995 2C14.2964 2 16.2976 2.7801 17.9785 4.35029C19.6595 5.91049 20.5 7.96074 20.5 10.4911C20.5 12.2113 19.7896 14.1015 18.3788 16.1518C17.2481 17.782 15.6772 19.5222 13.656 21.3724V21.3624Z" fill="black"/>
</svg>
