<svg width="24" height="24" viewBox="0 0 24 24" fill="none" xmlns="http://www.w3.org/2000/svg">
<path fill-rule="evenodd" clip-rule="evenodd" d="M19.941 13.1838H19.2614V10.6583C19.2614 9.52026 18.3418 8.5919 17.2124 8.5919H16.5327V6.06635C16.5327 4.92836 15.6132 4 14.4838 4H4.04898C2.91954 4.00998 2 4.93834 2 6.07634V9.74985C2 10.8878 2.91954 11.8162 4.04898 11.8162H4.72864V14.3418C4.72864 15.4797 5.64818 16.4081 6.77761 16.4081H7.45727V18.9336C7.45727 20.0716 8.37681 21 9.50625 21H19.951C21.0805 21 22 20.0716 22 18.9336V15.2601C22 14.1221 21.0805 13.1938 19.951 13.1938L19.941 13.1838ZM4.74863 10.4287H4.04898C3.66917 10.4287 3.36932 10.1192 3.36932 9.73987V6.06635C3.36932 5.68702 3.67916 5.37757 4.04898 5.37757H14.4938C14.8736 5.37757 15.1734 5.68702 15.1734 6.06635V8.5919H6.76762C5.71814 8.5919 4.85857 9.40047 4.74863 10.4287ZM7.47726 15.0206H6.77761C6.3978 15.0206 6.09795 14.7111 6.09795 14.3318V10.6583C6.09795 10.2789 6.4078 9.96947 6.77761 9.96947H17.2224C17.6022 9.96947 17.902 10.2789 17.902 10.6583V13.1838H9.49625C8.44678 13.1838 7.58721 13.9924 7.47726 15.0206ZM20.6307 18.9137C20.6307 19.293 20.3208 19.6025 19.951 19.6025H9.49625C9.11644 19.6025 8.81659 19.293 8.81659 18.9137V15.2402C8.81659 14.8608 9.12644 14.5514 9.49625 14.5514H19.941C20.3208 14.5514 20.6207 14.8608 20.6207 15.2402V18.9137H20.6307Z" fill="black"/>
<path fill-rule="evenodd" clip-rule="evenodd" d="M7.22739 7.91309V6.99472C7.22739 6.74516 7.02749 6.53553 6.77761 6.53553H5.86807C5.61819 6.53553 5.41829 6.74516 5.41829 6.99472V7.91309C5.41829 8.16265 5.61819 8.37228 5.86807 8.37228H6.77761C7.02749 8.37228 7.22739 8.16265 7.22739 7.91309Z" fill="black"/>
<path fill-rule="evenodd" clip-rule="evenodd" d="M9.94603 12.495V11.5766C9.94603 11.3271 9.74613 11.1174 9.49625 11.1174H8.58671C8.33683 11.1174 8.13693 11.3271 8.13693 11.5766V12.495C8.13693 12.7446 8.33683 12.9542 8.58671 12.9542H9.49625C9.74613 12.9542 9.94603 12.7446 9.94603 12.495Z" fill="black"/>
<path fill-rule="evenodd" clip-rule="evenodd" d="M11.7651 16.1685H10.8556C10.6057 16.1685 10.4058 16.3782 10.4058 16.6277V17.5461C10.4058 17.7957 10.6057 18.0053 10.8556 18.0053H11.7651C12.015 18.0053 12.2149 17.7957 12.2149 17.5461V16.6277C12.2149 16.3782 12.015 16.1685 11.7651 16.1685Z" fill="black"/>
<path fill-rule="evenodd" clip-rule="evenodd" d="M9.04648 7.91309H12.6847C12.9345 7.91309 13.1344 7.70346 13.1344 7.4539C13.1344 7.20435 12.9345 6.99472 12.6847 6.99472H9.04648C8.7966 6.99472 8.5967 7.20435 8.5967 7.4539C8.5967 7.70346 8.7966 7.91309 9.04648 7.91309Z" fill="black"/>
<path fill-rule="evenodd" clip-rule="evenodd" d="M11.7651 12.495H15.4033C15.6532 12.495 15.8531 12.2854 15.8531 12.0358C15.8531 11.7863 15.6532 11.5766 15.4033 11.5766H11.7651C11.5152 11.5766 11.3153 11.7863 11.3153 12.0358C11.3153 12.2854 11.5152 12.495 11.7651 12.495Z" fill="black"/>
<path fill-rule="evenodd" clip-rule="evenodd" d="M18.1319 16.1685H14.4938C14.2439 16.1685 14.044 16.3782 14.044 16.6277C14.044 16.8773 14.2439 17.0869 14.4938 17.0869H18.1319C18.3818 17.0869 18.5817 16.8773 18.5817 16.6277C18.5817 16.3782 18.3818 16.1685 18.1319 16.1685Z" fill="black"/>
</svg>
