<svg width="24" height="24" viewBox="0 0 24 24" fill="none" xmlns="http://www.w3.org/2000/svg">
<path d="M12 12C12.55 12 13.02 11.8 13.41 11.41C13.8 11.02 14 10.55 14 10C14 9.45 13.8 8.98 13.41 8.59C13.02 8.2 12.55 8 12 8C11.45 8 10.98 8.2 10.59 8.59C10.2 8.98 10 9.45 10 10C10 10.55 10.2 11.02 10.59 11.41C10.98 11.8 11.45 12 12 12ZM13.24 21.53C12.52 22.16 11.47 22.16 10.75 21.53C8.53 19.57 6.82 17.73 5.62 16C4.2 13.97 3.5 12.1 3.5 10.4C3.5 7.89 4.34 5.87 6.02 4.32C7.7 2.77 9.7 2 12 2C14.3 2 16.3 2.77 17.98 4.32C19.66 5.87 20.5 7.89 20.5 10.39C20.5 12.09 19.79 13.96 18.38 15.99C17.18 17.72 15.47 19.56 13.25 21.52L13.24 21.53Z" fill="black"/>
</svg>
