<svg width="24" height="24" viewBox="0 0 24 24" fill="none" xmlns="http://www.w3.org/2000/svg">
<g clip-path="url(#clip0_246_1073)">
<path d="M7.4275 17.901C7.31755 17.8711 7.20759 17.8212 7.10764 17.7713L7.02767 17.7313C6.87774 17.6514 6.7378 17.5416 6.61785 17.4218V17.4018H6.59786L6.57787 17.3819L2.58963 13.3982C1.80997 12.6194 1.80997 11.3514 2.58963 10.5727L6.58787 6.58896C7.36752 5.81019 8.63697 5.81019 9.41662 6.58896L12.0055 9.17486L14.5943 6.58896C15.374 5.81019 16.6434 5.81019 17.4231 6.58896L21.4213 10.5826C22.161 11.3215 22.201 12.4996 21.5213 13.2983C21.4913 13.3383 21.4513 13.3782 21.4213 13.4082L17.4331 17.3819H17.4231C16.7134 18.1107 15.5739 18.1806 14.7743 17.5616L14.7243 17.5216V17.5117L14.6943 17.4817V17.4717V17.4617V17.4518L12.0755 14.8359L9.48659 17.4218C8.96682 17.941 8.20716 18.1307 7.50746 17.921L7.4275 17.901ZM15.9937 13.1586L17.1632 11.9904L15.9937 10.8223L14.8242 11.9904L15.9937 13.1586ZM7.99725 13.1586L9.16673 11.9904L7.99725 10.8223L6.82776 11.9904L7.99725 13.1586Z" fill="#161616"/>
</g>
<defs>
<clipPath id="clip0_246_1073">
<rect width="20" height="12" fill="white" transform="translate(2 6)"/>
</clipPath>
</defs>
</svg>
