<svg width="24" height="24" viewBox="0 0 24 24" fill="none" xmlns="http://www.w3.org/2000/svg">
<path fill-rule="evenodd" clip-rule="evenodd" d="M21.1398 19.2H4.00982C3.53982 19.2 3.14982 19.6 3.14982 20.1C3.14982 20.6 3.52982 21 4.00982 21H21.1398C21.6098 21 21.9998 20.6 21.9998 20.1C21.9998 19.6 21.6198 19.2 21.1398 19.2Z" fill="black"/>
<path fill-rule="evenodd" clip-rule="evenodd" d="M21.1398 13.12H8.28982C7.81982 13.12 7.42982 13.52 7.42982 14.02C7.42982 14.52 7.80982 14.92 8.28982 14.92H21.1398C21.6098 14.92 21.9998 14.52 21.9998 14.02C21.9998 13.52 21.6198 13.12 21.1398 13.12Z" fill="black"/>
<path fill-rule="evenodd" clip-rule="evenodd" d="M6.98982 12.65C7.31982 12.29 7.31982 11.72 6.98982 11.36L4.62982 8.85H21.1398C21.6098 8.85 21.9998 8.45 21.9998 7.95C21.9998 7.45 21.6198 7.05 21.1398 7.05H4.64982L6.99982 4.56C7.32982 4.2 7.32982 3.63 6.99982 3.27C6.66982 2.91 6.11982 2.91 5.78982 3.27L2.44982 6.82C1.85982 7.45 1.85982 8.48 2.44982 9.11L5.78982 12.66C6.11982 13.02 6.66982 13.02 6.99982 12.66L6.98982 12.65Z" fill="black"/>
</svg>
