<svg width="24" height="24" viewBox="0 0 24 24" fill="none" xmlns="http://www.w3.org/2000/svg">
<path d="M13 6.5C13 7.32843 12.3284 8 11.5 8C10.6716 8 10 7.32843 10 6.5C10 5.67157 10.6716 5 11.5 5C12.3284 5 13 5.67157 13 6.5Z" fill="#161616"/>
<path d="M13 12.5C13 13.3284 12.3284 14 11.5 14C10.6716 14 10 13.3284 10 12.5C10 11.6716 10.6716 11 11.5 11C12.3284 11 13 11.6716 13 12.5Z" fill="#161616"/>
<path d="M13 18.5C13 19.3284 12.3284 20 11.5 20C10.6716 20 10 19.3284 10 18.5C10 17.6716 10.6716 17 11.5 17C12.3284 17 13 17.6716 13 18.5Z" fill="#161616"/>
</svg>
