<svg width="24" height="24" viewBox="0 0 24 24" fill="none" xmlns="http://www.w3.org/2000/svg">
<path fill-rule="evenodd" clip-rule="evenodd" d="M7 10.25C7 9.83579 7.3198 9.5 7.71429 9.5H16.2857C16.6802 9.5 17 9.83579 17 10.25C17 10.6642 16.6802 11 16.2857 11H7.71429C7.3198 11 7 10.6642 7 10.25Z" fill="black"/>
<path fill-rule="evenodd" clip-rule="evenodd" d="M7 13.25C7 12.8358 7.3198 12.5 7.71429 12.5H16.2857C16.6802 12.5 17 12.8358 17 13.25C17 13.6642 16.6802 14 16.2857 14H7.71429C7.3198 14 7 13.6642 7 13.25Z" fill="black"/>
<path fill-rule="evenodd" clip-rule="evenodd" d="M7 16.25C7 15.8358 7.3198 15.5 7.71429 15.5H16.2857C16.6802 15.5 17 15.8358 17 16.25C17 16.6642 16.6802 17 16.2857 17H7.71429C7.3198 17 7 16.6642 7 16.25Z" fill="black"/>
<path d="M18.17 4H5.83C4.27 4 3 5.27 3 6.84V17.16C3 18.73 4.27 20 5.83 20H18.17C19.73 20 21 18.73 21 17.16V6.84C21 5.27 19.73 4 18.17 4ZM18.17 18.45H5.83C5.12 18.45 4.54 17.87 4.54 17.16V7.87H19.45V17.16C19.45 17.87 18.87 18.45 18.16 18.45H18.17Z" fill="black"/>
</svg>
