<svg width="24" height="24" viewBox="0 0 24 24" fill="none" xmlns="http://www.w3.org/2000/svg">
<path fill-rule="evenodd" clip-rule="evenodd" d="M12.1439 6.24432C13.0175 5.34786 14.4339 5.34786 15.3075 6.24432L17.3627 8.35332C18.2363 9.24978 18.2363 10.7032 17.3627 11.5997L11.6638 17.4478C10.7902 18.3443 9.3738 18.3442 8.50019 17.4478L6.44498 15.3388C5.57138 14.4423 5.57138 12.9889 6.44498 12.0924L12.1439 6.24432ZM14.253 7.32645C13.9618 7.02763 13.4897 7.02763 13.1985 7.32645L7.49952 13.1745C7.20831 13.4734 7.20831 13.9578 7.49951 14.2567L9.55473 16.3657C9.84593 16.6645 10.3181 16.6645 10.6093 16.3657L16.3082 10.5176C16.5994 10.2188 16.5994 9.73427 16.3082 9.43545L14.253 7.32645Z" fill="#161616"/>
<path fill-rule="evenodd" clip-rule="evenodd" d="M19.4833 12.2129C19.2907 12.1667 19.0882 12.2008 18.9201 12.3078L15.7927 14.2995C15.4428 14.5224 15.3352 14.9941 15.5523 15.3532C15.7695 15.7122 16.2292 15.8227 16.5791 15.5998L18.2659 14.5256C17.9688 15.3622 17.4073 16.2827 16.6591 17.092C15.5154 18.3291 14.1643 19.0619 13.0708 18.9599C12.6607 18.9217 12.298 19.2319 12.2607 19.6527C12.2234 20.0736 12.5257 20.4458 12.9358 20.484C14.7052 20.649 16.4773 19.5122 17.741 18.1453C18.5773 17.2408 19.2906 16.1291 19.6796 15.0148L20.6207 16.5707C20.8378 16.9298 21.2975 17.0402 21.6474 16.8174C21.9973 16.5945 22.105 16.1228 21.8878 15.7637L19.9469 12.5545C19.8426 12.3821 19.6759 12.2592 19.4833 12.2129Z" fill="#161616"/>
<path fill-rule="evenodd" clip-rule="evenodd" d="M11.4888 4.26515C11.4888 3.84255 11.155 3.49998 10.7432 3.5C9.14756 3.50006 7.40526 4.60533 6.11674 5.92753C5.33724 6.7274 4.6351 7.69771 4.202 8.70204L3.40725 7.13518C3.21712 6.76032 2.76685 6.61461 2.40155 6.80972C2.03625 7.00483 1.89425 7.46688 2.08439 7.84174L3.78377 11.1921C3.87508 11.3721 4.03234 11.5076 4.22094 11.5686C4.40955 11.6296 4.61406 11.6113 4.78948 11.5176L8.05443 9.77373C8.41973 9.57862 8.56173 9.11656 8.37159 8.7417C8.18145 8.36684 7.73118 8.22113 7.36588 8.41624L5.53538 9.39395C5.85671 8.61629 6.42727 7.77311 7.17126 7.00967C8.35531 5.79466 9.73623 5.0304 10.7432 5.03036C11.155 5.03034 11.4889 4.68775 11.4888 4.26515Z" fill="#161616"/>
</svg>
