<svg width="24" height="24" viewBox="0 0 24 24" fill="none" xmlns="http://www.w3.org/2000/svg">
<path fill-rule="evenodd" clip-rule="evenodd" d="M10.1247 2.63233C11.211 1.78922 12.789 1.78922 13.8753 2.63234L21.3094 8.40214C21.747 8.74174 22 9.24481 22 9.77529V19.2126C22 20.1997 21.1407 21 20.0808 21H3.91919C2.85925 21 2 20.1997 2 19.2126V9.77529C2 9.24481 2.25299 8.74174 2.69056 8.40214L10.1247 2.63233ZM12.7113 3.93321C12.2993 3.61341 11.7007 3.61341 11.2887 3.93321L3.85453 9.70301C3.8315 9.72089 3.81818 9.74737 3.81818 9.77529V19.2126C3.81818 19.2645 3.86341 19.3066 3.91919 19.3066H20.0808C20.1366 19.3066 20.1818 19.2645 20.1818 19.2126V9.77529C20.1818 9.74737 20.1685 9.72089 20.1455 9.70302L12.7113 3.93321Z" fill="black"/>
<path fill-rule="evenodd" clip-rule="evenodd" d="M18.914 10.5152C19.1219 10.9676 18.9399 11.5106 18.5076 11.728L12.2233 14.8891C11.9186 15.0424 11.5626 15.0365 11.2628 14.873L5.46754 11.715C5.04208 11.4832 4.87681 10.9343 5.0984 10.4892C5.32 10.044 5.84454 9.87113 6.27 10.103L11.7703 13.1003L17.7549 10.09C18.1872 9.87248 18.7062 10.0629 18.914 10.5152Z" fill="black"/>
</svg>
