<svg width="24" height="24" viewBox="0 0 24 24" fill="none" xmlns="http://www.w3.org/2000/svg">
<path fill-rule="evenodd" clip-rule="evenodd" d="M2 7.74324C2 6.22819 3.31149 5 4.92929 5H19.0707C20.6885 5 22 6.22819 22 7.74324V16.2568C22 17.7718 20.6885 19 19.0707 19H4.92929C3.31149 19 2 17.7718 2 16.2568V7.74324ZM4.92929 6.7027C4.31564 6.7027 3.81818 7.16857 3.81818 7.74324V16.2568C3.81818 16.8314 4.31564 17.2973 4.92929 17.2973H19.0707C19.6844 17.2973 20.1818 16.8314 20.1818 16.2568V7.74324C20.1818 7.16857 19.6844 6.7027 19.0707 6.7027H4.92929Z" fill="black"/>
<path fill-rule="evenodd" clip-rule="evenodd" d="M18.914 8.51522C19.1219 8.96757 18.9399 9.51057 18.5076 9.72804L12.2233 12.8891C11.9186 13.0424 11.5626 13.0365 11.2628 12.873L5.46754 9.71501C5.04208 9.48316 4.87681 8.93435 5.0984 8.4892C5.32 8.04405 5.84454 7.87113 6.27 8.10298L11.7703 11.1003L17.7549 8.08995C18.1872 7.87248 18.7062 8.06288 18.914 8.51522Z" fill="black"/>
</svg>
