<svg width="24" height="24" viewBox="0 0 24 24" fill="none" xmlns="http://www.w3.org/2000/svg">
<path d="M20.4375 21C20.2687 21 20.1112 20.9212 20.01 20.7975L18.3 18.7613H9.75C8.5125 18.7613 7.51125 17.76 7.5 16.5225V15.285H14.25C16.1062 15.285 17.6138 13.7887 17.625 11.9325V7.57875H18.75C19.9875 7.57875 20.9888 8.58 21 9.8175V20.4375C21 20.6737 20.8538 20.8763 20.6287 20.9662C20.5725 20.9888 20.505 21 20.4375 21ZM3.5625 16.41C3.495 16.41 3.4275 16.3988 3.37125 16.3763C3.14625 16.2975 3 16.0837 3 15.8475V5.23875C3 4.00125 4.0125 3 5.25 3H14.25C15.4875 3 16.4888 4.00125 16.5 5.23875V11.9437C16.5 13.1812 15.4875 14.1825 14.25 14.1825H5.7L3.99 16.2188C3.88875 16.3425 3.73125 16.4213 3.5625 16.4213V16.41ZM13.125 7.46625C12.5063 7.46625 12 7.96125 12 8.58C12 9.19875 12.5063 9.69375 13.125 9.69375C13.7437 9.69375 14.25 9.19875 14.25 8.58C14.25 7.96125 13.7437 7.46625 13.125 7.46625ZM9.75 7.46625C9.13125 7.46625 8.625 7.96125 8.625 8.58C8.625 9.19875 9.13125 9.69375 9.75 9.69375C10.3688 9.69375 10.875 9.19875 10.875 8.58C10.875 7.96125 10.3688 7.46625 9.75 7.46625ZM6.375 7.46625C5.75625 7.46625 5.25 7.96125 5.25 8.58C5.25 9.19875 5.75625 9.69375 6.375 9.69375C6.99375 9.69375 7.5 9.19875 7.5 8.58C7.5 7.96125 6.99375 7.46625 6.375 7.46625Z" fill="#161616"/>
</svg>
