<svg width="24" height="24" viewBox="0 0 24 24" fill="none" xmlns="http://www.w3.org/2000/svg">
<path d="M19.58 13.11C18.24 13.11 17.16 14.2 17.16 15.55C17.16 16.9 18.24 17.99 19.58 17.99C20.92 17.99 22 16.9 22 15.55C22 14.2 20.92 13.11 19.58 13.11ZM19.58 16.67C18.97 16.67 18.48 16.17 18.48 15.56C18.48 14.95 18.97 14.45 19.58 14.45C20.19 14.45 20.68 14.95 20.68 15.56C20.68 16.17 20.19 16.67 19.58 16.67Z" fill="black"/>
<path d="M6.19 9.7H8.07C8.4 9.7 8.67 9.43 8.67 9.1C8.67 8.77 8.4 8.5 8.07 8.5H6.19C5.86 8.5 5.59 8.77 5.59 9.1C5.59 9.43 5.86 9.7 6.19 9.7Z" fill="black"/>
<path d="M18.48 11.56V6.67C18.48 6.3 18.18 6 17.82 6H15.18C14.82 6 14.52 6.3 14.52 6.67C14.52 7.04 14.82 7.34 15.18 7.34H17.16V11.4L15.65 14.45H12.32V12.45C12.32 12.45 12.32 12.45 11.66 12.45H12.32V12.42C12.32 12.4 12.32 12.38 12.32 12.35C12.32 12.3 12.32 12.22 12.31 12.13C12.29 11.95 12.26 11.7 12.2 11.44C12.13 11.19 12.03 10.88 11.84 10.61C11.64 10.33 11.34 10.07 10.9 10C10.46 9.93 9.63 9.93 8.97 9.95C8.63 9.95 8.3 9.97 8.07 9.98C7.95 9.98 7.86 9.98 7.79 9.99H7.68C7.61 9.99 7.54 10.01 7.48 10.03C7.19 10.14 6.89 10.31 6.6 10.5C6.56 10.21 6.32 9.99 6.02 9.99H4.14C3.81 9.99 3.54 10.26 3.54 10.59C3.54 10.92 3.81 11.19 4.14 11.19H5.75C4.9 12.07 4.27 13.38 4.42 15.16C4.45 15.51 4.73 15.77 5.08 15.77H6.64C6.66 16.01 6.71 16.26 6.8 16.48C6.92 16.78 7.1 17.05 7.32 17.27C7.54 17.5 7.81 17.68 8.1 17.8C8.39 17.92 8.71 17.99 9.03 17.99C9.35 17.99 9.66 17.93 9.96 17.8C10.25 17.68 10.52 17.5 10.74 17.27C10.96 17.04 11.14 16.77 11.26 16.48C11.35 16.25 11.4 16.01 11.42 15.77H16.06C16.31 15.77 16.54 15.63 16.65 15.4L18.41 11.84C18.46 11.75 18.48 11.65 18.48 11.54V11.56ZM10.05 15.98C9.99 16.11 9.91 16.24 9.81 16.34C9.71 16.44 9.59 16.53 9.45 16.58C9.32 16.64 9.17 16.66 9.03 16.66C8.89 16.66 8.74 16.63 8.61 16.58C8.48 16.52 8.36 16.44 8.25 16.34C8.15 16.24 8.07 16.11 8.01 15.98C7.98 15.92 7.98 15.85 7.97 15.78H10.08C10.07 15.85 10.07 15.92 10.04 15.98H10.05ZM11.01 14.44H5.72C5.81 12.73 6.89 11.73 7.85 11.32C7.91 11.32 8 11.32 8.11 11.31C8.34 11.31 8.65 11.29 8.99 11.28C9.69 11.26 10.39 11.27 10.68 11.32C10.68 11.32 10.71 11.32 10.76 11.39C10.82 11.47 10.87 11.6 10.92 11.77C10.96 11.94 10.99 12.11 11 12.24C11 12.3 11 12.36 11 12.39C11 12.41 11 12.42 11 12.43V14.44H11.01Z" fill="black"/>
<path d="M4.67 9.7C5.01 9.7 5.29 9.43 5.29 9.1C5.29 8.77 5.01 8.5 4.67 8.5C4.33 8.5 4.05 8.77 4.05 9.1C4.05 9.43 4.33 9.7 4.67 9.7Z" fill="black"/>
<path d="M2.62 10C2.28 10 2 10.27 2 10.6C2 10.93 2.28 11.2 2.62 11.2C2.96 11.2 3.24 10.93 3.24 10.6C3.24 10.27 2.96 10 2.62 10Z" fill="black"/>
</svg>
