<svg width="24" height="24" viewBox="0 0 24 24" fill="none" xmlns="http://www.w3.org/2000/svg">
<path d="M21.99 9.89488C21.99 9.16857 21.62 8.53305 21.05 8.17998L12.51 3.13618C12.2 2.95461 11.81 2.95461 11.5 3.13618L2.95 8.17998C2.38 8.53305 2 9.16857 2 9.89488V19.9825C2 21.0921 2.9 22 4 22H20C21.1 22 22 21.0921 22 19.9825V9.89488H21.99ZM12.53 14.6058C12.21 14.8075 11.79 14.8075 11.47 14.6058L3.88 9.82426C3.82 9.78391 3.82 9.69312 3.88 9.65277L11.49 5.1537C11.8 4.97213 12.19 4.97213 12.5 5.1537L20.11 9.65277C20.17 9.69312 20.18 9.78391 20.11 9.82426L12.52 14.6058H12.53Z" fill="black"/>
</svg>
