<svg width="24" height="24" viewBox="0 0 24 24" fill="none" xmlns="http://www.w3.org/2000/svg">
<path fill-rule="evenodd" clip-rule="evenodd" d="M19.9968 19.201H2.86032C2.39015 19.201 2 19.6008 2 20.1005C2 20.6002 2.38014 21 2.86032 21H19.9968C20.4669 21 20.8571 20.6002 20.8571 20.1005C20.8571 19.6008 20.4769 19.201 19.9968 19.201Z" fill="black"/>
<path fill-rule="evenodd" clip-rule="evenodd" d="M2.89033 14.9334H15.6851C16.1553 14.9334 16.5355 14.5336 16.5355 14.0339C16.5355 13.5341 16.1553 13.1344 15.6851 13.1344H2.89033C2.42016 13.1344 2.04002 13.5341 2.04002 14.0339C2.04002 14.5336 2.42016 14.9334 2.89033 14.9334Z" fill="black"/>
<path fill-rule="evenodd" clip-rule="evenodd" d="M21.5573 6.81788L18.2161 3.26985C17.886 2.91005 17.3358 2.91005 17.0056 3.26985C16.6755 3.62965 16.6755 4.19933 17.0056 4.55913L19.3565 7.04775H2.86032C2.39015 7.04775 2 7.45752 2 7.95725C2 8.45697 2.38014 8.86674 2.86032 8.86674H19.3565L17.0056 11.3554C16.6755 11.7152 16.6755 12.2848 17.0056 12.6446C17.3358 13.0044 17.886 13.0044 18.2161 12.6446L21.5573 9.09661C22.1476 8.46696 22.1476 7.43753 21.5573 6.80788V6.81788Z" fill="black"/>
</svg>
