<svg width="24" height="24" viewBox="0 0 24 24" fill="none" xmlns="http://www.w3.org/2000/svg">
<path fill-rule="evenodd" clip-rule="evenodd" d="M17.81 3.86004L15.4 5.02004C15.06 5.19004 14.66 5.20004 14.31 5.06004L9.73 3.22004C8.99 2.92004 8.15 2.93004 7.42 3.26004L3.7 4.89004C2.67 5.34004 2 6.34004 2 7.44004V16.45C2 18.39 4 19.74 5.88 19.08L8.16 18.28C8.44 18.18 8.74 18.18 9.03 18.27L13.98 19.87C14.57 20.06 15.22 20.06 15.81 19.87L20.02 18.51C21.2 18.13 22 17.06 22 15.86V6.36004C22 4.28004 19.74 2.93004 17.81 3.86004ZM5.34 17.64C4.48 17.94 3.57 17.33 3.57 16.44V7.43004C3.57 6.93004 3.87 6.48004 4.34 6.27004L7.99 4.67004V16.74C7.86 16.77 7.73 16.8 7.61 16.84L5.33 17.64H5.34ZM9.52 16.81C9.52 16.81 9.5 16.81 9.49 16.81C9.49 16.8 9.49 16.79 9.49 16.78V4.78004L13.69 6.47004C13.79 6.51004 13.89 6.53004 13.99 6.56004V18.26L9.51 16.82L9.52 16.81ZM20.42 15.85C20.42 16.4 20.06 16.88 19.52 17.06L15.5 18.36V6.60004C15.71 6.55004 15.91 6.48004 16.11 6.39004L18.52 5.23004C19.39 4.81004 20.42 5.42004 20.42 6.37004V15.85Z" fill="black"/>
</svg>
