<svg width="24" height="24" viewBox="0 0 24 24" fill="none" xmlns="http://www.w3.org/2000/svg">
<path fill-rule="evenodd" clip-rule="evenodd" d="M12.1219 7.07342C12.9974 6.20298 14.4168 6.20299 15.2923 7.07342L17.2091 8.97923C18.0846 9.84966 18.0846 11.2609 17.2091 12.1314L11.7657 17.5435C10.8902 18.4139 9.47078 18.4139 8.59531 17.5435L6.67847 15.6377C5.80299 14.7672 5.80299 13.356 6.67846 12.4855L12.1219 7.07342ZM14.2355 8.12413C13.9437 7.83398 13.4705 7.83398 13.1787 8.12413L7.73525 13.5363C7.44343 13.8264 7.44343 14.2968 7.73525 14.587L9.65209 16.4928C9.94392 16.7829 10.4171 16.7829 10.7089 16.4928L16.1523 11.0806C16.4442 10.7905 16.4442 10.3201 16.1523 10.0299L14.2355 8.12413Z" fill="#161616"/>
<path fill-rule="evenodd" clip-rule="evenodd" d="M11.9631 4.81671C11.9882 5.01218 11.9341 5.20953 11.8129 5.36537L9.63263 8.16651C9.38006 8.49102 8.91071 8.55051 8.58433 8.29939C8.25794 8.04826 8.1981 7.58162 8.45068 7.25711L9.58078 5.80516C8.78898 6.0156 7.90214 6.4542 7.09452 7.07217C5.82231 8.04563 5.00763 9.26165 4.99447 10.3066C4.9893 10.7169 4.65058 11.0453 4.23791 11.0402C3.82524 11.035 3.49489 10.6983 3.50006 10.288C3.52174 8.56688 4.7723 6.97404 6.18302 5.8946C7.10196 5.19145 8.19886 4.62084 9.27148 4.34948L7.94719 3.33057C7.6208 3.07945 7.56097 2.61281 7.81354 2.2883C8.06612 1.96379 8.53546 1.9043 8.86185 2.15542L11.6792 4.3231C11.8359 4.44369 11.9381 4.62125 11.9631 4.81671Z" fill="#161616"/>
<path fill-rule="evenodd" clip-rule="evenodd" d="M19.7528 12.8182C20.1655 12.8182 20.5 13.1508 20.5 13.5612C20.4999 15.1066 19.4518 16.7894 18.2029 18.0311C17.4603 18.7694 16.5608 19.4373 15.6267 19.8574L17.0576 20.5978C17.4237 20.7873 17.566 21.2359 17.3755 21.5999C17.1849 21.9639 16.7337 22.1054 16.3676 21.9159L13.2076 20.2806C13.0318 20.1896 12.8996 20.033 12.84 19.845C12.7804 19.6571 12.7983 19.4533 12.8898 19.2786L14.5345 16.1367C14.7251 15.7728 15.1763 15.6313 15.5424 15.8207C15.9085 16.0102 16.0508 16.4588 15.8602 16.8228L14.9713 18.5208C15.6821 18.2088 16.4487 17.6738 17.1461 16.9804C18.2903 15.8428 19.0054 14.5201 19.0055 13.5611C19.0055 13.1508 19.3401 12.8182 19.7528 12.8182Z" fill="#161616"/>
</svg>
