<svg width="24" height="24" viewBox="0 0 24 24" fill="none" xmlns="http://www.w3.org/2000/svg">
<path fill-rule="evenodd" clip-rule="evenodd" d="M5.93989 9.55H10.4399C10.8099 9.55 11.1099 9.25 11.1099 8.88C11.1099 8.51 10.8099 8.21 10.4399 8.21H5.93989C5.56989 8.21 5.26989 8.51 5.26989 8.88C5.26989 9.25 5.56989 9.55 5.93989 9.55Z" fill="black"/>
<path fill-rule="evenodd" clip-rule="evenodd" d="M18.5299 13.11C17.1599 13.11 16.0599 14.2 16.0599 15.55C16.0599 16.9 17.1699 17.99 18.5299 17.99C19.8899 17.99 20.9999 16.9 20.9999 15.55C20.9999 14.2 19.8899 13.11 18.5299 13.11ZM18.5299 16.67C17.9099 16.67 17.4099 16.17 17.4099 15.56C17.4099 14.95 17.9099 14.45 18.5299 14.45C19.1499 14.45 19.6499 14.95 19.6499 15.56C19.6499 16.17 19.1499 16.67 18.5299 16.67Z" fill="black"/>
<path fill-rule="evenodd" clip-rule="evenodd" d="M17.3999 11.56V6.67C17.3999 6.3 17.0999 6 16.7299 6H14.0299C13.6599 6 13.3599 6.3 13.3599 6.67C13.3599 7.04 13.6599 7.34 14.0299 7.34H16.0499V11.4L14.5099 14.45H11.1099V12.45C11.1099 12.45 11.1099 12.45 10.4399 12.45H11.1099V12.42C11.1099 12.42 11.1099 12.38 11.1099 12.35C11.1099 12.3 11.1099 12.22 11.0999 12.13C11.0799 11.95 11.0499 11.7 10.9799 11.44C10.9099 11.19 10.7999 10.88 10.6099 10.61C10.4099 10.33 10.0999 10.07 9.64989 10C9.19989 9.93 8.34989 9.93 7.66989 9.95C7.31989 9.95 6.98989 9.97 6.74989 9.98C6.62989 9.98 6.52989 9.98 6.45989 9.99H6.34989C6.27989 9.99 6.20989 10.01 6.14989 10.03C4.60989 10.62 2.77989 12.29 3.01989 15.17C3.04989 15.52 3.33989 15.78 3.68989 15.78H5.28989C5.30989 16.02 5.35989 16.27 5.45989 16.49C5.57989 16.79 5.76989 17.06 5.99989 17.28C6.22989 17.5 6.49989 17.69 6.79989 17.81C7.09989 17.93 7.41989 18 7.74989 18C8.07989 18 8.39989 17.94 8.69989 17.81C8.99989 17.69 9.26989 17.51 9.49989 17.28C9.72989 17.05 9.90989 16.78 10.0399 16.49C10.1399 16.26 10.1799 16.02 10.2099 15.78H14.9499C15.2099 15.78 15.4399 15.64 15.5499 15.41L17.3499 11.85C17.3999 11.76 17.4199 11.66 17.4199 11.55L17.3999 11.56ZM8.77989 15.98C8.71989 16.11 8.63989 16.24 8.53989 16.34C8.43989 16.44 8.30989 16.53 8.17989 16.58C8.03989 16.64 7.89989 16.66 7.74989 16.66C7.59989 16.66 7.45989 16.63 7.31989 16.58C7.17989 16.52 7.05989 16.44 6.95989 16.34C6.85989 16.24 6.76989 16.11 6.71989 15.98C6.68989 15.92 6.68989 15.85 6.67989 15.78H8.83989C8.82989 15.85 8.82989 15.92 8.79989 15.98H8.77989ZM9.75989 14.44H4.34989C4.43989 12.73 5.54989 11.73 6.52989 11.32C6.59989 11.32 6.68989 11.32 6.79989 11.31C7.02989 11.31 7.34989 11.29 7.69989 11.28C8.40989 11.26 9.12989 11.27 9.41989 11.32C9.41989 11.32 9.44989 11.32 9.49989 11.39C9.55989 11.47 9.61989 11.6 9.65989 11.77C9.69989 11.94 9.72989 12.11 9.73989 12.24C9.73989 12.3 9.73989 12.36 9.74989 12.39C9.74989 12.41 9.74989 12.42 9.74989 12.43V14.44H9.75989Z" fill="black"/>
</svg>
