<svg width="24" height="24" viewBox="0 0 24 24" fill="none" xmlns="http://www.w3.org/2000/svg">
<path fill-rule="evenodd" clip-rule="evenodd" d="M2 5.9C2 5.40294 2.38745 5 2.86538 5H21.1346C21.6126 5 22 5.40294 22 5.9C22 6.39706 21.6126 6.8 21.1346 6.8H2.86538C2.38745 6.8 2 6.39706 2 5.9Z" fill="black"/>
<path fill-rule="evenodd" clip-rule="evenodd" d="M2 11.9C2 11.4029 2.38745 11 2.86538 11H21.1346C21.6126 11 22 11.4029 22 11.9C22 12.3971 21.6126 12.8 21.1346 12.8H2.86538C2.38745 12.8 2 12.3971 2 11.9Z" fill="black"/>
<path fill-rule="evenodd" clip-rule="evenodd" d="M2 17.9C2 17.4029 2.38745 17 2.86538 17H21.1346C21.6126 17 22 17.4029 22 17.9C22 18.3971 21.6126 18.8 21.1346 18.8H2.86538C2.38745 18.8 2 18.3971 2 17.9Z" fill="black"/>
</svg>
