<svg width="24" height="24" viewBox="0 0 24 24" fill="none" xmlns="http://www.w3.org/2000/svg">
<path d="M10.65 21.4421C11.02 21.8105 11.47 22 12 22C12.53 22 12.97 21.8211 13.35 21.4526C13.72 21.0842 13.91 20.6421 13.91 20.1158H10.1C10.1 20.6316 10.29 21.0737 10.66 21.4421H10.65Z" fill="black"/>
<path d="M20.5 18.2947C20.5 17.9158 20.24 17.6105 19.91 17.5368V17.5158H19.79C19.79 17.5158 19.77 17.5158 19.76 17.5158C19.75 17.5158 19.74 17.5158 19.73 17.5158H18V9.73684C18 8.33684 17.56 7.09474 16.69 6.02105C15.81 4.94737 14.69 4.25263 13.32 3.95789V3.30526C13.32 2.94737 13.19 2.63158 12.93 2.37895C12.67 2.12632 12.36 2 12 2C11.64 2 11.32 2.12632 11.07 2.37895C10.81 2.63158 10.69 2.93684 10.69 3.30526V3.95789C9.32 4.26316 8.19 4.94737 7.32 6.02105C6.44 7.09474 6.01 8.33684 6.01 9.73684V17.5158H4.27C4.27 17.5158 4.25 17.5158 4.24 17.5158C4.23 17.5158 4.22 17.5158 4.21 17.5158H4.09V17.5368C3.75 17.6105 3.5 17.9158 3.5 18.2947C3.5 18.6737 3.76 18.9789 4.09 19.0526V19.0737H4.19C4.19 19.0737 4.22 19.0737 4.24 19.0737C4.26 19.0737 4.27 19.0737 4.29 19.0737H19.71C19.71 19.0737 19.74 19.0737 19.76 19.0737C19.78 19.0737 19.79 19.0737 19.81 19.0737H19.91V19.0526C20.25 18.9789 20.5 18.6737 20.5 18.2947ZM16.42 17.5158H7.58V9.73684C7.58 8.52632 8.01 7.50526 8.87 6.65263C9.73 5.8 10.77 5.36842 12 5.36842C13.23 5.36842 14.26 5.8 15.13 6.65263C15.99 7.50526 16.42 8.53684 16.42 9.73684V17.5158Z" fill="black"/>
<path fill-rule="evenodd" clip-rule="evenodd" d="M8.2373 3.86144C8.16082 3.45435 7.76881 3.18634 7.36172 3.26282C5.42332 3.62699 4.04272 5.2942 3.73773 7.52219C3.68156 7.93258 3.9687 8.3108 4.37909 8.36698C4.78947 8.42316 5.1677 8.13601 5.22387 7.72563C5.46138 5.99057 6.46917 4.95675 7.63868 4.73703C8.04577 4.66055 8.31378 4.26854 8.2373 3.86144Z" fill="black"/>
<path fill-rule="evenodd" clip-rule="evenodd" d="M15.8717 3.85349C15.9708 3.45129 16.3771 3.20552 16.7793 3.30456C18.6944 3.77612 19.98 5.51763 20.1604 7.75915C20.1937 8.17203 19.8859 8.53367 19.473 8.56691C19.0601 8.60014 18.6985 8.29238 18.6653 7.8795C18.5248 6.13391 17.5761 5.04557 16.4207 4.76106C16.0185 4.66202 15.7727 4.25569 15.8717 3.85349Z" fill="black"/>
</svg>
