<svg width="24" height="24" viewBox="0 0 24 24" fill="none" xmlns="http://www.w3.org/2000/svg">
<path d="M18.1307 9.65195C18.1307 8.25976 17.719 7.03016 16.9055 5.96316C16.092 4.89616 15.0433 4.2153 13.7495 3.93077V3.29057C13.7495 2.9349 13.6319 2.63004 13.3869 2.37599C13.1516 2.12194 12.8576 2 12.5146 2C12.1715 2 11.8873 2.12194 11.6423 2.37599C11.407 2.63004 11.2796 2.9349 11.2796 3.29057V3.93077C10.8189 4.03239 10.3779 4.18482 9.96624 4.40838C9.55459 4.63194 9.17234 4.89616 8.82929 5.21118L18.1307 14.9362V9.65195Z" fill="black"/>
<path d="M20.8064 20.698L4.26191 3.39219C3.97767 3.08733 3.50721 3.08733 3.21318 3.39219C2.92894 3.68688 2.92894 4.17466 3.21318 4.46935L7.03567 8.463C6.95726 8.85932 6.90825 9.25563 6.90825 9.65195V17.3445H5.13422C4.73237 17.3445 4.39913 17.69 4.39913 18.1168C4.39913 18.5436 4.72257 18.879 5.13422 18.8892H16.9545L19.7381 21.7752C20.0321 22.08 20.4928 22.0698 20.7868 21.7752C21.0711 21.4805 21.0711 20.9927 20.7868 20.698H20.8064Z" fill="black"/>
<path d="M11.26 21.2366C11.6129 21.6024 12.0245 21.7853 12.5146 21.7853C13.0046 21.7853 13.4261 21.6024 13.7691 21.2366C14.122 20.8707 14.2886 20.4338 14.2886 19.9155H10.7209C10.7209 20.4338 10.8974 20.8707 11.2404 21.2366H11.26Z" fill="black"/>
</svg>
