<svg width="24" height="24" viewBox="0 0 24 24" fill="none" xmlns="http://www.w3.org/2000/svg">
<path d="M10.61 21.4503C10.98 21.8201 11.42 22 11.93 22C12.44 22 12.89 21.8201 13.25 21.4503C13.62 21.0805 13.8 20.6407 13.8 20.1209H10.05C10.05 20.6407 10.23 21.0805 10.6 21.4503H10.61Z" fill="black"/>
<path d="M20.49 18.2919C20.49 17.8721 20.14 17.5322 19.7 17.5122H17.84V9.73613C17.84 8.33683 17.41 7.09745 16.55 6.01799C15.69 4.93853 14.59 4.24888 13.24 3.94903V3.29935C13.24 2.93953 13.11 2.62969 12.86 2.37981C12.61 2.12994 12.3 2 11.94 2C11.58 2 11.28 2.12994 11.02 2.37981C10.77 2.62969 10.64 2.93953 10.64 3.29935V3.94903C9.29 4.24888 8.19 4.93853 7.33 6.01799C6.47 7.09745 6.04 8.33683 6.04 9.73613V17.5122H4.17V17.5322C3.79 17.5922 3.5 17.902 3.5 18.2819C3.5 18.6617 3.79 18.9715 4.17 19.0315V19.0615H19.71C20.15 19.0415 20.5 18.7016 20.5 18.2819L20.49 18.2919Z" fill="black"/>
</svg>
