<svg width="24" height="24" viewBox="0 0 24 24" fill="none" xmlns="http://www.w3.org/2000/svg">
<path fill-rule="evenodd" clip-rule="evenodd" d="M18.1825 3.14805C20.0578 2.53961 22 3.88246 22 5.78753V15.3951C22 17.3002 20.0578 18.643 18.1825 18.0346L12.8632 16.3088V18.4778C12.8632 19.8708 11.6901 21 10.2431 21C8.79609 21 7.62304 19.8708 7.62304 18.4778V14.8426H5.67435C5.01968 14.8426 4.10105 14.612 3.33643 13.9422C2.54516 13.249 2 12.1575 2 10.5913C2 9.02508 2.54516 7.93361 3.33643 7.24046C4.10105 6.57064 5.01968 6.34004 5.67435 6.34004H8.78875C9.02848 6.16826 9.2985 6.03043 9.59211 5.93517L18.1825 3.14805ZM7.68457 8.00148H5.67435C5.39188 8.00148 4.9048 8.11293 4.49801 8.46928C4.11786 8.80229 3.72589 9.4211 3.72589 10.5913C3.72589 11.7615 4.11786 12.3803 4.49801 12.7134C4.9048 13.0697 5.39188 13.1812 5.67435 13.1812H7.68457C7.64399 12.9953 7.6228 12.8034 7.6228 12.608V8.57466C7.6228 8.37923 7.64399 8.18737 7.68457 8.00148ZM9.34893 15.1567C9.428 15.1902 9.50912 15.2205 9.59211 15.2475L11.1373 15.7488V18.4778C11.1373 18.9532 10.737 19.3386 10.2431 19.3386C9.74927 19.3386 9.34893 18.9532 9.34893 18.4778V15.1567ZM20.2741 5.78753C20.2741 5.01882 19.4904 4.47697 18.7337 4.72248L10.1433 7.5096C9.97445 7.56439 9.82587 7.65346 9.70396 7.76722C9.4814 7.97492 9.34869 8.26368 9.34869 8.57466V12.608C9.34869 12.9189 9.4814 13.2077 9.70396 13.4154C9.82587 13.5292 9.97445 13.6182 10.1433 13.673L18.7337 16.4602C19.4904 16.7057 20.2741 16.1638 20.2741 15.3951V5.78753Z" fill="#161616"/>
</svg>
