<svg width="24" height="24" viewBox="0 0 24 24" fill="none" xmlns="http://www.w3.org/2000/svg">
<path fill-rule="evenodd" clip-rule="evenodd" d="M12.12 20.23H4.82C4.23 20.23 3.75 19.74 3.75 19.15V4.86C3.75 4.26 4.23 3.78 4.82 3.78H12.12C12.6 3.78 13 3.38 13 2.89C13 2.4 12.61 2 12.12 2H4.82C3.26 2 2 3.28 2 4.86V19.15C2 20.73 3.26 22.01 4.82 22.01H12.12C12.6 22.01 13 21.61 13 21.12C13 20.63 12.61 20.23 12.12 20.23Z" fill="black"/>
<path fill-rule="evenodd" clip-rule="evenodd" d="M21.74 11.35L17.81 7.27C17.47 6.91 16.91 6.91 16.56 7.27C16.22 7.63 16.22 8.21 16.56 8.57L19 11.1H6.88C6.39 11.1 6 11.5 6 12C6 12.5 6.4 12.9 6.88 12.9H19L16.56 15.43C16.22 15.79 16.22 16.37 16.56 16.73C16.91 17.09 17.46 17.09 17.81 16.73L21.74 12.65C22.09 12.29 22.09 11.71 21.74 11.35Z" fill="black"/>
</svg>
