<svg width="24" height="24" viewBox="0 0 24 24" fill="none" xmlns="http://www.w3.org/2000/svg">
<path fill-rule="evenodd" clip-rule="evenodd" d="M19.7801 10.8058L17.8413 8.84438C17.5615 8.55416 17.1018 8.55416 16.812 8.84438C16.5222 9.13459 16.5322 9.59494 16.812 9.88516L17.4916 10.5757H12.4747V6.49262C12.4747 6.05229 12.1849 5.66199 11.7651 5.55191L7.89756 4.4711H13.4441C13.574 4.4711 13.6839 4.58118 13.6839 4.71128V8.63422C13.6839 9.04453 14.0137 9.36477 14.4135 9.36477C14.8132 9.36477 15.143 9.03452 15.143 8.63422V4.71128C15.143 3.76057 14.3835 3 13.4441 3H5.69894C4.75953 3 4 3.77058 4 4.71128V17.4508C4 18.4015 4.75953 19.1621 5.69894 19.1621L11.2155 20.9534C11.8451 21.1536 12.4847 20.6832 12.4847 20.0228V19.1621H13.4541C14.3935 19.1621 15.153 18.3915 15.153 17.4508V14.0183C15.153 13.6079 14.8232 13.2877 14.4235 13.2877C14.0237 13.2877 13.6939 13.618 13.6939 14.0183V17.4508C13.6939 17.5909 13.584 17.691 13.4541 17.691H12.4847V12.0668H17.5016L16.822 12.7573C16.5422 13.0475 16.5422 13.5079 16.822 13.7981C17.1018 14.0883 17.5615 14.0883 17.8513 13.7981L19.7901 11.8366C20.07 11.5464 20.07 11.0861 19.7901 10.7958L19.7801 10.8058Z" fill="black"/>
</svg>
