<svg width="24" height="24" viewBox="0 0 24 24" fill="none" xmlns="http://www.w3.org/2000/svg">
<path d="M19.8779 21C17.8826 21 15.8779 20.5361 13.8641 19.6082C11.8504 18.6803 10.0001 17.3714 8.31344 15.6815C6.62691 13.9915 5.31971 12.1412 4.39182 10.1306C3.46394 8.12029 3 6.11744 3 4.12209C3 3.80144 3.10588 3.53426 3.31765 3.32056C3.52941 3.10685 3.79412 3 4.11176 3H7.56512C7.83247 3 8.06832 3.08727 8.27268 3.26179C8.47703 3.43615 8.607 3.65162 8.66259 3.90821L9.26956 7.02353C9.31156 7.31259 9.30274 7.56097 9.24309 7.76868C9.18326 7.97638 9.07597 8.15082 8.92121 8.292L6.47585 10.6725C6.86938 11.3932 7.31903 12.075 7.82479 12.7179C8.33038 13.3606 8.87779 13.9744 9.46703 14.5594C10.048 15.1406 10.6656 15.6802 11.32 16.1784C11.9743 16.6766 12.6809 17.1401 13.4397 17.5691L15.8157 15.1725C15.9814 15.0001 16.1821 14.8792 16.4177 14.8099C16.6531 14.7407 16.8978 14.7237 17.1517 14.759L20.0918 15.3578C20.3591 15.4284 20.5774 15.5648 20.7464 15.767C20.9155 15.9693 21 16.1987 21 16.4553V19.8882C21 20.2059 20.8931 20.4706 20.6794 20.6824C20.4657 20.8941 20.1986 21 19.8779 21ZM5.72435 9.16976L7.61409 7.36156C7.64797 7.33438 7.67003 7.29706 7.68026 7.24959C7.6905 7.20212 7.68882 7.158 7.67524 7.11723L7.21491 4.75103C7.20132 4.69685 7.17759 4.65618 7.14371 4.629C7.10982 4.60182 7.06571 4.58824 7.01135 4.58824H4.74706C4.70629 4.58824 4.67232 4.60182 4.64515 4.629C4.61815 4.65618 4.60465 4.69015 4.60465 4.73091C4.65882 5.45444 4.77724 6.18944 4.95988 6.93591C5.14235 7.68256 5.39718 8.42718 5.72435 9.16976ZM14.9361 18.3204C15.6379 18.6476 16.3699 18.8977 17.1321 19.0708C17.8945 19.2438 18.6068 19.3466 19.2691 19.3792C19.3099 19.3792 19.3438 19.3656 19.371 19.3384C19.3982 19.3113 19.4118 19.2773 19.4118 19.2365V17.009C19.4118 16.9547 19.3982 16.9106 19.371 16.8767C19.3438 16.8428 19.3031 16.8191 19.249 16.8055L17.0254 16.3534C16.9847 16.3398 16.949 16.3381 16.9185 16.3483C16.888 16.3586 16.8557 16.3806 16.8216 16.4145L14.9361 18.3204Z" fill="black"/>
</svg>
