<svg width="24" height="24" viewBox="0 0 24 24" fill="none" xmlns="http://www.w3.org/2000/svg">
<path d="M19.8779 21C17.8826 21 15.8779 20.5361 13.8641 19.6082C11.8504 18.6803 9.99847 17.3714 8.30841 15.6815C6.62524 13.9915 5.31971 12.1412 4.39182 10.1306C3.46394 8.12029 3 6.11744 3 4.12209C3 3.80444 3.10588 3.53797 3.31765 3.32268C3.52941 3.10756 3.79412 3 4.11176 3H7.56512C7.83247 3 8.06832 3.08727 8.27268 3.26179C8.47703 3.43615 8.607 3.65162 8.66259 3.90821L9.26956 7.02353C9.31156 7.31259 9.30274 7.56097 9.24309 7.76868C9.18326 7.97638 9.07597 8.15082 8.92121 8.292L6.47585 10.6725C6.86938 11.3932 7.31903 12.075 7.82479 12.7179C8.33038 13.3606 8.87779 13.9744 9.46703 14.5594C10.048 15.1406 10.6656 15.6802 11.32 16.1784C11.9743 16.6766 12.6809 17.1401 13.4397 17.5691L15.8157 15.1725C15.9814 15.0001 16.1821 14.8792 16.4177 14.8099C16.6531 14.7407 16.8978 14.7237 17.1517 14.759L20.0918 15.3578C20.3591 15.4284 20.5774 15.5648 20.7464 15.767C20.9155 15.9693 21 16.1987 21 16.4553V19.8882C21 20.2059 20.8924 20.4706 20.6773 20.6824C20.462 20.8941 20.1956 21 19.8779 21Z" fill="black"/>
</svg>
