<svg width="24" height="24" viewBox="0 0 24 24" fill="none" xmlns="http://www.w3.org/2000/svg">
<path fill-rule="evenodd" clip-rule="evenodd" d="M19.8596 7.31L16.3075 3.03C15.7672 2.38 14.9667 2 14.1162 2H6.33167C4.77075 2 3.5 3.26 3.5 4.82V19.18C3.5 20.74 4.77075 22 6.33167 22H17.6683C19.2293 22 20.5 20.74 20.5 19.18V9.1C20.5 8.44 20.2699 7.81 19.8496 7.31H19.8596ZM15.2569 4.17L18.2287 7.75H16.5077C15.8172 7.75 15.2569 7.19 15.2569 6.5V4.17ZM18.9591 19.18C18.9591 19.89 18.3788 20.46 17.6683 20.46H6.33167C5.62125 20.46 5.04091 19.89 5.04091 19.18V4.82C5.04091 4.11 5.62125 3.54 6.33167 3.54H13.756V6.5C13.756 8.02 14.9868 9.25 16.5077 9.25H18.9591V19.18Z" fill="black"/>
<path fill-rule="evenodd" clip-rule="evenodd" d="M7.50235 10.75H14.5065C14.9167 10.75 15.2569 10.41 15.2569 10C15.2569 9.59 14.9167 9.25 14.5065 9.25H7.50235C7.09211 9.25 6.75191 9.59 6.75191 10C6.75191 10.41 7.09211 10.75 7.50235 10.75Z" fill="black"/>
<path fill-rule="evenodd" clip-rule="evenodd" d="M7.50235 12.25C7.09211 12.25 6.75191 12.59 6.75191 13C6.75191 13.41 7.09211 13.75 7.50235 13.75H16.5077C16.9179 13.75 17.2581 13.41 17.2581 13C17.2581 12.59 16.9179 12.25 16.5077 12.25H7.50235Z" fill="black"/>
<path fill-rule="evenodd" clip-rule="evenodd" d="M16.5077 15.25H7.50235C7.09211 15.25 6.75191 15.59 6.75191 16C6.75191 16.41 7.09211 16.75 7.50235 16.75H16.5077C16.9179 16.75 17.2581 16.41 17.2581 16C17.2581 15.59 16.9179 15.25 16.5077 15.25Z" fill="black"/>
</svg>
