<svg width="24" height="24" viewBox="0 0 24 24" fill="none" xmlns="http://www.w3.org/2000/svg">
<path fill-rule="evenodd" clip-rule="evenodd" d="M5.53092 15.7013C4.75069 16.6771 4.42753 17.9331 4.43493 18.9901L3.00016 19C2.99095 17.6849 3.3852 16.0945 4.40677 14.8169C5.44951 13.5128 7.10329 12.5905 9.4734 12.5905C11.7678 12.5905 13.404 13.5191 14.4514 14.8137C15.4792 16.0841 15.9134 17.6708 15.9134 18.9951H14.4786C14.4786 17.9473 14.1278 16.6876 13.3324 15.7045C12.5566 14.7456 11.3315 14.0138 9.4734 14.0138C7.52245 14.0138 6.29 14.752 5.53092 15.7013Z" fill="black"/>
<path fill-rule="evenodd" clip-rule="evenodd" d="M9.47363 8.32086C8.285 8.32086 7.32142 9.27666 7.32142 10.4557C7.32142 11.6347 8.28476 12.5905 9.4734 12.5905C10.662 12.5905 11.6258 11.6347 11.6258 10.4557C11.6258 9.27666 10.6623 8.32086 9.47363 8.32086ZM5.88662 10.4557C5.88662 8.49064 7.49258 6.89764 9.47363 6.89764C11.4547 6.89764 13.0606 8.49064 13.0606 10.4557C13.0606 12.4208 11.4544 14.0138 9.4734 14.0138C7.49234 14.0138 5.88662 12.4208 5.88662 10.4557Z" fill="black"/>
<path fill-rule="evenodd" clip-rule="evenodd" d="M19.9873 13.3887C20.8843 14.7576 21 16.3601 21 17.5718H19.5652C19.5652 16.4115 19.4417 15.1676 18.7843 14.1644C18.1558 13.2052 16.9486 12.336 14.4784 12.1132L14.6083 10.6958C17.3991 10.9475 19.0615 11.9759 19.9873 13.3887Z" fill="black"/>
<path fill-rule="evenodd" clip-rule="evenodd" d="M13.0053 5.43188C13.5603 5.13266 14.1852 4.98414 14.8166 5.00134C15.4481 5.01854 16.0638 5.20084 16.6014 5.52981C17.139 5.85878 17.5795 6.32275 17.8784 6.87479C18.1772 7.42683 18.3238 8.04736 18.3033 8.67363C18.2828 9.2999 18.0959 9.90969 17.7616 10.4413C17.4272 10.9729 16.9572 11.4076 16.3992 11.7012C15.8412 11.9949 15.2149 12.1371 14.5836 12.1136L14.6374 10.6914C15.0162 10.7055 15.392 10.6201 15.7268 10.444C16.0616 10.2678 16.3436 10.007 16.5442 9.68802C16.7448 9.36904 16.8569 9.00317 16.8693 8.62741C16.8816 8.25165 16.7936 7.87932 16.6143 7.5481C16.435 7.21687 16.1707 6.93849 15.8481 6.74111C15.5255 6.54373 15.1561 6.43435 14.7773 6.42403C14.3984 6.41371 14.0235 6.50282 13.6905 6.68235C13.3575 6.86188 13.0781 7.12546 12.8808 7.44643L11.6558 6.70533C11.9848 6.17039 12.4503 5.73109 13.0053 5.43188Z" fill="black"/>
</svg>
