<svg width="24" height="24" viewBox="0 0 24 24" fill="none" xmlns="http://www.w3.org/2000/svg">
<path fill-rule="evenodd" clip-rule="evenodd" d="M15.761 5.13226C15.5081 4.87938 15.0981 4.87938 14.8453 5.13226L12.0658 7.91171C11.6585 8.31899 11.1271 8.5789 10.5556 8.65034L5.75731 9.25012C5.22263 9.31696 4.99873 9.96951 5.37975 10.3505L13.2919 18.2627C13.6786 18.6494 14.3087 18.4295 14.4043 17.9514L15.3338 13.3039C15.4341 12.8025 15.6805 12.3419 16.0421 11.9804L18.8677 9.15474C19.1206 8.90187 19.1206 8.49187 18.8677 8.23899L15.761 5.13226ZM13.4716 3.75863C14.4831 2.74712 16.1231 2.74712 17.1346 3.75863L20.2414 6.86537C21.2529 7.87688 21.2529 9.51686 20.2414 10.5284L17.4157 13.354C17.3254 13.4444 17.2637 13.5595 17.2387 13.6849L16.3092 18.3323C15.8977 20.3899 13.36 21.0781 11.9183 19.6363L8.8278 16.5458L4.65811 20.7155C4.2788 21.0948 3.6638 21.0948 3.28449 20.7155C2.90517 20.3362 2.90517 19.7212 3.28449 19.3419L7.45417 15.1722L4.00613 11.7242C2.48205 10.2001 3.37763 7.58986 5.51636 7.32252L10.3146 6.72274C10.4575 6.70488 10.5904 6.6399 10.6922 6.53808L13.4716 3.75863Z" fill="black"/>
</svg>
