<svg width="24" height="24" viewBox="0 0 24 24" fill="none" xmlns="http://www.w3.org/2000/svg">
<path fill-rule="evenodd" clip-rule="evenodd" d="M12 11.4971C13.5709 11.4971 14.8444 10.1873 14.8444 8.57143C14.8444 6.9556 13.5709 5.64571 12 5.64571C10.4291 5.64571 9.15556 6.9556 9.15556 8.57143C9.15556 10.1873 10.4291 11.4971 12 11.4971ZM12 13.1429C14.4546 13.1429 16.4444 11.0962 16.4444 8.57143C16.4444 6.0467 14.4546 4 12 4C9.5454 4 7.55556 6.0467 7.55556 8.57143C7.55556 11.0962 9.5454 13.1429 12 13.1429Z" fill="black"/>
<path fill-rule="evenodd" clip-rule="evenodd" d="M12 13.4171C11.1595 13.4171 10.3273 13.5874 9.55083 13.9182C8.77434 14.2491 8.06881 14.7339 7.47452 15.3452C6.88022 15.9565 6.4088 16.6822 6.08717 17.4809C5.76554 18.2795 5.6 19.1355 5.6 20H4C4 18.9194 4.20693 17.8494 4.60896 16.8511C5.011 15.8527 5.60028 14.9456 6.34315 14.1815C7.08601 13.4174 7.96793 12.8113 8.93853 12.3978C9.90914 11.9843 10.9494 11.7714 12 11.7714C13.0506 11.7714 14.0909 11.9843 15.0615 12.3978C16.0321 12.8113 16.914 13.4174 17.6569 14.1815C18.3997 14.9456 18.989 15.8527 19.391 16.8511C19.7931 17.8494 20 18.9194 20 20H18.4C18.4 19.1355 18.2345 18.2795 17.9128 17.4808C17.5912 16.6822 17.1198 15.9565 16.5255 15.3452C15.9312 14.7339 15.2257 14.2491 14.4492 13.9182C13.6727 13.5874 12.8405 13.4171 12 13.4171Z" fill="black"/>
</svg>
