<svg width="24" height="24" viewBox="0 0 24 24" fill="none" xmlns="http://www.w3.org/2000/svg">
<path fill-rule="evenodd" clip-rule="evenodd" d="M4.58824 3.41176C3.93849 3.41176 3.41176 3.93849 3.41176 4.58824V9.29412C3.41176 9.68397 3.09573 10 2.70588 10C2.31603 10 2 9.68397 2 9.29412V4.58824C2 3.15879 3.15879 2 4.58824 2H9.29412C9.68397 2 10 2.31603 10 2.70588C10 3.09573 9.68397 3.41176 9.29412 3.41176H4.58824Z" fill="black"/>
<path fill-rule="evenodd" clip-rule="evenodd" d="M19.4118 3.41176C20.0615 3.41176 20.5882 3.93849 20.5882 4.58824V9.29412C20.5882 9.68397 20.9043 10 21.2941 10C21.684 10 22 9.68397 22 9.29412V4.58824C22 3.15879 20.8412 2 19.4118 2H14.7059C14.316 2 14 2.31603 14 2.70588C14 3.09573 14.316 3.41176 14.7059 3.41176H19.4118Z" fill="black"/>
<path fill-rule="evenodd" clip-rule="evenodd" d="M4.58824 20.5882C3.93849 20.5882 3.41176 20.0615 3.41176 19.4118V14.7059C3.41176 14.316 3.09573 14 2.70588 14C2.31603 14 2 14.316 2 14.7059V19.4118C2 20.8412 3.15879 22 4.58824 22H9.29412C9.68397 22 10 21.684 10 21.2941C10 20.9043 9.68397 20.5882 9.29412 20.5882H4.58824Z" fill="black"/>
<path fill-rule="evenodd" clip-rule="evenodd" d="M19.4118 20.5882C20.0615 20.5882 20.5882 20.0615 20.5882 19.4118V14.7059C20.5882 14.316 20.9043 14 21.2941 14C21.684 14 22 14.316 22 14.7059V19.4118C22 20.8412 20.8412 22 19.4118 22H14.7059C14.316 22 14 21.684 14 21.2941C14 20.9043 14.316 20.5882 14.7059 20.5882H19.4118Z" fill="black"/>
<path d="M12.8502 15.3723V8.09961H15.7195C16.2688 8.09961 16.7375 8.19786 17.1258 8.39435C17.5164 8.58848 17.8135 8.86429 18.0171 9.22177C18.2231 9.57688 18.326 9.99473 18.326 10.4753C18.326 10.9583 18.2219 11.3738 18.0135 11.7218C17.8052 12.0674 17.5034 12.3326 17.108 12.5172C16.715 12.7019 16.2392 12.7942 15.6805 12.7942H13.7593V11.5584H15.4319C15.7254 11.5584 15.9693 11.5182 16.1634 11.4377C16.3575 11.3572 16.5019 11.2364 16.5966 11.0755C16.6937 10.9145 16.7422 10.7144 16.7422 10.4753C16.7422 10.2338 16.6937 10.0302 16.5966 9.86452C16.5019 9.6988 16.3564 9.57333 16.1599 9.4881C15.9657 9.40051 15.7207 9.35671 15.4248 9.35671H14.3878V15.3723H12.8502ZM16.7778 12.0627L18.5853 15.3723H16.8878L15.1194 12.0627H16.7778Z" fill="black"/>
<path d="M8.27287 12.8438H9.57969L10.2366 13.6889L10.883 14.4418L12.101 15.9688H10.6663L9.82827 14.9389L9.39858 14.3281L8.27287 12.8438ZM12.2111 11.7358C12.2111 12.5289 12.0607 13.2036 11.7601 13.7599C11.4618 14.3163 11.0546 14.7412 10.5385 15.0348C10.0248 15.326 9.44711 15.4716 8.80554 15.4716C8.15923 15.4716 7.57921 15.3248 7.06548 15.0312C6.55175 14.7377 6.14574 14.3127 5.84744 13.7564C5.54915 13.2 5.4 12.5265 5.4 11.7358C5.4 10.9427 5.54915 10.268 5.84744 9.71165C6.14574 9.1553 6.55175 8.73153 7.06548 8.44034C7.57921 8.14678 8.15923 8 8.80554 8C9.44711 8 10.0248 8.14678 10.5385 8.44034C11.0546 8.73153 11.4618 9.1553 11.7601 9.71165C12.0607 10.268 12.2111 10.9427 12.2111 11.7358ZM10.6521 11.7358C10.6521 11.2221 10.5752 10.7888 10.4213 10.4361C10.2698 10.0833 10.0555 9.81581 9.77855 9.63352C9.50156 9.45123 9.17723 9.36009 8.80554 9.36009C8.43385 9.36009 8.10952 9.45123 7.83253 9.63352C7.55554 9.81581 7.3401 10.0833 7.18622 10.4361C7.03471 10.7888 6.95895 11.2221 6.95895 11.7358C6.95895 12.2495 7.03471 12.6828 7.18622 13.0355C7.3401 13.3883 7.55554 13.6558 7.83253 13.8381C8.10952 14.0204 8.43385 14.1115 8.80554 14.1115C9.17723 14.1115 9.50156 14.0204 9.77855 13.8381C10.0555 13.6558 10.2698 13.3883 10.4213 13.0355C10.5752 12.6828 10.6521 12.2495 10.6521 11.7358Z" fill="black"/>
</svg>
