<svg width="24" height="24" viewBox="0 0 24 24" fill="none" xmlns="http://www.w3.org/2000/svg">
<path fill-rule="evenodd" clip-rule="evenodd" d="M9 3.5H4C3.72386 3.5 3.5 3.72386 3.5 4V9C3.5 9.27614 3.72386 9.5 4 9.5H9C9.27614 9.5 9.5 9.27614 9.5 9V4C9.5 3.72386 9.27614 3.5 9 3.5ZM4 2C2.89543 2 2 2.89543 2 4V9C2 10.1046 2.89543 11 4 11H9C10.1046 11 11 10.1046 11 9V4C11 2.89543 10.1046 2 9 2H4Z" fill="black"/>
<path fill-rule="evenodd" clip-rule="evenodd" d="M9 14.5H4C3.72386 14.5 3.5 14.7239 3.5 15V20C3.5 20.2761 3.72386 20.5 4 20.5H9C9.27614 20.5 9.5 20.2761 9.5 20V15C9.5 14.7239 9.27614 14.5 9 14.5ZM4 13C2.89543 13 2 13.8954 2 15V20C2 21.1046 2.89543 22 4 22H9C10.1046 22 11 21.1046 11 20V15C11 13.8954 10.1046 13 9 13H4Z" fill="black"/>
<path fill-rule="evenodd" clip-rule="evenodd" d="M20 3.5H15C14.7239 3.5 14.5 3.72386 14.5 4V9C14.5 9.27614 14.7239 9.5 15 9.5H20C20.2761 9.5 20.5 9.27614 20.5 9V4C20.5 3.72386 20.2761 3.5 20 3.5ZM15 2C13.8954 2 13 2.89543 13 4V9C13 10.1046 13.8954 11 15 11H20C21.1046 11 22 10.1046 22 9V4C22 2.89543 21.1046 2 20 2H15Z" fill="black"/>
<path d="M20 13.5C20 13.2239 20.2239 13 20.5 13H21.5C21.7761 13 22 13.2239 22 13.5V14.5C22 14.7761 21.7761 15 21.5 15H20.5C20.2239 15 20 14.7761 20 14.5V13.5Z" fill="black"/>
<path d="M13 20.5C13 20.2239 13.2239 20 13.5 20H14.5C14.7761 20 15 20.2239 15 20.5V21.5C15 21.7761 14.7761 22 14.5 22H13.5C13.2239 22 13 21.7761 13 21.5V20.5Z" fill="black"/>
<path d="M19 19.6C19 19.2686 19.2686 19 19.6 19H21.4C21.7314 19 22 19.2686 22 19.6V21.4C22 21.7314 21.7314 22 21.4 22H19.6C19.2686 22 19 21.7314 19 21.4V19.6Z" fill="black"/>
<path d="M13 13.6C13 13.2686 13.2686 13 13.6 13H15.4C15.7314 13 16 13.2686 16 13.6V15.4C16 15.7314 15.7314 16 15.4 16H13.6C13.2686 16 13 15.7314 13 15.4V13.6Z" fill="black"/>
<path d="M15.7 16.4002C15.7 16.0136 16.0134 15.7002 16.4 15.7002H18.7C19.0866 15.7002 19.4 16.0136 19.4 16.4002V18.7002C19.4 19.0868 19.0866 19.4002 18.7 19.4002H16.4C16.0134 19.4002 15.7 19.0868 15.7 18.7002V16.4002Z" fill="black"/>
<path d="M4.5 5C4.5 4.72386 4.72386 4.5 5 4.5H8C8.27614 4.5 8.5 4.72386 8.5 5V8C8.5 8.27614 8.27614 8.5 8 8.5H5C4.72386 8.5 4.5 8.27614 4.5 8V5Z" fill="black"/>
<path d="M4.5 16C4.5 15.7239 4.72386 15.5 5 15.5H8C8.27614 15.5 8.5 15.7239 8.5 16V19C8.5 19.2761 8.27614 19.5 8 19.5H5C4.72386 19.5 4.5 19.2761 4.5 19V16Z" fill="black"/>
<path d="M15.5 5C15.5 4.72386 15.7239 4.5 16 4.5H19C19.2761 4.5 19.5 4.72386 19.5 5V8C19.5 8.27614 19.2761 8.5 19 8.5H16C15.7239 8.5 15.5 8.27614 15.5 8V5Z" fill="black"/>
</svg>
