<svg width="24" height="24" viewBox="0 0 24 24" fill="none" xmlns="http://www.w3.org/2000/svg">
<path fill-rule="evenodd" clip-rule="evenodd" d="M6.8586 4.39921C6.58065 4.39921 6.35484 4.63241 6.35484 4.90717V18.8426C6.35484 19.0239 6.54632 19.1359 6.69682 19.0426L7.06618 18.8137C7.61725 18.4723 8.31367 18.5094 8.8278 18.9076L9.66252 19.5541C9.73597 19.611 9.83546 19.6163 9.91419 19.5675L11.1868 18.779C11.6873 18.4688 12.3127 18.4688 12.8132 18.779L14.0858 19.5676C14.1645 19.6163 14.264 19.611 14.3375 19.5541L15.1722 18.9076C15.6863 18.5094 16.3827 18.4723 16.9338 18.8137L17.3032 19.0426C17.4537 19.1359 17.6452 19.0239 17.6452 18.8426V4.90717C17.6452 4.68343 17.5111 4.39921 17.2174 4.39921H6.8586ZM5 5.09882C5 3.69961 6.12903 3 7.06618 3H16.9677C18.3226 3 19 3.69961 19 5.09882V18.8426C19 20.1115 17.6597 20.8953 16.6061 20.2424L16.2368 20.0136C16.158 19.9648 16.0586 19.9701 15.9851 20.027L15.1504 20.6735C14.6362 21.0717 13.9398 21.1088 13.3888 20.7674L12.1162 19.9788C12.0447 19.9345 11.9553 19.9345 11.8838 19.9788L10.6112 20.7674C10.0602 21.1088 9.36375 21.0717 8.84962 20.6735L8.01489 20.027C7.94145 19.9701 7.84196 19.9648 7.76323 20.0136L7.39388 20.2424C6.34034 20.8953 5 20.1115 5 18.8426V5.09882Z" fill="black"/>
<path fill-rule="evenodd" clip-rule="evenodd" d="M7.8999 7.9999C7.8999 7.66853 8.16853 7.3999 8.4999 7.3999H15.4999C15.8313 7.3999 16.0999 7.66853 16.0999 7.9999C16.0999 8.33127 15.8313 8.5999 15.4999 8.5999H8.4999C8.16853 8.5999 7.8999 8.33127 7.8999 7.9999Z" fill="black"/>
<path fill-rule="evenodd" clip-rule="evenodd" d="M7.8999 10.9999C7.8999 10.6685 8.16853 10.3999 8.4999 10.3999H15.4999C15.8313 10.3999 16.0999 10.6685 16.0999 10.9999C16.0999 11.3313 15.8313 11.5999 15.4999 11.5999H8.4999C8.16853 11.5999 7.8999 11.3313 7.8999 10.9999Z" fill="black"/>
<path fill-rule="evenodd" clip-rule="evenodd" d="M7.8999 13.9999C7.8999 13.6685 8.16853 13.3999 8.4999 13.3999H15.4999C15.8313 13.3999 16.0999 13.6685 16.0999 13.9999C16.0999 14.3313 15.8313 14.5999 15.4999 14.5999H8.4999C8.16853 14.5999 7.8999 14.3313 7.8999 13.9999Z" fill="black"/>
</svg>
