<svg width="24" height="24" viewBox="0 0 24 24" fill="none" xmlns="http://www.w3.org/2000/svg">
<path d="M22.3892 1.79374C22.3807 1.75225 22.3605 1.71405 22.331 1.68364C22.3015 1.65323 22.264 1.63185 22.2228 1.62202C19.4773 0.950154 13.1337 3.34439 9.69687 6.78302C9.22002 7.25645 8.77594 7.76155 8.36763 8.29477C8.15105 8.5776 7.80845 8.73416 7.45234 8.7251C6.58846 8.70313 5.74359 8.8141 5.00375 9.1369C2.45515 10.2597 1.71312 13.1892 1.5064 14.4494C1.49468 14.5184 1.4991 14.5892 1.51932 14.6562C1.53955 14.7231 1.57502 14.7845 1.62295 14.8354C1.67088 14.8864 1.72996 14.9255 1.79555 14.9497C1.86114 14.9739 1.93144 14.9825 2.00093 14.9749L5.17282 14.6248C5.66568 14.5703 6.0944 14.9546 6.14937 15.4474C6.16997 15.6606 6.2645 15.8598 6.41656 16.0104L8.0014 17.593C8.15206 17.745 8.351 17.8396 8.5639 17.8604C9.05367 17.9152 9.43554 18.3412 9.38177 18.8311L9.03312 22.0075C9.02563 22.077 9.03433 22.1473 9.05855 22.2129C9.08277 22.2786 9.12184 22.3376 9.1727 22.3856C9.22356 22.4335 9.28483 22.4691 9.3517 22.4893C9.41857 22.5096 9.48922 22.5141 9.55812 22.5025C10.8148 22.3007 13.7469 21.558 14.862 19.0071C15.1844 18.2668 15.2969 17.425 15.2772 16.5647C15.269 16.2093 15.4256 15.8677 15.7079 15.6517C16.2426 15.2426 16.7492 14.7975 17.2241 14.3195C20.6717 10.886 23.0502 4.67827 22.3892 1.79374ZM13.7844 10.2235C13.4696 9.90863 13.2551 9.50735 13.1682 9.07045C13.0812 8.63355 13.1257 8.18066 13.296 7.76906C13.4662 7.35746 13.7546 7.00565 14.1247 6.75812C14.4947 6.5106 14.9298 6.37848 15.3748 6.37848C15.8199 6.37848 16.255 6.5106 16.625 6.75812C16.9951 7.00565 17.2835 7.35746 17.4537 7.76906C17.624 8.18066 17.6684 8.63355 17.5815 9.07045C17.4946 9.50735 17.2801 9.90863 16.9653 10.2235C16.7566 10.4328 16.5086 10.5988 16.2357 10.712C15.9628 10.8253 15.6703 10.8836 15.3748 10.8836C15.0794 10.8836 14.7869 10.8253 14.514 10.712C14.241 10.5988 13.9931 10.4328 13.7844 10.2235Z" fill="black"/>
<path d="M7.89375 18.7392C7.63687 18.9968 7.22484 19.0972 6.72891 19.1831C5.61469 19.3731 4.63078 18.4094 4.83094 17.2819C4.90734 16.8545 5.13328 16.2554 5.27391 16.1146C5.30464 16.0844 5.3251 16.0453 5.33238 16.0029C5.33965 15.9604 5.33337 15.9167 5.31443 15.878C5.29549 15.8393 5.26485 15.8076 5.22686 15.7873C5.18887 15.767 5.14547 15.7592 5.10281 15.7651C4.47973 15.8414 3.90006 16.1241 3.45609 16.5683C2.35406 17.6723 2.25 21.7687 2.25 21.7687C2.25 21.7687 6.345 21.6646 7.44703 20.5606C7.89218 20.1166 8.17503 19.5355 8.25 18.9109C8.26734 18.7148 8.02875 18.598 7.89375 18.7392Z" fill="black"/>
<path d="M22.3892 1.79374C22.3807 1.75225 22.3605 1.71405 22.331 1.68364C22.3015 1.65323 22.264 1.63185 22.2228 1.62202C19.4773 0.950154 13.1337 3.34439 9.69687 6.78302C9.22002 7.25645 8.77594 7.76155 8.36763 8.29477C8.15105 8.5776 7.80845 8.73416 7.45234 8.7251C6.58846 8.70313 5.74359 8.8141 5.00375 9.1369C2.45515 10.2597 1.71312 13.1892 1.5064 14.4494C1.49468 14.5184 1.4991 14.5892 1.51932 14.6562C1.53955 14.7231 1.57502 14.7845 1.62295 14.8354C1.67088 14.8864 1.72996 14.9255 1.79555 14.9497C1.86114 14.9739 1.93144 14.9825 2.00093 14.9749L5.17282 14.6248C5.66568 14.5703 6.0944 14.9546 6.14937 15.4474C6.16997 15.6606 6.2645 15.8598 6.41656 16.0104L8.0014 17.593C8.15206 17.745 8.351 17.8396 8.5639 17.8604C9.05367 17.9152 9.43554 18.3412 9.38177 18.8311L9.03312 22.0075C9.02563 22.077 9.03433 22.1473 9.05855 22.2129C9.08277 22.2786 9.12184 22.3376 9.1727 22.3856C9.22356 22.4335 9.28483 22.4691 9.3517 22.4893C9.41857 22.5096 9.48922 22.5141 9.55812 22.5025C10.8148 22.3007 13.7469 21.558 14.862 19.0071C15.1844 18.2668 15.2969 17.425 15.2772 16.5647C15.269 16.2093 15.4256 15.8677 15.7079 15.6517C16.2426 15.2426 16.7492 14.7975 17.2241 14.3195C20.6717 10.886 23.0502 4.67827 22.3892 1.79374ZM13.7844 10.2235C13.4696 9.90863 13.2551 9.50735 13.1682 9.07045C13.0812 8.63355 13.1257 8.18066 13.296 7.76906C13.4662 7.35746 13.7546 7.00565 14.1247 6.75812C14.4947 6.5106 14.9298 6.37848 15.3748 6.37848C15.8199 6.37848 16.255 6.5106 16.625 6.75812C16.9951 7.00565 17.2835 7.35746 17.4537 7.76906C17.624 8.18066 17.6684 8.63355 17.5815 9.07045C17.4946 9.50735 17.2801 9.90863 16.9653 10.2235C16.7566 10.4328 16.5086 10.5988 16.2357 10.712C15.9628 10.8253 15.6703 10.8836 15.3748 10.8836C15.0794 10.8836 14.7869 10.8253 14.514 10.712C14.241 10.5988 13.9931 10.4328 13.7844 10.2235Z" stroke="black"/>
<path d="M7.89375 18.7392C7.63687 18.9968 7.22484 19.0972 6.72891 19.1831C5.61469 19.3731 4.63078 18.4094 4.83094 17.2819C4.90734 16.8545 5.13328 16.2554 5.27391 16.1146C5.30464 16.0844 5.3251 16.0453 5.33238 16.0029C5.33965 15.9604 5.33337 15.9167 5.31443 15.878C5.29549 15.8393 5.26485 15.8076 5.22686 15.7873C5.18887 15.767 5.14547 15.7592 5.10281 15.7651C4.47973 15.8414 3.90006 16.1241 3.45609 16.5683C2.35406 17.6723 2.25 21.7687 2.25 21.7687C2.25 21.7687 6.345 21.6646 7.44703 20.5606C7.89218 20.1166 8.17503 19.5355 8.25 18.9109C8.26734 18.7148 8.02875 18.598 7.89375 18.7392Z" stroke="black"/>
</svg>
