<svg width="24" height="24" viewBox="0 0 24 24" fill="none" xmlns="http://www.w3.org/2000/svg">
<path d="M14.3333 21L12 19.875L9.66667 21L7.33333 19.875L5 21V5.25C5 4.0125 6.05 3 7.33333 3H16.6667C17.95 3 19 4.0125 19 5.25V21L16.6667 19.875L14.3333 21ZM7.91667 15.375C7.59 15.375 7.33333 15.6225 7.33333 15.9375C7.33333 16.2525 7.59 16.5 7.91667 16.5H12.5833C12.91 16.5 13.1667 16.2525 13.1667 15.9375C13.1667 15.6225 12.91 15.375 12.5833 15.375H7.91667ZM7.91667 10.875C7.59 10.875 7.33333 11.1225 7.33333 11.4375C7.33333 11.7525 7.59 12 7.91667 12H16.0833C16.41 12 16.6667 11.7525 16.6667 11.4375C16.6667 11.1225 16.41 10.875 16.0833 10.875H7.91667ZM7.91667 6.375C7.59 6.375 7.33333 6.6225 7.33333 6.9375C7.33333 7.2525 7.59 7.5 7.91667 7.5H16.0833C16.41 7.5 16.6667 7.2525 16.6667 6.9375C16.6667 6.6225 16.41 6.375 16.0833 6.375H7.91667Z" fill="#161616"/>
</svg>
