<svg width="24" height="24" viewBox="0 0 24 24" fill="none" xmlns="http://www.w3.org/2000/svg">
<path fill-rule="evenodd" clip-rule="evenodd" d="M21.1488 11.5969C20.6491 11.5669 20.2293 11.947 20.1993 12.4471C20.0993 14.3373 19.3397 16.1376 18.0604 17.5378C16.7811 18.938 15.052 19.8481 13.173 20.1181C11.294 20.3882 9.385 19.9981 7.75586 19.008C6.13671 18.0278 4.90736 16.5076 4.2777 14.7174C3.64803 12.9271 3.65802 10.9768 4.30768 9.1966C4.95734 7.41635 6.20668 5.91614 7.83582 4.946C9.46496 3.97586 11.3839 3.60581 13.263 3.89585C14.6522 4.10588 15.9515 4.67596 17.041 5.52608L16.5612 5.97615C16.2714 6.25618 16.4113 6.74625 16.8011 6.82626L19.6296 7.41635C19.9694 7.48636 20.2792 7.19632 20.2293 6.84627L19.7895 3.99587C19.7295 3.59581 19.2398 3.43579 18.9499 3.70583L18.3603 4.2659C16.971 3.14575 15.3119 2.38564 13.5328 2.1156C11.244 1.76555 8.90525 2.21562 6.9163 3.39578C4.92735 4.57595 3.40816 6.3962 2.60858 8.57651C1.809 10.7568 1.79901 13.1271 2.5686 15.3175C3.33819 17.4978 4.8374 19.348 6.81636 20.5482C8.79531 21.7484 11.1241 22.2284 13.4229 21.8984C15.7117 21.5683 17.8205 20.4582 19.3797 18.7579C20.9389 17.0477 21.8684 14.8574 21.9983 12.5471C22.0283 12.047 21.6485 11.6269 21.1488 11.5969Z" fill="black"/>
</svg>
