<svg width="24" height="24" viewBox="0 0 24 24" fill="none" xmlns="http://www.w3.org/2000/svg">
<path fill-rule="evenodd" clip-rule="evenodd" d="M15.6812 8.27036C16.0437 7.90988 16.6315 7.90988 16.994 8.27036L21.4221 12.6733C22.6567 13.901 21.7823 16 20.0363 16H2.92833C2.41563 16 2 15.5867 2 15.0769C2 14.5671 2.41563 14.1538 2.92833 14.1538H20.0363C20.0723 14.1538 20.087 14.145 20.0945 14.1397C20.1063 14.1314 20.1212 14.1153 20.1316 14.0905C20.1419 14.0657 20.1428 14.0439 20.1403 14.0298C20.1387 14.0207 20.1347 14.0041 20.1092 13.9788L15.6812 9.57579C15.3186 9.21531 15.3186 8.63085 15.6812 8.27036Z" fill="black"/>
</svg>
