<svg width="24" height="24" viewBox="0 0 24 24" fill="none" xmlns="http://www.w3.org/2000/svg">
<path fill-rule="evenodd" clip-rule="evenodd" d="M21.1488 11.5969C20.649 11.5669 20.2293 11.947 20.1993 12.4471C20.0993 14.3373 19.3397 16.1376 18.0604 17.5378C16.7811 18.938 15.052 19.8481 13.173 20.1181C11.294 20.3882 9.385 19.9981 7.75586 19.008C6.13671 18.0278 4.90736 16.5076 4.2777 14.7174C3.64803 12.9271 3.65802 10.9768 4.30768 9.1966C4.95734 7.41635 6.20668 5.91614 7.83582 4.946C9.46496 3.97586 11.3839 3.60581 13.263 3.89585C14.6522 4.10588 15.9515 4.67596 17.041 5.52608L16.5612 5.97615C16.2714 6.25618 16.4113 6.74625 16.8011 6.82626L19.6296 7.41635C19.9694 7.48636 20.2792 7.19632 20.2293 6.84627L19.7895 3.99587C19.7295 3.59581 19.2398 3.43579 18.9499 3.70583L18.3603 4.2659C16.971 3.14575 15.3119 2.38564 13.5328 2.1156C11.244 1.76555 8.90525 2.21562 6.9163 3.39578C4.92735 4.57595 3.40816 6.3962 2.60858 8.57651C1.809 10.7568 1.79901 13.1271 2.5686 15.3175C3.33819 17.4978 4.8374 19.348 6.81636 20.5482C8.79531 21.7484 11.1241 22.2284 13.4229 21.8984C15.7117 21.5683 17.8205 20.4582 19.3797 18.7579C20.9389 17.0477 21.8684 14.8574 21.9983 12.5471C22.0283 12.047 21.6485 11.6269 21.1488 11.5969Z" fill="black"/>
<path d="M11.9794 15.7416C11.4491 15.7416 10.9768 15.6505 10.5625 15.4682C10.1506 15.2835 9.82509 15.0302 9.58598 14.7082C9.34924 14.3839 9.22732 14.0098 9.22021 13.5861H10.7685C10.778 13.7636 10.836 13.9199 10.9425 14.0548C11.0514 14.1874 11.1958 14.2904 11.3758 14.3638C11.5557 14.4372 11.7581 14.4739 11.983 14.4739C12.2174 14.4739 12.4245 14.4324 12.6044 14.3496C12.7844 14.2667 12.9252 14.1519 13.027 14.0051C13.1288 13.8583 13.1797 13.6891 13.1797 13.4973C13.1797 13.3032 13.1253 13.1315 13.0164 12.9824C12.9098 12.8309 12.756 12.7125 12.5547 12.6273C12.3559 12.542 12.1191 12.4994 11.8445 12.4994H11.1662V11.3702H11.8445C12.0765 11.3702 12.2813 11.3299 12.4589 11.2494C12.6388 11.1689 12.7785 11.0577 12.8779 10.9156C12.9773 10.7712 13.027 10.6031 13.027 10.4114C13.027 10.2291 12.9832 10.0693 12.8956 9.93195C12.8104 9.79227 12.6897 9.68337 12.5334 9.60525C12.3795 9.52712 12.1996 9.48806 11.9937 9.48806C11.7853 9.48806 11.5947 9.52594 11.4219 9.6017C11.2491 9.67509 11.1106 9.78044 11.0064 9.91775C10.9023 10.0551 10.8466 10.216 10.8395 10.4007H9.36581C9.37291 9.98167 9.49247 9.61235 9.72448 9.29275C9.95648 8.97314 10.269 8.72338 10.662 8.54346C11.0573 8.36117 11.5036 8.27002 12.0008 8.27002C12.5026 8.27002 12.9418 8.36117 13.3182 8.54346C13.6946 8.72575 13.987 8.97196 14.1954 9.28209C14.4061 9.58986 14.5102 9.9355 14.5079 10.319C14.5102 10.7262 14.3836 11.0659 14.1279 11.3382C13.8746 11.6105 13.5443 11.7833 13.1371 11.8567V11.9135C13.6722 11.9821 14.0794 12.168 14.3587 12.471C14.6404 12.7717 14.7801 13.1481 14.7777 13.6003C14.7801 14.0146 14.6606 14.3827 14.4191 14.7047C14.18 15.0266 13.8497 15.28 13.4283 15.4646C13.0069 15.6493 12.524 15.7416 11.9794 15.7416Z" fill="black"/>
</svg>
