<svg width="24" height="24" viewBox="0 0 24 24" fill="none" xmlns="http://www.w3.org/2000/svg">
<path fill-rule="evenodd" clip-rule="evenodd" d="M21.1488 11.5969C20.649 11.5669 20.2293 11.947 20.1993 12.4471C20.0993 14.3373 19.3397 16.1376 18.0604 17.5378C16.7811 18.938 15.052 19.8481 13.173 20.1181C11.294 20.3882 9.385 19.9981 7.75586 19.008C6.13671 18.0278 4.90736 16.5076 4.2777 14.7174C3.64803 12.9271 3.65802 10.9768 4.30768 9.1966C4.95734 7.41635 6.20668 5.91614 7.83582 4.946C9.46496 3.97586 11.3839 3.60581 13.263 3.89585C14.6522 4.10588 15.9515 4.67596 17.041 5.52608L16.5612 5.97615C16.2714 6.25618 16.4113 6.74625 16.8011 6.82626L19.6296 7.41635C19.9694 7.48636 20.2792 7.19632 20.2293 6.84627L19.7895 3.99587C19.7295 3.59581 19.2398 3.43579 18.9499 3.70583L18.3603 4.2659C16.971 3.14575 15.3119 2.38564 13.5328 2.1156C11.244 1.76555 8.90525 2.21562 6.9163 3.39578C4.92735 4.57595 3.40816 6.3962 2.60858 8.57651C1.809 10.7568 1.79901 13.1271 2.5686 15.3175C3.33819 17.4978 4.8374 19.348 6.81636 20.5482C8.79531 21.7484 11.1241 22.2284 13.4229 21.8984C15.7117 21.5683 17.8205 20.4582 19.3797 18.7579C20.9389 17.0477 21.8684 14.8574 21.9983 12.5471C22.0283 12.047 21.6485 11.6269 21.1488 11.5969Z" fill="black"/>
<path d="M14.196 15.7619C13.5852 15.7596 13.0596 15.6092 12.6193 15.3109C12.1813 15.0127 11.8439 14.5806 11.6072 14.0148C11.3728 13.449 11.2568 12.7683 11.2592 11.9729C11.2592 11.1798 11.3764 10.5039 11.6108 9.94518C11.8475 9.38647 12.1849 8.96151 12.6228 8.67032C13.0632 8.37676 13.5876 8.22998 14.196 8.22998C14.8044 8.22998 15.3276 8.37676 15.7656 8.67032C16.2059 8.96388 16.5445 9.39002 16.7812 9.94873C17.018 10.5051 17.1351 11.1798 17.1328 11.9729C17.1328 12.7707 17.0144 13.4525 16.7777 14.0183C16.5433 14.5841 16.2071 15.0162 15.7691 15.3145C15.3312 15.6128 14.8068 15.7619 14.196 15.7619ZM14.196 14.4871C14.6127 14.4871 14.9453 14.2776 15.1939 13.8585C15.4424 13.4395 15.5655 12.8109 15.5632 11.9729C15.5632 11.4213 15.5064 10.962 15.3927 10.595C15.2814 10.2281 15.1228 9.95228 14.9169 9.76762C14.7133 9.58296 14.473 9.49063 14.196 9.49063C13.7817 9.49063 13.4502 9.69778 13.2017 10.1121C12.9531 10.5264 12.8276 11.1466 12.8252 11.9729C12.8252 12.5316 12.8809 12.998 12.9922 13.372C13.1058 13.7437 13.2656 14.0231 13.4716 14.2101C13.6775 14.3948 13.919 14.4871 14.196 14.4871Z" fill="black"/>
<path d="M10.1159 8.32977V15.6025H8.57821V9.78928H8.5356L6.87012 10.8333V9.46968L8.67054 8.32977H10.1159Z" fill="black"/>
</svg>
