<svg width="24" height="24" viewBox="0 0 24 24" fill="none" xmlns="http://www.w3.org/2000/svg">
<path fill-rule="evenodd" clip-rule="evenodd" d="M20.7374 19.466L15.6153 14.341C16.5356 13.1499 17.0859 11.6684 17.0859 10.0469C17.0859 6.15307 13.9346 3 10.0429 3C6.15131 3 3 6.14306 3 10.0368C3 13.9306 6.15131 17.0837 10.0429 17.0837C11.6636 17.0837 13.1442 16.5332 14.3347 15.6123L19.4569 20.7372C19.807 21.0876 20.3872 21.0876 20.7374 20.7372C21.0875 20.3869 21.0875 19.8063 20.7374 19.456V19.466ZM4.81075 10.0368C4.81075 7.14403 7.15173 4.80175 10.0429 4.80175C12.9341 4.80175 15.2751 7.14403 15.2751 10.0368C15.2751 12.9297 12.9341 15.2719 10.0429 15.2719C7.15173 15.2719 4.81075 12.9297 4.81075 10.0368Z" fill="black"/>
</svg>
