<svg width="24" height="24" viewBox="0 0 24 24" fill="none" xmlns="http://www.w3.org/2000/svg">
<path fill-rule="evenodd" clip-rule="evenodd" d="M20.74 19.5L16.94 15.7C18.01 14.36 18.65 12.67 18.65 10.83C18.65 6.5 15.15 3 10.83 3C6.51 3 3 6.5 3 10.83C3 15.16 6.5 18.66 10.83 18.66C12.67 18.66 14.37 18.02 15.7 16.95L19.5 20.75C19.84 21.09 20.4 21.09 20.75 20.75C21.09 20.41 21.09 19.85 20.75 19.5H20.74ZM10.83 16.89C7.48 16.89 4.76 14.17 4.76 10.82C4.76 7.47 7.48 4.76 10.83 4.76C14.18 4.76 16.9 7.48 16.9 10.83C16.9 14.18 14.18 16.9 10.83 16.9V16.89Z" fill="black"/>
</svg>
