<svg width="24" height="24" viewBox="0 0 24 24" fill="none" xmlns="http://www.w3.org/2000/svg">
<path d="M13.9296 22H10.1533C9.56572 22 9.05814 21.6101 8.93669 21.0376C8.93357 21.0229 8.93218 21.0078 8.93218 20.9928C8.93218 20.9805 8.93123 20.9683 8.92934 20.9562L8.65569 19.2092C8.6297 19.0434 8.52153 18.9029 8.37239 18.8258C8.17814 18.7253 7.98948 18.6144 7.80466 18.4983C7.66775 18.4123 7.49844 18.3938 7.34777 18.4525L5.63819 19.118C5.49452 19.1795 5.33034 19.2103 5.17641 19.2103C4.73516 19.2103 4.32469 18.9744 4.1092 18.5949L2.21079 15.4359C1.87215 14.9026 1.99529 14.2051 2.49812 13.8256L4.12792 12.5788C4.14846 12.5631 4.16051 12.5387 4.16051 12.5128C4.15024 12.3487 4.12972 12.1846 4.12972 11.9897C4.12972 11.7949 4.13998 11.6308 4.16051 11.4667C4.16051 11.4473 4.1514 11.429 4.13592 11.4174L2.41602 10.1231L2.40602 10.1156C2.38535 10.1001 2.36576 10.0831 2.34827 10.0641C1.98092 9.66471 1.89816 9.08576 2.12869 8.59487L2.14922 8.55385L4.03737 5.38462C4.2426 5.00513 4.65307 4.76923 5.08406 4.76923C5.24824 4.76923 5.40217 4.8 5.54583 4.86154L7.28111 5.54451C7.43459 5.60492 7.60743 5.58486 7.74696 5.49693C7.92706 5.38343 8.11268 5.27616 8.3021 5.17511C8.44527 5.09874 8.54662 4.96107 8.57124 4.80069L8.84786 2.99917C8.84934 2.98948 8.85009 2.97969 8.85009 2.96989C8.85009 2.95244 8.85239 2.93499 8.8574 2.91827C9.01942 2.3779 9.51563 2 10.0815 2H13.8578C14.4235 2 14.9096 2.37765 15.0715 2.91772C15.0766 2.93481 15.0789 2.95263 15.0789 2.97047C15.0789 2.97989 15.0796 2.9893 15.0809 2.99862L15.3381 4.77972C15.3621 4.94605 15.4686 5.08807 15.6178 5.16541C15.8055 5.26272 15.9902 5.36918 16.1718 5.48479C16.3114 5.57367 16.4847 5.59484 16.6389 5.53481L18.3421 4.87179C18.4858 4.81026 18.65 4.77949 18.8039 4.77949C19.2452 4.77949 19.6556 5.01538 19.8711 5.39487L21.749 8.5641C22.0876 9.09744 21.9645 9.79487 21.4617 10.1744L19.8319 11.4212C19.8113 11.4369 19.7993 11.4613 19.7993 11.4872C19.8096 11.6513 19.8198 11.8154 19.8198 12.0103C19.8198 12.1177 19.8198 12.2189 19.8198 12.3208C19.8198 12.4802 19.8958 12.63 20.0244 12.7242L21.5539 13.844C21.5745 13.8591 21.5939 13.8757 21.612 13.8938L21.6259 13.9077C22.0158 14.3077 22.1082 14.9026 21.8722 15.4051L21.8516 15.4462L19.9737 18.6154C19.7685 18.9949 19.358 19.2308 18.9271 19.2308C18.7629 19.2308 18.6089 19.2 18.4653 19.1385L16.7291 18.4641C16.5761 18.4047 16.4042 18.425 16.2654 18.5126C16.0849 18.6263 15.8989 18.7339 15.709 18.8352C15.5658 18.9115 15.4645 19.0492 15.4399 19.2096L15.1627 21.0147C15.1616 21.022 15.161 21.0293 15.161 21.0367C15.161 21.0498 15.1593 21.0629 15.1556 21.0754C14.9955 21.6189 14.4978 21.9899 13.9399 22H13.9296ZM10.3877 20.4649C10.3887 20.4628 10.3908 20.4615 10.3931 20.4615H13.2443C13.491 20.4615 13.7008 20.2816 13.7384 20.0378L14.0302 18.1459C14.0569 17.9726 14.1725 17.826 14.3347 17.7595L14.4735 17.7026C14.9866 17.4769 15.4791 17.2 15.9204 16.8615L16.0376 16.7763C16.1755 16.6761 16.3551 16.653 16.5139 16.7152L18.3774 17.445C18.6056 17.5344 18.8649 17.4452 18.9898 17.2344L20.1527 15.2727C20.284 15.0511 20.2256 14.7661 20.0177 14.6141L18.4184 13.4449C18.2649 13.3326 18.1883 13.1429 18.2209 12.9555L18.2498 12.7897C18.2806 12.5231 18.2908 12.2564 18.2806 12C18.2806 11.8667 18.2703 11.7333 18.26 11.6C18.2498 11.4359 18.2395 11.2718 18.2395 11.0769V10.9436C18.2395 10.7884 18.3116 10.642 18.4346 10.5473L19.9404 9.38841C20.141 9.23408 20.1946 8.95426 20.0653 8.73673L18.8876 6.75496C18.7624 6.54436 18.5031 6.45546 18.275 6.54497L16.3983 7.28163C16.2354 7.34556 16.0509 7.3197 15.9119 7.21345L15.787 7.11795C15.356 6.77949 14.8737 6.50256 14.3606 6.29744L14.2212 6.24169C14.0537 6.17474 13.9353 6.02279 13.9112 5.84405L13.6595 3.97183C13.6261 3.72367 13.4144 3.53846 13.164 3.53846H10.7463C10.4996 3.53846 10.2898 3.71842 10.2521 3.96225L9.96037 5.85411C9.93364 6.02739 9.81812 6.174 9.65591 6.24052L9.5171 6.29744C9.00402 6.52308 8.51146 6.8 8.0702 7.13846L7.95206 7.22434C7.81462 7.32425 7.63583 7.34751 7.47739 7.28611L5.61298 6.56354C5.38482 6.47512 5.12619 6.56481 5.00176 6.77551L3.83412 8.75279C3.70449 8.97231 3.76077 9.2542 3.96476 9.40711L5.49966 10.5577C5.62562 10.6521 5.69976 10.8003 5.69976 10.9578V11.0974C5.69976 11.2923 5.6895 11.4564 5.66897 11.6205C5.65871 11.7641 5.64845 11.8872 5.64845 12.0205C5.64845 12.1538 5.65871 12.2872 5.66897 12.4205C5.67923 12.5846 5.69976 12.7487 5.69976 12.9436V13.077C5.69976 13.2321 5.62769 13.3785 5.50471 13.4732L3.99885 14.6321C3.79832 14.7864 3.7447 15.0663 3.87398 15.2838L5.05172 17.2656C5.17688 17.4762 5.43619 17.5651 5.66424 17.4755L7.54103 16.7389C7.70389 16.675 7.88833 16.7008 8.02734 16.8071L8.1523 16.9026C8.58329 17.241 9.06559 17.5179 9.57867 17.7231L9.71748 17.78C9.87969 17.8465 9.99521 17.9931 10.0219 18.1664L10.3762 20.4631C10.3771 20.469 10.385 20.4702 10.3877 20.4649ZM11.9902 16C10.9127 16 9.87626 15.5897 9.10663 14.841C7.5366 13.3026 7.51607 10.7897 9.05532 9.22051C9.07585 9.2 9.09637 9.17949 9.10663 9.16923C10.7177 7.62051 13.2626 7.62051 14.8737 9.16923C16.4437 10.7077 16.4643 13.2205 14.925 14.7897C14.9045 14.8103 14.884 14.8308 14.8737 14.841C14.1041 15.5897 13.0676 16.0103 11.9902 16ZM11.9902 9.53846C10.6356 9.57949 9.55815 10.7179 9.59919 12.0718C9.64024 13.4256 10.7793 14.5026 12.1338 14.4615C13.4678 14.4205 14.5248 13.3333 14.5248 12C14.5248 10.6359 13.4063 9.52821 12.0415 9.53846C12.0209 9.53846 12.0107 9.53846 11.9902 9.53846Z" fill="#161616"/>
</svg>
