<svg width="24" height="24" viewBox="0 0 24 24" fill="none" xmlns="http://www.w3.org/2000/svg">
<path d="M19.5 11.9998C19.5 11.6498 19.475 11.2998 19.425 10.9623L22 8.94981L19.7 5.0498L16.7375 6.1873C16.125 5.6873 15.4375 5.28731 14.7 4.9998L14.25 1.9873H9.75L9.3 4.9998C8.5625 5.28731 7.875 5.6873 7.2625 6.1873L4.3 5.0498L2 8.94981L4.5875 10.9623C4.5375 11.3123 4.5125 11.6498 4.5 11.9998C4.5 12.3498 4.525 12.6998 4.5875 13.0373L2 15.0498L4.3 18.9498L7.2625 17.8123C7.875 18.3123 8.5625 18.7123 9.3 18.9873L9.75 21.9998H14.25L14.7 18.9873C15.4375 18.6998 16.125 18.2998 16.7375 17.7998L19.7 18.9373L22 15.0373L19.425 13.0248C19.475 12.6748 19.5 12.3373 19.5 11.9873V11.9998ZM12.9625 14.3123C12.5 14.4998 12 14.5498 11.5125 14.4498C11.025 14.3498 10.5875 14.1123 10.2375 13.7623C9.7625 13.2873 9.5 12.6623 9.5 11.9998C9.5 11.3373 9.7625 10.6998 10.2375 10.2373C10.5875 9.88731 11.0375 9.64981 11.5125 9.54981C12 9.44981 12.5 9.49981 12.9625 9.68731C13.425 9.87481 13.8125 10.1998 14.0875 10.6123C14.3625 11.0248 14.5125 11.5123 14.5125 11.9998C14.5125 12.4998 14.3625 12.9748 14.0875 13.3873C13.8125 13.7998 13.425 14.1248 12.9625 14.3123Z" fill="#161616"/>
</svg>
