<svg width="24" height="24" viewBox="0 0 24 24" fill="none" xmlns="http://www.w3.org/2000/svg">
<path fill-rule="evenodd" clip-rule="evenodd" d="M18.25 20.1494H16.5V16.006C16.37 15.0395 15.58 13.3019 13.59 12.6645C15.57 12.0271 16.36 10.2895 16.5 9.32305V4.85065H18.25C18.66 4.85065 19 4.43939 19 3.92532C19 3.41126 18.66 3 18.25 3H5.75C5.34 3 5 3.41126 5 3.92532C5 4.43939 5.34 4.85065 5.75 4.85065H7.5V9.32305C7.63 10.2895 8.42 12.0271 10.41 12.6645C8.43 13.3019 7.64 15.0395 7.5 16.006V20.1494H5.75C5.34 20.1494 5 20.5606 5 21.0747C5 21.5887 5.34 22 5.75 22H18.25C18.66 22 19 21.5887 19 21.0747C19 20.5606 18.66 20.1494 18.25 20.1494ZM9.14 9.31277C8.98 8.76786 9.45 8.29491 10 8.29491H14C14.55 8.29491 15.01 8.76786 14.86 9.31277C14.56 10.3718 13.72 11.3793 12 11.3793C10.28 11.3793 9.45 10.3718 9.14 9.31277Z" fill="black"/>
</svg>
