<svg width="24" height="24" viewBox="0 0 24 24" fill="none" xmlns="http://www.w3.org/2000/svg">
<path fill-rule="evenodd" clip-rule="evenodd" d="M11.99 3C12.29 3 12.57 3.18029 12.69 3.45071L14.9999 8.53877C15.0499 8.63893 15.1399 8.70904 15.2499 8.70904L20.7896 9.16977C21.0996 9.19982 21.3596 9.40014 21.4596 9.6906C21.5596 9.98106 21.4696 10.3116 21.2396 10.5119L17.0998 14.1977C17.0198 14.2678 16.9798 14.388 17.0098 14.4982L18.3897 20.047C18.4697 20.3575 18.3497 20.678 18.0897 20.8583C17.8297 21.0386 17.4897 21.0486 17.2298 20.8783L12.16 17.6432C12.06 17.5831 11.94 17.5831 11.84 17.6432L6.77024 20.8783C6.50025 21.0486 6.16027 21.0386 5.91028 20.8583C5.65029 20.678 5.5403 20.3475 5.61029 20.047L6.99023 14.4982C7.02023 14.388 6.99023 14.2779 6.90023 14.1977C6.90023 14.1977 3.80038 11.4334 2.76042 10.5119C2.53043 10.3016 2.44044 9.98106 2.54043 9.6906C2.64043 9.40014 2.90042 9.1898 3.2104 9.16977C4.59034 9.04958 8.75015 8.70904 8.75015 8.70904C8.86014 8.70904 8.95014 8.62892 9.00014 8.53877L11.29 3.45071C11.41 3.17027 11.69 3 11.99 3ZM12.08 5.84451C12.04 5.76438 11.93 5.76438 11.9 5.84451L10.1201 9.76071C10.0001 10.0111 9.7601 10.1914 9.48011 10.2114L5.34031 10.562C5.25031 10.562 5.22031 10.6822 5.28031 10.7322L8.38017 13.4966C8.59016 13.6869 8.69015 13.9774 8.62015 14.2578L7.6102 18.3143C7.5902 18.4044 7.6802 18.4745 7.76019 18.4244L11.57 15.9906C11.82 15.8303 12.14 15.8303 12.4 15.9906L16.2098 18.4244C16.2898 18.4745 16.3798 18.4044 16.3598 18.3143L15.3498 14.2578C15.2798 13.9774 15.3698 13.6869 15.5898 13.4966L18.6897 10.7322C18.7597 10.6722 18.7197 10.562 18.6297 10.562L14.4899 10.2114C14.2099 10.1914 13.9699 10.0111 13.8499 9.76071L12.07 5.84451H12.08Z" fill="black"/>
</svg>
