<svg width="24" height="24" viewBox="0 0 24 24" fill="none" xmlns="http://www.w3.org/2000/svg">
<path fill-rule="evenodd" clip-rule="evenodd" d="M18 3.8H6C4.78 3.8 3.8 4.78 3.8 6V18C3.8 19.22 4.78 20.2 6 20.2H18C19.22 20.2 20.2 19.21 20.2 18V6C20.2 4.78 19.21 3.8 18 3.8ZM6 2C3.79 2 2 3.79 2 6V18C2 20.21 3.79 22 6 22H18C20.21 22 22 20.21 22 18V6C22 3.79 20.21 2 18 2H6Z" fill="black"/>
<path fill-rule="evenodd" clip-rule="evenodd" d="M16.14 12.47C15.79 12.12 15.22 12.12 14.87 12.47L12.91 14.43V7.6C12.91 7.1 12.51 6.7 12.01 6.7C11.51 6.7 11.11 7.1 11.11 7.6V14.43L9.15 12.47C8.8 12.12 8.23 12.12 7.88 12.47C7.53 12.82 7.53 13.39 7.88 13.74L11.03 16.89C11.58 17.44 12.46 17.44 13.01 16.89L16.16 13.74C16.51 13.39 16.51 12.82 16.16 12.47H16.14Z" fill="black"/>
</svg>
