<svg width="24" height="24" viewBox="0 0 24 24" fill="none" xmlns="http://www.w3.org/2000/svg">
<path d="M20.9989 12L21.1212 11.7553L22 10.0089L20.5206 8.7297L20.3203 8.55172L20.3426 8.28477L20.4872 6.32703L18.6296 5.71525L18.3737 5.62626L18.2847 5.37041L17.673 3.51279L15.7152 3.6574L15.4483 3.67965L15.2703 3.47942L13.9911 2L12.2447 2.87876L12 3.00112L11.7553 2.87876L10.0089 2L8.7297 3.47942L8.55172 3.67965L8.28476 3.6574L6.32703 3.51279L5.71524 5.37041L5.62625 5.62626L5.37041 5.71525L3.51279 6.32703L3.6574 8.28477L3.67964 8.55172L3.47942 8.7297L2 10.0089L2.87875 11.7553L3.00111 12L2.87875 12.2447L2 13.9911L3.47942 15.2703L3.67964 15.4483L3.6574 15.7152L3.51279 17.673L5.37041 18.2847L5.62625 18.3737L5.71524 18.6296L6.32703 20.4872L8.28476 20.3426L8.55172 20.3203L8.7297 20.5206L10.0089 22L11.7553 21.1212L12 20.9989L12.2447 21.1212L13.9911 22L15.2703 20.5206L15.4483 20.3203L15.7152 20.3426L17.673 20.4872L18.2847 18.6296L18.3737 18.3737L18.6296 18.2847L20.4872 17.673L20.3426 15.7152L20.3203 15.4483L20.5206 15.2703L22 13.9911L21.1212 12.2447L20.9989 12ZM7.53948 9.21913C7.53948 8.29589 8.28476 7.55061 9.208 7.55061C10.1313 7.55061 10.8765 8.29589 10.8765 9.21913C10.8765 10.1424 10.1313 10.8877 9.208 10.8877C8.28476 10.8877 7.53948 10.1424 7.53948 9.21913ZM9.04115 15.7264L8.25139 14.9366L14.9255 8.26252L15.7152 9.05229L9.04115 15.7264ZM14.7697 16.4494C13.8465 16.4494 13.1012 15.7041 13.1012 14.7809C13.1012 13.8576 13.8465 13.1123 14.7697 13.1123C15.693 13.1123 16.4383 13.8576 16.4383 14.7809C16.4383 15.7041 15.693 16.4494 14.7697 16.4494Z" fill="black"/>
</svg>
