<svg width="24" height="24" viewBox="0 0 24 24" fill="none" xmlns="http://www.w3.org/2000/svg">
<path fill-rule="evenodd" clip-rule="evenodd" d="M19.2591 3H3.75092C2.78041 3 2 3.78 2 4.75V8.75C2 9.87 2.28015 10.88 2.73038 11.64C2.81043 11.77 2.90047 11.9 3.00053 12.02V19.12C3.00053 20.71 4.2712 22 5.83202 22H17.168C18.7288 22 19.9995 20.71 19.9995 19.12V11.95C19.9995 11.95 20.0195 11.93 20.0295 11.92C20.6498 11.19 21 10.12 21 8.75V4.75C21 3.78 20.2196 3 19.2491 3H19.2591ZM13.406 20.43H9.604V15.1H13.406V20.43ZM18.4587 19.12C18.4587 19.84 17.8784 20.43 17.168 20.43H14.5966V14.5C14.5966 14.17 14.3265 13.9 13.9963 13.9H8.99368C8.66351 13.9 8.39336 14.17 8.39336 14.5V20.43H5.82201C5.11164 20.43 4.53133 19.84 4.53133 19.12V12.98C4.60137 12.98 4.6614 13 4.73144 13C6.3623 13 7.5129 12.28 8.20326 11.34C8.77356 12.25 9.74407 13 11.2349 13C12.7256 13 13.7062 12.25 14.2765 11.33C14.2765 11.32 14.2865 11.31 14.2965 11.3C15.0569 12.34 16.2975 13 17.7383 13C17.9784 13 18.2085 12.96 18.4387 12.91V19.12H18.4587ZM19.5092 8.75C19.5092 9.88 19.2191 10.56 18.8889 10.95C18.5687 11.34 18.1485 11.5 17.7583 11.5C16.1675 11.5 15.0068 10.34 15.0068 8.75C15.0068 8.34 14.6667 8 14.2565 8C13.8462 8 13.5061 8.34 13.5061 8.75C13.5061 9.23 13.376 9.96 13.0158 10.54C12.6856 11.08 12.1553 11.5 11.2549 11.5C10.3544 11.5 9.82412 11.08 9.49394 10.54C9.20379 10.07 9.06372 9.51 9.0237 9.06C9.0237 8.92 9.0237 8.78 9.00369 8.65C8.95366 8.26 8.60348 7.97 8.21327 7.99C7.81306 8.01 7.5129 8.34 7.5129 8.74C7.5129 8.85 7.5129 8.98 7.53291 9.11C7.48289 10.08 6.66245 11.49 4.76145 11.49C4.69142 11.49 4.54134 11.43 4.36124 11.27C4.33123 11.23 4.29121 11.2 4.25118 11.17C4.18115 11.09 4.10111 10.98 4.02106 10.85C3.72091 10.36 3.50079 9.62 3.50079 8.74V4.75C3.50079 4.61 3.61085 4.5 3.75092 4.5H19.2591C19.3992 4.5 19.5092 4.61 19.5092 4.75V8.75Z" fill="black"/>
</svg>
