<svg width="24" height="24" viewBox="0 0 24 24" fill="none" xmlns="http://www.w3.org/2000/svg">
<path fill-rule="evenodd" clip-rule="evenodd" d="M11.95 11.2251C13.67 11.2251 14.5 10.2175 14.81 9.15855C14.97 8.61364 14.5 8.14069 13.95 8.14069H9.95C9.4 8.14069 8.94 8.61364 9.09 9.15855C9.39 10.2175 10.23 11.2251 11.95 11.2251Z" fill="black"/>
<path fill-rule="evenodd" clip-rule="evenodd" d="M18.1 20.1494H17.03V16.8593C17.03 16.0265 16.78 14.8133 16.02 13.7749C15.7 13.3431 15.29 12.9524 14.79 12.6439C15.29 12.3355 15.7 11.9448 16.02 11.513C16.78 10.4848 17.03 9.26136 17.03 8.42857V4.85065H18.1C18.6 4.85065 19 4.43939 19 3.92532C19 3.41126 18.6 3 18.1 3H5.9C5.4 3 5 3.41126 5 3.92532C5 4.43939 5.4 4.85065 5.9 4.85065H6.97V8.42857C6.97 9.26136 7.22 10.4746 7.98 11.513C8.3 11.9448 8.71 12.3355 9.21 12.6439C8.71 12.9524 8.3 13.3431 7.98 13.7749C7.22 14.803 6.97 16.0265 6.97 16.8593V20.1494H5.9C5.4 20.1494 5 20.5606 5 21.0747C5 21.5887 5.4 22 5.9 22H18.1C18.6 22 19 21.5887 19 21.0747C19 20.5606 18.6 20.1494 18.1 20.1494ZM9.02 10.4951C8.6 9.99134 8.4 9.02489 8.4 8.42857V4.85065H15.63V8.42857C15.63 9.02489 15.53 9.74459 14.98 10.4951C14.45 11.2148 13.55 11.8317 12 11.8317C10.45 11.8317 9.6 11.1737 9.02 10.4951ZM15.63 20.1494H8.4V16.8593C8.4 16.263 8.6 15.2965 9.02 14.7927C9.59 14.1142 10.45 13.4562 12 13.4562C13.55 13.4562 14.45 14.0731 14.98 14.7927C15.53 15.5433 15.63 16.263 15.63 16.8593V20.1494Z" fill="black"/>
</svg>
