<svg width="24" height="24" viewBox="0 0 24 24" fill="none" xmlns="http://www.w3.org/2000/svg">
<path d="M17.2084 20.4982C17.1072 20.4982 17.0059 20.4642 16.9159 20.4189L11.9998 17.393L7.07237 20.4189C6.80238 20.5776 6.46489 20.4982 6.29614 20.2262C6.21739 20.1016 6.19489 19.9429 6.22864 19.7956L7.61236 14.2425L3.20245 10.5366C2.96621 10.3326 2.93246 9.98127 3.1237 9.74328C3.22495 9.61862 3.35995 9.55062 3.51745 9.53929L9.28858 9.11997L11.4823 3.81616C11.6285 3.5215 11.9885 3.41951 12.2698 3.56683C12.371 3.6235 12.461 3.71416 12.5173 3.81616L14.6997 9.11997L20.4709 9.53929C20.7859 9.56195 21.0108 9.83395 20.9996 10.1399C20.9996 10.2986 20.9208 10.4346 20.7971 10.5366L16.3872 14.2311L17.7597 19.7843C17.8159 20.0109 17.7259 20.2376 17.5459 20.3736C17.4447 20.4529 17.3322 20.4869 17.2084 20.4869" fill="#161616"/>
</svg>
