<svg width="24" height="24" viewBox="0 0 24 24" fill="none" xmlns="http://www.w3.org/2000/svg">
<path fill-rule="evenodd" clip-rule="evenodd" d="M18 2H6C3.79 2 2 3.79 2 6V18C2 20.21 3.79 22 6 22H18C20.21 22 22 20.21 22 18V6C22 3.79 20.21 2 18 2ZM20.2 18C20.2 19.22 19.22 20.2 18 20.2H6C4.78 20.2 3.8 19.22 3.8 18V6C3.8 4.78 4.78 3.8 6 3.8H18C19.22 3.8 20.2 4.78 20.2 6V18Z" fill="black"/>
<path fill-rule="evenodd" clip-rule="evenodd" d="M16 11.1H12.9V8C12.9 7.5 12.5 7.1 12 7.1C11.5 7.1 11.1 7.5 11.1 8V11.1H8C7.5 11.1 7.1 11.5 7.1 12C7.1 12.5 7.5 12.9 8 12.9H11.1V16C11.1 16.5 11.5 16.9 12 16.9C12.5 16.9 12.9 16.5 12.9 16V12.9H16C16.5 12.9 16.9 12.5 16.9 12C16.9 11.5 16.5 11.1 16 11.1Z" fill="black"/>
</svg>
