<svg width="24" height="24" viewBox="0 0 24 24" fill="none" xmlns="http://www.w3.org/2000/svg">
<path fill-rule="evenodd" clip-rule="evenodd" d="M18 2H6C3.79 2 2 3.79 2 6V18C2 20.21 3.79 22 6 22H18C20.21 22 22 20.21 22 18V6C22 3.79 20.21 2 18 2ZM20.2 18C20.2 19.22 19.22 20.2 18 20.2H6C4.78 20.2 3.8 19.22 3.8 18V6C3.8 4.78 4.78 3.8 6 3.8H18C19.22 3.8 20.2 4.78 20.2 6V18Z" fill="black"/>
<path fill-rule="evenodd" clip-rule="evenodd" d="M12.99 7.06C12.44 6.51 11.56 6.51 11.01 7.06L7.86 10.21C7.51 10.56 7.51 11.13 7.86 11.48C8.21 11.83 8.78 11.83 9.13 11.48L11.09 9.52V16.43C11.09 16.94 11.49 17.35 11.99 17.35C12.49 17.35 12.89 16.94 12.89 16.43V9.52L14.85 11.48C15.2 11.83 15.77 11.83 16.12 11.48C16.47 11.13 16.47 10.56 16.12 10.21L12.97 7.06H12.99Z" fill="black"/>
</svg>
