<svg width="24" height="24" viewBox="0 0 24 24" fill="none" xmlns="http://www.w3.org/2000/svg">
<path fill-rule="evenodd" clip-rule="evenodd" d="M18 2H6C3.79 2 2 3.79 2 6V18C2 20.21 3.79 22 6 22H18C20.21 22 22 20.21 22 18V6C22 3.79 20.21 2 18 2ZM20.2 18C20.2 19.22 19.22 20.2 18 20.2H6C4.78 20.2 3.8 19.22 3.8 18V6C3.8 4.78 4.78 3.8 6 3.8H18C19.22 3.8 20.2 4.78 20.2 6V18Z" fill="black"/>
<path fill-rule="evenodd" clip-rule="evenodd" d="M16.38 11.1H7.62C7.14 11.1 6.74 11.5 6.74 12C6.74 12.5 7.13 12.9 7.62 12.9H16.37C16.85 12.9 17.25 12.5 17.25 12C17.25 11.5 16.86 11.1 16.37 11.1H16.38Z" fill="black"/>
</svg>
