<svg width="24" height="24" viewBox="0 0 24 24" fill="none" xmlns="http://www.w3.org/2000/svg">
<path fill-rule="evenodd" clip-rule="evenodd" d="M18 2H6C3.79 2 2 3.79 2 6V18C2 20.21 3.79 22 6 22H18C20.21 22 22 20.21 22 18V6C22 3.79 20.21 2 18 2ZM16.14 11.53C15.79 11.88 15.22 11.88 14.87 11.53L12.91 9.57V16.4C12.91 16.9 12.51 17.3 12.01 17.3C11.51 17.3 11.11 16.9 11.11 16.4V9.57L9.15 11.53C8.8 11.88 8.23 11.88 7.88 11.53C7.53 11.18 7.53 10.61 7.88 10.26L11.03 7.11C11.58 6.56 12.46 6.56 13.01 7.11L16.16 10.26C16.51 10.61 16.51 11.18 16.16 11.53H16.14Z" fill="black"/>
</svg>
