<svg width="24" height="24" viewBox="0 0 24 24" fill="none" xmlns="http://www.w3.org/2000/svg">
<path fill-rule="evenodd" clip-rule="evenodd" d="M18 2H6C3.79 2 2 3.79 2 6V18C2 20.21 3.79 22 6 22H18C20.21 22 22 20.21 22 18V6C22 3.79 20.21 2 18 2ZM16.14 13.74L12.99 16.89C12.44 17.44 11.56 17.44 11.01 16.89L7.86 13.74C7.51 13.39 7.51 12.82 7.86 12.47C8.21 12.12 8.78 12.12 9.13 12.47L11.09 14.43V7.6C11.09 7.1 11.49 6.7 11.99 6.7C12.49 6.7 12.89 7.1 12.89 7.6V14.43L14.85 12.47C15.2 12.12 15.77 12.12 16.12 12.47C16.47 12.82 16.47 13.39 16.12 13.74H16.14Z" fill="black"/>
</svg>
