<svg width="24" height="24" viewBox="0 0 24 24" fill="none" xmlns="http://www.w3.org/2000/svg">
<path fill-rule="evenodd" clip-rule="evenodd" d="M17.3102 5.92H16.8002L15.8402 3.95C15.5602 3.37 14.9702 3 14.3202 3H9.63023C8.98023 3 8.38023 3.38 8.10023 3.98L7.19023 5.92H6.68023C5.75023 5.92 4.99023 6.68 4.99023 7.62V8.59C4.99023 9.29 5.41023 9.89 6.01023 10.15L6.85023 19.45C6.93023 20.33 7.66023 21 8.53023 21H15.4602C16.3302 21 17.0602 20.33 17.1402 19.45L17.9802 10.15C18.5802 9.89 19.0002 9.29 19.0002 8.59V7.62C19.0002 6.68 18.2402 5.92 17.3102 5.92ZM9.41023 4.6C9.45023 4.51 9.53023 4.46 9.63023 4.46H14.3202C14.4102 4.46 14.5002 4.51 14.5402 4.6L15.1802 5.92H8.80023L9.42023 4.6H9.41023ZM6.45023 7.62C6.45023 7.49 6.56023 7.38 6.69023 7.38H17.3102C17.4402 7.38 17.5502 7.49 17.5502 7.62V8.59C17.5502 8.72 17.4402 8.83 17.3102 8.83H6.69023C6.56023 8.83 6.45023 8.72 6.45023 8.59V7.62ZM8.54023 19.54C8.42023 19.54 8.31023 19.44 8.30023 19.32L7.49023 10.3H16.5202L15.7102 19.32C15.7002 19.45 15.5902 19.54 15.4702 19.54H8.54023Z" fill="black"/>
<path fill-rule="evenodd" clip-rule="evenodd" d="M9.02006 11.5198C8.76006 11.5598 8.58006 11.8098 8.62006 12.0798L9.59006 17.9198C9.63006 18.1898 9.88006 18.3598 10.1501 18.3198C10.4101 18.2798 10.5901 18.0298 10.5501 17.7598L9.58006 11.9198C9.54006 11.6498 9.29006 11.4798 9.02006 11.5198Z" fill="black"/>
<path fill-rule="evenodd" clip-rule="evenodd" d="M14.9801 11.5198C14.7201 11.4798 14.4701 11.6498 14.4201 11.9198L13.4501 17.7598C13.4101 18.0298 13.5801 18.2798 13.8501 18.3198C14.1101 18.3598 14.3601 18.1898 14.4101 17.9198L15.3801 12.0798C15.4201 11.8098 15.2501 11.5598 14.9801 11.5198Z" fill="black"/>
<path fill-rule="evenodd" clip-rule="evenodd" d="M12.0001 11.5098C11.7301 11.5098 11.5201 11.7298 11.5201 11.9998V17.8398C11.5201 18.1098 11.7401 18.3298 12.0001 18.3298C12.2601 18.3298 12.4801 18.1098 12.4801 17.8398V11.9998C12.4801 11.7298 12.2601 11.5098 12.0001 11.5098Z" fill="black"/>
</svg>
