<svg width="24" height="24" viewBox="0 0 24 24" fill="none" xmlns="http://www.w3.org/2000/svg">
<path fill-rule="evenodd" clip-rule="evenodd" d="M18.62 4.30095H5.38C4.89 4.30095 4.5 3.90074 4.5 3.40047C4.5 2.90021 4.9 2.5 5.38 2.5H18.62C19.11 2.5 19.5 2.90021 19.5 3.40047C19.5 3.90074 19.1 4.30095 18.62 4.30095Z" fill="black"/>
<path fill-rule="evenodd" clip-rule="evenodd" d="M11.07 6.06187C11.6 5.58162 12.4 5.58162 12.93 6.06187L17.1 9.80384C17.47 10.134 17.5 10.7143 17.17 11.0845C16.84 11.4647 16.27 11.4947 15.9 11.1646L12.9 8.46314V20.6095C12.9 21.0998 12.5 21.5 12 21.5C11.5 21.5 11.1 21.0998 11.1 20.6095V8.46314L8.1 11.1646C7.73 11.4947 7.16 11.4647 6.83 11.0845C6.5 10.7043 6.53 10.134 6.9 9.80384L11.07 6.06187Z" fill="black"/>
</svg>
