<svg width="24" height="24" viewBox="0 0 24 24" fill="none" xmlns="http://www.w3.org/2000/svg">
<path d="M21.2416 15C21.0325 15 20.8533 14.9279 20.7039 14.7836C20.5545 14.6393 20.481 14.4634 20.4833 14.256C20.481 14.0531 20.5545 13.8795 20.7039 13.7353C20.8533 13.591 21.0325 13.5188 21.2416 13.5188C21.4439 13.5188 21.6197 13.591 21.769 13.7353C21.9207 13.8795 21.9977 14.0531 22 14.256C21.9977 14.3936 21.9609 14.5187 21.8897 14.6314C21.8207 14.7441 21.7288 14.8343 21.6139 14.9019C21.5013 14.9673 21.3772 15 21.2416 15Z" fill="black"/>
<path d="M14.6021 14.9256V8H17.2495C17.7918 8 18.2469 8.09243 18.6145 8.2773C18.9845 8.46216 19.2637 8.72142 19.4522 9.05508C19.6429 9.38648 19.7383 9.77312 19.7383 10.215C19.7383 10.6591 19.6418 11.0446 19.4487 11.3715C19.258 11.6962 18.9765 11.9475 18.6042 12.1256C18.2319 12.3015 17.7746 12.3894 17.2323 12.3894H15.3467V11.3478H17.0599C17.377 11.3478 17.6367 11.305 17.8389 11.2193C18.0412 11.1314 18.1905 11.004 18.2871 10.8372C18.3859 10.6681 18.4353 10.4607 18.4353 10.215C18.4353 9.96926 18.3859 9.75959 18.2871 9.586C18.1882 9.41015 18.0377 9.27714 17.8355 9.18696C17.6333 9.09453 17.3724 9.04832 17.053 9.04832H15.881V14.9256H14.6021ZM18.2491 11.7875L19.9968 14.9256H18.5697L16.8531 11.7875H18.2491Z" fill="black"/>
<path d="M9.09461 14.9256V8H13.6862V9.0517H10.3735V10.9319H13.4483V11.9836H10.3735V13.8739H13.7137V14.9256H9.09461Z" fill="black"/>
<path d="M3.40297 8L5.24028 13.4512H5.31267L7.14653 8H8.55295L6.06414 14.9256H4.48536L2 8H3.40297Z" fill="black"/>
</svg>
