<svg width="24" height="24" viewBox="0 0 24 24" fill="none" xmlns="http://www.w3.org/2000/svg">
<path d="M16.2869 12.4297L15.1598 11.3478C15.3103 10.55 15.0732 9.83267 14.4484 9.19588C13.8238 8.55926 13.0572 8.3132 12.1487 8.45771L11.0216 7.37585C11.2481 7.27823 11.4803 7.20501 11.7184 7.1562C11.9564 7.10739 12.217 7.08298 12.5 7.08298C13.6388 7.08298 14.6056 7.46431 15.4001 8.22698C16.1947 8.98964 16.592 9.91753 16.592 11.0106C16.592 11.2823 16.5666 11.5355 16.5157 11.7702C16.4649 12.0048 16.3886 12.2246 16.2869 12.4297ZM19.4793 15.4272L18.3715 14.4306C19.0072 13.9649 19.5718 13.4552 20.0652 12.9012C20.5587 12.3473 20.9811 11.7171 21.3324 11.0106C20.496 9.38896 19.2957 8.10046 17.7317 7.14512C16.1676 6.18978 14.4237 5.71211 12.5 5.71211C12.0149 5.71211 11.5381 5.74423 11.0698 5.80845C10.6014 5.87267 10.1414 5.96901 9.68969 6.09746L8.52016 4.9749C9.15448 4.73277 9.80236 4.55431 10.4638 4.43951C11.1252 4.32455 11.8039 4.26707 12.5 4.26707C14.8521 4.26707 16.9733 4.88956 18.8636 6.13455C20.7538 7.37954 22.1327 9.0049 23 11.0106C22.6281 11.8714 22.1479 12.6748 21.5592 13.421C20.9704 14.1669 20.2771 14.8357 19.4793 15.4272ZM20.7963 20.514C20.5131 20.7859 20.0662 20.7867 19.782 20.516L16.2292 17.1316C15.7145 17.3145 15.144 17.464 14.5179 17.5801C13.8919 17.6961 13.2193 17.7542 12.5 17.7542C10.1414 17.7542 8.02016 17.1317 6.13642 15.8867C4.25251 14.6417 2.8737 13.0164 2 11.0106C2.37053 10.1597 2.8492 9.36584 3.43602 8.62918C4.02283 7.89237 4.66879 7.2535 5.37387 6.71257L3.14067 4.54526C2.84218 4.25559 2.84354 3.7761 3.14365 3.48811C3.42789 3.21535 3.8767 3.21538 4.16091 3.48818L20.7962 19.4553C21.0971 19.7441 21.0971 20.2252 20.7963 20.514ZM6.43175 7.72772C5.90147 8.13281 5.38575 8.61979 4.88458 9.18866C4.38341 9.75736 3.97775 10.3647 3.66761 11.0106C4.50401 12.6323 5.70425 13.9208 7.26832 14.8761C8.83239 15.8315 10.5763 16.3091 12.5 16.3091C12.9568 16.3091 13.4118 16.272 13.8648 16.1979C14.3176 16.1238 14.7017 16.0473 15.017 15.9683L13.7468 14.7196C13.5757 14.7862 13.3776 14.8393 13.1524 14.8788C12.9272 14.9184 12.7098 14.9383 12.5 14.9383C11.3612 14.9383 10.3944 14.5569 9.59987 13.7943C8.80529 13.0316 8.408 12.1037 8.408 11.0106C8.408 10.8155 8.42866 10.6115 8.46997 10.3984C8.51112 10.1853 8.56641 9.9905 8.63583 9.81388L6.43175 7.72772Z" fill="black"/>
</svg>
