<svg width="24" height="24" viewBox="0 0 24 24" fill="none" xmlns="http://www.w3.org/2000/svg">
<path d="M11.5023 16.077C12.6396 16.077 13.6056 15.6804 14.4001 14.8872C15.1947 14.0941 15.592 13.1309 15.592 11.9978C15.592 10.8646 15.194 9.90217 14.3979 9.1105C13.6018 8.31883 12.6351 7.923 11.4977 7.923C10.3604 7.923 9.39445 8.31958 8.59987 9.11275C7.80529 9.90592 7.408 10.8691 7.408 12.0023C7.408 13.1354 7.80604 14.0978 8.60212 14.8895C9.39821 15.6812 10.3649 16.077 11.5023 16.077ZM11.5 14.7C10.7472 14.7 10.1074 14.4375 9.58046 13.9125C9.05353 13.3875 8.79006 12.75 8.79006 12C8.79006 11.25 9.05353 10.6125 9.58046 10.0875C10.1074 9.5625 10.7472 9.3 11.5 9.3C12.2528 9.3 12.8926 9.5625 13.4195 10.0875C13.9465 10.6125 14.2099 11.25 14.2099 12C14.2099 12.75 13.9465 13.3875 13.4195 13.9125C12.8926 14.4375 12.2528 14.7 11.5 14.7ZM11.5013 19C9.19329 19 7.09033 18.3657 5.19237 17.097C3.29441 15.8285 1.89696 14.1295 1 12C1.89696 9.8705 3.29391 8.1715 5.19087 6.903C7.08799 5.63433 9.19061 5 11.4987 5C13.8067 5 15.9097 5.63433 17.8076 6.903C19.7056 8.1715 21.103 9.8705 22 12C21.103 14.1295 19.7061 15.8285 17.8091 17.097C15.912 18.3657 13.8094 19 11.5013 19ZM11.5 17.5C13.3903 17.5 15.1258 17.0042 16.7066 16.0125C18.2874 15.0208 19.496 13.6833 20.3324 12C19.496 10.3167 18.2874 8.97917 16.7066 7.9875C15.1258 6.99583 13.3903 6.5 11.5 6.5C9.60973 6.5 7.8742 6.99583 6.29341 7.9875C4.71261 8.97917 3.50401 10.3167 2.66761 12C3.50401 13.6833 4.71261 15.0208 6.29341 16.0125C7.8742 17.0042 9.60973 17.5 11.5 17.5Z" fill="black"/>
</svg>
