<svg width="24" height="24" viewBox="0 0 24 24" fill="none" xmlns="http://www.w3.org/2000/svg">
<path d="M20.0312 20.4978C19.7416 20.7762 19.2821 20.7703 18.9998 20.4844L11.0156 12.3981C10.1522 12.5072 9.3363 12.7484 8.56787 13.1216C8.14333 13.3279 7.74943 13.5688 7.38617 13.8444C6.90543 14.209 6.21297 14.2219 5.79202 13.7896C5.38787 13.3746 5.38765 12.7067 5.83956 12.3443C6.19765 12.0571 6.57911 11.7948 6.98393 11.5572C7.69633 11.1393 8.45036 10.8256 9.24601 10.616L6.40112 7.75115C5.70777 8.06489 5.02307 8.45369 4.34701 8.91753C3.97634 9.17185 3.62196 9.44238 3.28387 9.72911C2.82659 10.1169 2.13929 10.1152 1.72365 9.683C1.32133 9.26469 1.32402 8.59828 1.76062 8.21587C2.10691 7.91254 2.46572 7.6268 2.83704 7.35865C3.4878 6.88851 4.14385 6.4836 4.80518 6.14389L3.1983 4.52543C2.92022 4.24535 2.92023 3.79336 3.19833 3.51329C3.47923 3.2304 3.93678 3.2304 4.21768 3.51329L20.0433 19.4512C20.3323 19.7422 20.3269 20.2136 20.0312 20.4978ZM11.9908 19.7686C11.4477 19.7686 10.9887 19.5773 10.6136 19.1947C10.2386 18.8121 10.0512 18.3523 10.0512 17.8152C10.0512 17.2684 10.2386 16.8061 10.6136 16.4285C10.9887 16.0509 11.4477 15.8622 11.9908 15.8622C12.5338 15.8622 12.9928 16.0509 13.3679 16.4285C13.7429 16.8061 13.9303 17.2684 13.9303 17.8152C13.9303 18.3523 13.7429 18.8121 13.3679 19.1947C12.9928 19.5773 12.5338 19.7686 11.9908 19.7686ZM18.2112 13.7347C17.9063 14.0418 17.4096 14.0418 17.1047 13.7347L16.5514 13.1775L13.8232 10.43C14.7444 10.559 15.6461 10.8445 16.5284 11.2866C17.1494 11.5978 17.7279 11.9768 18.2638 12.4234C18.6412 12.7379 18.6384 13.3045 18.2923 13.6531L18.2112 13.7347ZM22.2627 9.68778C21.8436 10.1181 21.1558 10.1178 20.7 9.72658C19.6605 8.83448 18.4984 8.1112 17.2137 7.55671C15.5888 6.85538 13.8478 6.50472 11.9908 6.50472C11.6546 6.50472 11.3257 6.51681 11.0043 6.54099C10.683 6.56517 10.3714 6.60145 10.0697 6.64982L8.23 4.7971C8.79271 4.647 9.38441 4.53446 10.0051 4.45949C10.6257 4.38436 11.2876 4.3468 11.9908 4.3468C14.1593 4.3468 16.182 4.75389 18.0587 5.56808C19.6054 6.23909 20.9962 7.11837 22.2309 8.20594C22.6711 8.59364 22.6719 9.26755 22.2627 9.68778Z" fill="black"/>
</svg>
