<svg width="24" height="24" viewBox="0 0 24 24" fill="none" xmlns="http://www.w3.org/2000/svg">
<path d="M21.7599 18.8601L13.7799 3.12012C13.0199 1.62012 10.9899 1.62012 10.2299 3.12012L2.23991 18.8601C1.51991 20.2801 2.48991 22.0001 4.01991 22.0001H19.9799C21.4999 22.0001 22.4799 20.2801 21.7599 18.8601ZM4.01991 20.4001C3.63991 20.4001 3.39991 19.9701 3.57991 19.6201L11.5599 3.88012C11.7499 3.51012 12.2599 3.51012 12.4499 3.88012L20.4299 19.6201C20.6099 19.9701 20.3699 20.4001 19.9899 20.4001H4.01991Z" fill="black"/>
<path d="M11.9999 15.0101C12.4099 15.0101 12.7399 14.6901 12.7399 14.2801L12.8499 8.91012C12.8499 8.43012 12.4699 8.03012 11.9899 8.03012C11.5099 8.03012 11.1199 8.43012 11.1299 8.91012L11.2499 14.2801C11.2499 14.6801 11.5899 15.0101 11.9899 15.0101H11.9999Z" fill="black"/>
<path d="M12.0099 15.9701C11.4599 15.9701 10.9999 16.4201 10.9999 16.9601C10.9999 17.5001 11.4499 17.9701 12.0099 17.9701C12.5699 17.9701 12.9999 17.5201 12.9999 16.9601C12.9999 16.4001 12.5399 15.9701 12.0099 15.9701Z" fill="black"/>
</svg>
