<svg width="24" height="24" viewBox="0 0 24 24" fill="none" xmlns="http://www.w3.org/2000/svg">
<path d="M21 10.04C21 9.56 20.81 9.12 20.49 8.79V6.16C20.49 4.97 19.49 4 18.27 4H5.22C4 4 3 4.97 3 6.16V18.84C3 20.03 4 21 5.22 21H18.26C19.49 21 20.48 20.03 20.48 18.84V16.21C20.79 15.88 20.99 15.44 20.99 14.96V10.05L21 10.04ZM19.08 9.95C19.14 9.95 19.18 9.99 19.18 10.05V14.96C19.18 15.01 19.13 15.06 19.08 15.06H13.01C12.95 15.06 12.91 15.02 12.91 14.96V10.05C12.91 10 12.96 9.95 13.01 9.95H19.08ZM18.37 19.23H5.12C4.95 19.23 4.82 19.1 4.82 18.94V6.06C4.82 5.9 4.96 5.77 5.12 5.77H18.37C18.54 5.77 18.67 5.9 18.67 6.06V8.17H13.01C11.95 8.17 11.09 9.01 11.09 10.04V14.95C11.09 15.98 11.95 16.82 13.01 16.82H18.67V18.93C18.67 19.09 18.53 19.22 18.37 19.22V19.23Z" fill="black"/>
<path d="M14.87 13.48C15.4278 13.48 15.88 13.0412 15.88 12.5C15.88 11.9588 15.4278 11.52 14.87 11.52C14.3122 11.52 13.86 11.9588 13.86 12.5C13.86 13.0412 14.3122 13.48 14.87 13.48Z" fill="black"/>
</svg>
