<svg width="24" height="24" viewBox="0 0 24 24" fill="none" xmlns="http://www.w3.org/2000/svg">
<path d="M4.89474 4H17.9211C18.5751 4 19.1053 4.52672 19.1053 5.17647C19.1053 5.82622 18.5751 6.35294 17.9211 6.35294H12.1681C11.1216 6.35294 10.2733 7.1957 10.2733 8.23529V15.7647C10.2733 16.8043 11.1216 17.6471 12.1681 17.6471H17.9211C18.5751 17.6471 19.1053 18.1738 19.1053 18.8235C19.1053 19.4733 18.5751 20 17.9211 20H4.89474C3.8483 20 3 19.1572 3 18.1176V5.88235C3 4.84276 3.8483 4 4.89474 4Z" fill="black"/>
<path d="M11.5263 9.64706C11.5263 8.60746 12.3746 7.76471 13.4211 7.76471H19.1053C20.1517 7.76471 21 8.60746 21 9.64706V14.3529C21 15.3925 20.1517 16.2353 19.1053 16.2353H13.4211C12.3746 16.2353 11.5263 15.3925 11.5263 14.3529V9.64706Z" fill="black"/>
<path d="M17.2105 12C17.2105 12.7797 16.5743 13.4118 15.7895 13.4118C15.0046 13.4118 14.3684 12.7797 14.3684 12C14.3684 11.2203 15.0046 10.5882 15.7895 10.5882C16.5743 10.5882 17.2105 11.2203 17.2105 12Z" fill="white"/>
</svg>
