<svg width="24" height="24" viewBox="0 0 24 24" fill="none" xmlns="http://www.w3.org/2000/svg">
<path d="M21.7599 18.8601L13.7799 3.12012C13.0199 1.62012 10.9899 1.62012 10.2299 3.12012L2.23991 18.8601C1.51991 20.2801 2.48991 22.0001 4.01991 22.0001H19.9799C21.4999 22.0001 22.4799 20.2801 21.7599 18.8601ZM11.9899 8.03012C12.4699 8.03012 12.8599 8.43012 12.8499 8.91012L12.7399 14.2801C12.7399 14.6901 12.3999 15.0101 11.9999 15.0101C11.5999 15.0101 11.2599 14.6901 11.2599 14.2801L11.1399 8.91012C11.1299 8.43012 11.5199 8.03012 11.9999 8.03012H11.9899ZM12.0099 17.9701C11.4599 17.9701 10.9999 17.5201 10.9999 16.9601C10.9999 16.4001 11.4499 15.9701 12.0099 15.9701C12.5699 15.9701 12.9999 16.4201 12.9999 16.9601C12.9999 17.5001 12.5399 17.9701 12.0099 17.9701Z" fill="black"/>
</svg>
