<svg width="24" height="24" viewBox="0 0 24 24" fill="none" xmlns="http://www.w3.org/2000/svg">
<path d="M12.5 20C11.9904 20 11.5597 19.8233 11.2077 19.47C10.8559 19.1166 10.68 18.684 10.68 18.1721C10.68 17.6604 10.8559 17.2278 11.2077 16.8745C11.5597 16.5211 11.9904 16.3445 12.5 16.3445C13.0096 16.3445 13.4403 16.5211 13.7923 16.8745C14.1441 17.2278 14.32 17.6604 14.32 18.1721C14.32 18.684 14.1441 19.1166 13.7923 19.47C13.4403 19.8233 13.0096 20 12.5 20ZM8.17591 14.475C7.72805 14.8141 7.08631 14.8178 6.69383 14.4158C6.30907 14.0218 6.30882 13.3867 6.73684 13.0401C7.39185 12.5098 8.11766 12.0711 8.91425 11.7242C10.0229 11.2414 11.2186 11 12.5014 11C13.7843 11 14.9795 11.2437 16.0871 11.7312C16.8854 12.0825 17.6128 12.5273 18.2691 13.0655C18.6933 13.4133 18.6882 14.0462 18.3012 14.4349C17.9103 14.8275 17.2785 14.8208 16.8377 14.4853C16.3662 14.1265 15.8517 13.8265 15.2941 13.5851C14.4229 13.2079 13.4915 13.0193 12.5 13.0193C11.5085 13.0193 10.5771 13.2079 9.70585 13.5851C9.15363 13.8242 8.64365 14.1208 8.17591 14.475Z" fill="black"/>
</svg>
