<svg width="24" height="24" viewBox="0 0 24 24" fill="none" xmlns="http://www.w3.org/2000/svg">
<path d="M12 20C11.4574 20 10.9988 19.8164 10.624 19.4491C10.2494 19.0818 10.0621 18.6322 10.0621 18.1001C10.0621 17.5682 10.2494 17.1186 10.624 16.7513C10.9988 16.3841 11.4574 16.2004 12 16.2004C12.5426 16.2004 13.0012 16.3841 13.376 16.7513C13.7506 17.1186 13.9379 17.5682 13.9379 18.1001C13.9379 18.6322 13.7506 19.0818 13.376 19.4491C13.0012 19.8164 12.5426 20 12 20ZM7.37359 14.2737C6.90765 14.6208 6.2466 14.6246 5.83573 14.2139C5.41897 13.7972 5.41906 13.1153 5.88228 12.751C6.5748 12.2064 7.34136 11.7555 8.18193 11.3981C9.36241 10.8963 10.6356 10.6454 12.0014 10.6454C13.3675 10.6454 14.6402 10.8987 15.8195 11.4054C16.6619 11.7673 17.4301 12.2246 18.124 12.7772C18.5832 13.1429 18.5781 13.8224 18.159 14.2333C17.7499 14.6344 17.0991 14.6274 16.6404 14.2842C16.1325 13.9041 15.5774 13.5868 14.9752 13.3323C14.0474 12.9403 13.0557 12.7443 12 12.7443C10.9443 12.7443 9.95257 12.9403 9.02482 13.3323C8.42809 13.5845 7.87767 13.8983 7.37359 14.2737ZM3.26237 10.2626C2.82364 10.6317 2.17097 10.6354 1.76156 10.234C1.34256 9.8232 1.33794 9.14607 1.78171 8.76217C3.00232 7.70623 4.38129 6.85119 5.91864 6.19705C7.7938 5.39902 9.82092 5 12 5C14.1791 5 16.2062 5.39902 18.0814 6.19705C19.6187 6.85119 20.9977 7.70623 22.2183 8.76217C22.6621 9.14607 22.6574 9.8232 22.2384 10.234C21.829 10.6354 21.1764 10.6317 20.7376 10.2626C19.6899 9.38112 18.5169 8.66763 17.2186 8.12213C15.595 7.43998 13.8555 7.0989 12 7.0989C10.1445 7.0989 8.40499 7.43998 6.78144 8.12213C5.48311 8.66763 4.31008 9.38112 3.26237 10.2626Z" fill="black"/>
</svg>
