<svg width="16" height="20" viewBox="0 0 16 20" fill="none" xmlns="http://www.w3.org/2000/svg">
<path d="M7.99992 3.33423C6.68138 3.33423 5.39245 3.72522 4.29612 4.45776C3.19979 5.19031 2.34531 6.2315 1.84072 7.44967C1.33614 8.66785 1.20412 10.0083 1.46135 11.3015C1.71859 12.5947 2.35353 13.7826 3.28588 14.7149C4.21823 15.6473 5.40611 16.2822 6.69932 16.5395C7.99253 16.7967 9.33297 16.6647 10.5511 16.1601C11.7693 15.6555 12.8105 14.801 13.5431 13.7047C14.2756 12.6084 14.6666 11.3194 14.6666 10.0009C14.6666 9.12542 14.4942 8.25851 14.1591 7.44967C13.8241 6.64083 13.333 5.90591 12.714 5.28685C12.0949 4.66779 11.36 4.17673 10.5511 3.8417C9.74231 3.50667 8.8754 3.33423 7.99992 3.33423ZM7.86659 13.0676C7.81319 13.1384 7.74618 13.198 7.66948 13.2426C7.59278 13.2873 7.50793 13.3161 7.41992 13.3276H7.33326C7.18288 13.3267 7.03721 13.275 6.91992 13.1809L3.58659 10.5142L4.41325 9.47423L7.21325 11.7076L10.7999 6.93423L11.8666 7.73423L7.86659 13.0676Z" fill="#00B96B"/>
</svg>
