<svg width="24" height="24" viewBox="0 0 24 24" fill="none" xmlns="http://www.w3.org/2000/svg">
<path fill-rule="evenodd" clip-rule="evenodd" d="M20.7171 19.3571L13.2996 11.9975L20.7371 4.49788C21.097 4.1379 21.077 3.57793 20.6971 3.24794C20.3172 2.90796 19.7174 2.92796 19.3576 3.28794L12 10.7076L4.49249 3.25794C4.1426 2.89796 3.58279 2.91796 3.2429 3.29794C2.90301 3.67792 2.92301 4.27789 3.28289 4.63787L10.7004 11.9975L3.26289 19.5071C2.90301 19.8671 2.92301 20.427 3.30288 20.757C3.68276 21.097 4.28256 21.077 4.64244 20.717L12.01 13.2974L19.5075 20.737C19.8674 21.097 20.4272 21.077 20.7571 20.697C21.097 20.3171 21.077 19.7171 20.7171 19.3571Z" fill="#383838"/>
</svg>
