<svg width="41" height="40" viewBox="0 0 41 40" fill="none" xmlns="http://www.w3.org/2000/svg">
<path fill-rule="evenodd" clip-rule="evenodd" d="M34.0859 36.4142L16.0859 18.4142L18.9144 15.5858L36.9144 33.5858C37.6954 34.3669 37.6954 35.6332 36.9144 36.4142C36.1333 37.1953 34.867 37.1953 34.0859 36.4142Z" fill="#BEC8D6"/>
<path d="M35 18C35 26.8366 27.8366 34 19 34C10.1634 34 3 26.8366 3 18C3 9.16344 10.1634 2 19 2C27.8366 2 35 9.16344 35 18Z" fill="white"/>
<path fill-rule="evenodd" clip-rule="evenodd" d="M19 30C25.6274 30 31 24.6274 31 18C31 11.3726 25.6274 6 19 6C12.3726 6 7 11.3726 7 18C7 24.6274 12.3726 30 19 30ZM19 34C27.8366 34 35 26.8366 35 18C35 9.16344 27.8366 2 19 2C10.1634 2 3 9.16344 3 18C3 26.8366 10.1634 34 19 34Z" fill="#E0E6EF"/>
<circle cx="13" cy="18" r="2" fill="#BEC8D6"/>
<circle cx="19" cy="18" r="2" fill="#BEC8D6"/>
<circle cx="25" cy="18" r="2" fill="#BEC8D6"/>
</svg>
