<svg width="14" height="14" viewBox="0 0 14 14" fill="none" xmlns="http://www.w3.org/2000/svg">
<path d="M13.4737 12.527L9.64032 8.69366C10.2803 7.85366 10.667 6.80699 10.667 5.66699C10.667 2.90699 8.42699 0.666992 5.66699 0.666992C2.90699 0.666992 0.666992 2.90699 0.666992 5.66699C0.666992 8.42699 2.90699 10.667 5.66699 10.667C6.80699 10.667 7.85366 10.2803 8.69366 9.64032L12.527 13.4737L13.4737 12.527ZM2.00033 5.66699C2.00033 3.64699 3.64699 2.00033 5.66699 2.00033C7.68699 2.00033 9.33366 3.64699 9.33366 5.66699C9.33366 7.68699 7.68699 9.33366 5.66699 9.33366C3.64699 9.33366 2.00033 7.68699 2.00033 5.66699Z" fill="white"/>
</svg>
