<svg width="40" height="40" viewBox="0 0 40 40" fill="none" xmlns="http://www.w3.org/2000/svg">
<path fill-rule="evenodd" clip-rule="evenodd" d="M24.0254 22.85L25.2087 24.0333L26.8754 25.6667L26.4921 26.0417L25.7004 26.875L23.7671 24.9417C22.6001 25.5337 21.309 25.8393 20.0004 25.8333C15.0004 25.8333 12.5004 21.6667 11.8087 20.5C11.7148 20.3501 11.665 20.1769 11.665 20C11.665 19.8231 11.7148 19.6499 11.8087 19.5C12.5575 18.135 13.5718 16.9336 14.7921 15.9667L13.1254 14.3L14.3004 13.125L14.7171 13.5417L16.2337 15.0583L17.5004 16.3083L18.3337 17.1417L22.8587 21.6667L24.0254 22.85ZM13.4421 20C14.6421 21.975 16.7171 24.1667 20.0004 24.1667C20.8565 24.1703 21.7053 24.0091 22.5004 23.6917L21.6671 22.8583C21.1654 23.1662 20.589 23.3305 20.0004 23.3333C19.1164 23.3333 18.2685 22.9821 17.6434 22.357C17.0183 21.7319 16.6671 20.8841 16.6671 20C16.67 19.4115 16.8343 18.835 17.1421 18.3333L15.9421 17.15C14.9328 17.9299 14.0839 18.8977 13.4421 20ZM20.0005 14.1667C19.1026 14.1628 18.2102 14.3064 17.3588 14.5917L18.7255 15.9501C19.1459 15.8718 19.5728 15.8327 20.0005 15.8334C23.2838 15.8334 25.3588 18.0251 26.5588 20.0001C26.0943 20.7728 25.5343 21.4839 24.8921 22.1167L26.0671 23.3334C26.9046 22.5086 27.6202 21.5686 28.1921 20.5417C28.286 20.3919 28.3358 20.2186 28.3358 20.0417C28.3358 19.8649 28.286 19.6916 28.1921 19.5417C27.5005 18.3334 25.0005 14.1667 20.0005 14.1667ZM23.3337 20C23.3337 19.1159 22.9825 18.2681 22.3573 17.643C21.7322 17.0179 20.8844 16.6667 20.0003 16.6667C19.8299 16.6705 19.6599 16.6872 19.492 16.7167L23.2836 20.5083C23.3131 20.3404 23.3298 20.1705 23.3337 20Z" fill="#181A1C"/>
</svg>
