<svg width="40" height="40" viewBox="0 0 40 40" fill="none" xmlns="http://www.w3.org/2000/svg">
<path d="M23.3334 20C23.3334 21.841 21.841 23.3334 20 23.3334C18.1591 23.3334 16.6667 21.841 16.6667 20C16.6667 18.1591 18.1591 16.6667 20 16.6667C21.841 16.6667 23.3334 18.1591 23.3334 20Z" fill="#181A1C"/>
<path fill-rule="evenodd" clip-rule="evenodd" d="M11.8084 19.5C12.5 18.3334 15 14.1667 20 14.1667C25 14.1667 27.5 18.3334 28.1917 19.5C28.2856 19.6499 28.3354 19.8232 28.3354 20C28.3354 20.1769 28.2856 20.3502 28.1917 20.5C27.5 21.6667 25 25.8334 20 25.8334C15 25.8334 12.5 21.6667 11.8084 20.5C11.7145 20.3502 11.6647 20.1769 11.6647 20C11.6647 19.8232 11.7145 19.6499 11.8084 19.5ZM13.4417 20C14.6417 21.975 16.7167 24.1667 20 24.1667C23.2834 24.1667 25.3584 21.975 26.5584 20C25.3584 18.025 23.2834 15.8334 20 15.8334C16.7167 15.8334 14.6417 18.025 13.4417 20Z" fill="#181A1C"/>
</svg>
