<svg width="16" height="20" viewBox="0 0 16 20" fill="none" xmlns="http://www.w3.org/2000/svg">
<path d="M8.00017 3.33398C6.68162 3.33398 5.39269 3.72498 4.29636 4.45752C3.20004 5.19006 2.34555 6.23125 1.84097 7.44943C1.33638 8.6676 1.20436 10.008 1.4616 11.3013C1.71883 12.5945 2.35377 13.7823 3.28612 14.7147C4.21847 15.647 5.40636 16.282 6.69956 16.5392C7.99277 16.7965 9.33322 16.6644 10.5514 16.1598C11.7696 15.6553 12.8108 14.8008 13.5433 13.7045C14.2758 12.6081 14.6668 11.3192 14.6668 10.0007C14.6668 9.12517 14.4944 8.25827 14.1594 7.44943C13.8243 6.64059 13.3333 5.90566 12.7142 5.28661C12.0952 4.66755 11.3602 4.17649 10.5514 3.84145C9.74255 3.50642 8.87565 3.33398 8.00017 3.33398V3.33398ZM8.66683 14.0007H7.3335V12.6673H8.66683V14.0007ZM8.66683 11.334H7.3335V6.00065H8.66683V11.334Z" fill="#FF403E"/>
</svg>
